<?xml version="1.0" encoding="utf-8"?>
<!-- Generator: Adobe Illustrator 22.0.1, SVG Export Plug-In . SVG Version: 6.00 Build 0)  -->
<svg version="1.1" id="Layer_1" xmlns="http://www.w3.org/2000/svg" xmlns:xlink="http://www.w3.org/1999/xlink" x="0px" y="0px"
	 viewBox="0 0 51 70.7" style="enable-background:new 0 0 51 70.7;" xml:space="preserve">
<g class="floating-pin__outline">
	<path class="floating-pin__background" d="M47,24.3c0-12-9.7-21.7-21.7-21.7c-12,0-21.7,9.7-21.7,21.7c0,17.1,21.7,42.5,21.7,42.5S47,41.3,47,24.3
		L47,24.3z M14.6,23"/>
</g>
<g>
	<path class="floating-pin__icon" d="M25.3,30.6c-1.7,0-3.3-0.1-4.9-0.6c-0.8-0.3-1.6-0.6-2.2-1.2c-0.2-0.2-0.3-0.4-0.3-0.7c0.1-1.1,0-2.2,0.3-3.4
		c0.3-1.5,1.1-2.5,2.5-3c0.7-0.3,1.4-0.4,2.2-0.6c0.2,0,0.4,0,0.6,0.1c1.3,0.9,2.6,0.8,3.8,0c0.1-0.1,0.3-0.2,0.4-0.1
		c1,0.2,2,0.4,3,0.9c1.3,0.7,1.7,1.9,1.9,3.2c0.1,1,0.1,1.9,0.2,2.9c0,0.3-0.1,0.5-0.3,0.7c-0.8,0.8-1.8,1.1-2.9,1.4
		c-0.5,0.1-1,0.2-1.5,0.3C27.1,30.7,26.2,30.7,25.3,30.6z"/>
	<path class="floating-pin__icon" d="M29.2,15.6c0,1.8-0.4,3.3-1.7,4.4c-1.5,1.3-3.6,1.1-4.9-0.4c-1.2-1.4-1.4-3.1-1.2-4.8c0-0.3,0.1-0.6,0.2-0.9
		c0.3-1.3,1.2-2.2,2.6-2.4c0.8-0.1,1.6-0.1,2.5,0c1.3,0.3,2.1,1.1,2.4,2.4C29.2,14.5,29.2,15.2,29.2,15.6z"/>
</g>
</svg>
