<?xml version="1.0" encoding="utf-8"?>
<!-- Generator: Adobe Illustrator 22.0.1, SVG Export Plug-In . SVG Version: 6.00 Build 0)  -->
<svg version="1.1" id="Layer_1" xmlns="http://www.w3.org/2000/svg" xmlns:xlink="http://www.w3.org/1999/xlink" x="0px" y="0px"
	 viewBox="0 0 51 70.7" style="enable-background:new 0 0 51 70.7;" xml:space="preserve">
<g class="floating-pin__outline">
	<path class="floating-pin__background" d="M47,24.3c0-12-9.7-21.7-21.7-21.7c-12,0-21.7,9.7-21.7,21.7c0,17.1,21.7,42.5,21.7,42.5S47,41.3,47,24.3
		L47,24.3z M14.6,23"/>
</g>
<g>
	<path class="floating-pin__icon" d="M23.4,22.6c0.1-0.5,0.2-1,0.3-1.5c0.1-0.6,0.3-1.1,0.4-1.7c0.2-1,0.4-1.9,0.7-2.9c0.1-0.3,0.1-0.5,0.3-0.7
		c0.2-0.3,0.6-0.4,1.1-0.2c0.3,0.1,0.6,0.4,0.6,0.8c0,0.3-0.1,0.6-0.1,1c-0.2,0.7-0.3,1.3-0.5,2c-0.2,0.7-0.3,1.4-0.5,2.1
		c-0.3,1.2-0.6,2.4-0.9,3.5c-0.3,1-1.2,1.2-1.9,0.8c-0.3-0.1-0.4-0.4-0.5-0.7c-0.2-0.6-0.4-1.3-0.6-1.9c-0.3-0.9-0.5-1.8-0.8-2.8
		c-0.2-0.6-0.3-1.3-0.5-1.9c0,0,0-0.1,0-0.1c-0.1,0-0.1,0.1-0.1,0.1c-0.3,1.3-0.7,2.5-1,3.8c-0.3,0.9-0.5,1.9-0.8,2.8
		c-0.3,0.8-1,1.1-1.7,0.8c-0.4-0.1-0.6-0.4-0.7-0.8c-0.2-0.8-0.4-1.6-0.6-2.4c-0.2-1-0.5-1.9-0.7-2.9c-0.2-0.9-0.4-1.7-0.6-2.6
		C14.1,17,14,16.7,14,16.5c0-0.6,0.5-1.1,1.1-1c0.4,0,0.7,0.2,0.8,0.6c0.2,0.7,0.4,1.5,0.5,2.2c0.2,1,0.5,2,0.7,3
		c0.1,0.4,0.2,0.8,0.3,1.3c0.2-0.6,0.3-1.1,0.5-1.7c0.4-1.4,0.8-2.8,1.1-4.3c0.1-0.3,0.2-0.5,0.3-0.8c0.3-0.4,0.7-0.5,1.1-0.5
		c0.6,0,1,0.3,1.2,0.9c0.4,1.1,0.6,2.2,0.9,3.4c0.2,0.8,0.4,1.5,0.6,2.3C23.3,22.2,23.3,22.4,23.4,22.6
		C23.4,22.6,23.4,22.6,23.4,22.6z"/>
	<path class="floating-pin__icon" d="M32.3,15.5c1.1,0,2.2,0.2,3.1,0.9c0.7,0.5,1.2,1.2,1.3,2c0.1,0.5-0.3,1-0.8,1.1c-0.3,0-0.6-0.1-0.8-0.3
		c-0.2-0.3-0.4-0.7-0.6-1c-0.4-0.5-0.9-0.9-1.6-0.9c-0.5-0.1-1,0-1.4,0.2c-0.7,0.3-1.1,0.8-1.3,1.4c-0.3,0.8-0.4,1.6-0.3,2.5
		c0,0.6,0.1,1.1,0.4,1.6c0.4,0.7,0.9,1.2,1.8,1.3c0.5,0.1,1,0.1,1.4-0.1c0.8-0.3,1.2-0.9,1.5-1.6c0.1-0.2,0.2-0.4,0.3-0.6
		c0.2-0.3,0.8-0.3,1.2-0.1c0.4,0.3,0.4,0.6,0.3,1.1c-0.1,0.3-0.1,0.6-0.3,0.9c-0.1,0.1-0.1,0.3-0.2,0.3c-0.5,0.6-1.2,1.3-2,1.5
		c-0.9,0.3-2,0.3-3,0.2c-0.6-0.1-1.2-0.4-1.7-0.7c-0.7-0.5-1.1-1.2-1.5-2c-0.3-0.8-0.4-1.6-0.4-2.4c0-0.9,0.1-1.9,0.6-2.7
		c0.5-1.1,1.4-1.9,2.6-2.3C31.3,15.6,31.8,15.5,32.3,15.5z"/>
</g>
</svg>
