<?xml version="1.0" encoding="utf-8"?>
<!-- Generator: Adobe Illustrator 22.0.1, SVG Export Plug-In . SVG Version: 6.00 Build 0)  -->
<svg version="1.1" id="Layer_1" xmlns="http://www.w3.org/2000/svg" xmlns:xlink="http://www.w3.org/1999/xlink" x="0px" y="0px"
	 viewBox="0 0 51 70.7" style="enable-background:new 0 0 51 70.7;" xml:space="preserve">
<g class="floating-pin__outline">
	<path class="floating-pin__background" d="M47,24.3c0-12-9.7-21.7-21.7-21.7c-12,0-21.7,9.7-21.7,21.7c0,17.1,21.7,42.5,21.7,42.5S47,41.3,47,24.3
		L47,24.3z M14.6,23"/>
</g>
<g>
	<path class="floating-pin__icon" d="M25.5,23.8c3.2,0,6.5,0,9.7,0c0,0,0.1,0,0.1,0c0.1,0,0.1,0,0.1,0.1c0,0.1,0,0.2,0,0.2c0,1.5,0,3,0,4.5
		c0,0.9,0,1.9,0,2.8c0,0.2,0,0.4,0,0.6c-0.1,0.6-0.7,1.1-1.3,1.1c-1.3,0-2.6,0-4,0c-4.4,0-8.9,0-13.3,0c-0.8,0-1.4-0.6-1.4-1.4
		c0-2.6,0-5.2,0-7.9c0-0.2,0-0.2,0.2-0.2C18.9,23.8,22.2,23.8,25.5,23.8z"/>
	<path class="floating-pin__icon" d="M17.2,20.3c-0.1-0.1-0.1-0.1-0.1-0.2c0-0.2,0.1-0.4,0.3-0.4c0.2,0,0.2,0,0.2-0.2c0-0.1,0-0.3,0-0.4
		c0-0.2,0-0.2-0.2-0.2c-0.5,0-1.1,0-1.6,0c-0.3,0-0.5,0-0.8-0.2c-0.4-0.2-0.6-0.6-0.6-1c0-1,0-1.9,0-2.9c0-0.2,0-0.3,0-0.5
		c0.1-0.5,0.5-0.9,1-1c0.1,0,0.3,0,0.4,0c0,0,0.1,0,0.1,0c0,0,0,0,0,0c0,0.1,0.1,0,0.2,0c1.8,0,3.7,0,5.5,0c0.7,0,1.3,0.6,1.3,1.3
		c0,1,0,2.1,0,3.1c0,0.5-0.2,0.8-0.6,1c-0.2,0.2-0.5,0.2-0.7,0.2c-0.6,0-1.1,0-1.7,0c-0.2,0-0.2,0-0.2,0.2c0,0.2,0,0.4,0,0.6
		c0,0.1,0,0.1,0.1,0.1c0,0,0,0,0.1,0c0.1,0,0.3,0,0.3,0.2c0,0.1,0,0.2-0.1,0.4c0.1,0,0.1,0,0.1,0c1.7,0,3.4,0,5,0
		c0.2,0,0.2,0,0.2-0.2c0-0.4,0-0.8,0-1.2c0.1-0.9,0.5-1.6,1.2-2.2c0.4-0.3,0.8-0.5,1.2-0.7c0.3-0.1,0.6-0.2,1-0.2c0.8,0,1.5,0,2.3,0
		c0.6,0,1.2,0.2,1.7,0.5c0.9,0.6,1.5,1.4,1.7,2.5c0.1,0.4,0,0.8,0,1.2c0,0.2,0,0.2,0.2,0.2c0.9,0,1.9,0,2.8,0c0.4,0,0.8,0.2,1,0.6
		c0.2,0.4,0.2,0.8,0,1.2c-0.2,0.4-0.6,0.6-1,0.6c-1.4,0-2.8,0-4.2,0c-6.8,0-13.6,0-20.4,0c-0.4,0-0.7-0.1-1-0.4
		c-0.3-0.4-0.4-0.8-0.2-1.2c0.2-0.5,0.6-0.7,1.1-0.7c1.2,0,2.4,0,3.6,0C16.9,20.3,17,20.3,17.2,20.3z M19.4,16
		c0-0.4-0.3-0.6-0.7-0.6c-0.3,0-0.6,0.3-0.6,0.6c0,0.4,0.3,0.6,0.6,0.6C19.1,16.6,19.4,16.3,19.4,16z"/>
	<path class="floating-pin__icon" d="M32.5,12.5c0,1.3-1.1,2.3-2.3,2.3c-1.3,0-2.4-1.1-2.4-2.4c0-1.3,1.1-2.3,2.4-2.3
		C31.5,10.1,32.6,11.2,32.5,12.5z"/>
</g>
</svg>
