<?xml version="1.0" encoding="utf-8"?>
<!-- Generator: Adobe Illustrator 22.0.1, SVG Export Plug-In . SVG Version: 6.00 Build 0)  -->
<svg version="1.1" id="Layer_1" xmlns="http://www.w3.org/2000/svg" xmlns:xlink="http://www.w3.org/1999/xlink" x="0px" y="0px"
	 viewBox="0 0 51 70.7" style="enable-background:new 0 0 51 70.7;" xml:space="preserve">
<g class="floating-pin__outline">
	<path class="floating-pin__background" d="M47,24.3c0-12-9.7-21.7-21.7-21.7c-12,0-21.7,9.7-21.7,21.7c0,17.1,21.7,42.5,21.7,42.5S47,41.3,47,24.3
		L47,24.3z M14.6,23"/>
</g>
<g>
	<path class="floating-pin__icon" d="M29.4,20.3c2.2,0,4.5,0,6.7,0c0.6,0,0.6,0,0.7,0.5c0,0.2,0.1,0.2,0.3,0.2c0.6,0.1,1.1,0.2,1.5,0.6
		c0.7,0.6,0.9,1.4,0.7,2.4c-0.3,0.9-0.8,1.6-1.6,2.2c-1,0.7-2.1,1.1-3.4,0.9c-0.2,0-0.3,0-0.4,0.2c-0.2,0.2-0.3,0.4-0.5,0.7
		c-0.1,0.2-0.3,0.2-0.5,0.2c-2.3,0-4.6,0-6.8,0c-0.2,0-0.4-0.1-0.5-0.2c-0.1-0.1-0.2-0.2-0.2-0.3c-0.5-0.8-1.2-1.4-1.8-2.1
		c-1.2-1.4-1.7-2.9-1.4-4.7c0.1-0.5,0.1-0.5,0.6-0.5C24.9,20.3,27.2,20.3,29.4,20.3z M34.8,26.2c0.2,0,0.3,0,0.4,0
		c1.3-0.2,2.3-0.9,2.9-2.1c0.5-1,0-1.8-1.1-2c-0.2,0-0.3,0-0.3,0.2c-0.1,1.1-0.5,2.1-1.2,2.9C35.4,25.6,35.1,25.8,34.8,26.2z"/>
	<path class="floating-pin__icon" d="M13.4,17.2c0,4.7,2.7,7.8,6.5,8.3c0.7,0.1,1.5,0.1,2.2,0c0.2,0,0.3,0,0.4,0.2c0.1,0.2,0.2,0.3,0.4,0.5
		c0.2,0.2,0.2,0.3-0.1,0.3c-0.8,0.2-1.6,0.3-2.3,0.2c-1.8-0.1-3.5-0.7-5-1.9c-1.8-1.5-2.9-3.4-3.2-5.8c-0.5-4.5,2.7-8.8,7.5-9.4
		c3.1-0.4,5.7,0.7,7.7,3.2c0.2,0.2,0.1,0.6-0.1,0.8c-0.3,0.3-0.3,0.3-0.6,0c-2.6-3.4-7.7-3.9-10.9-1.1C14.2,14,13.4,15.8,13.4,17.2z
		"/>
	<path class="floating-pin__icon" d="M20.9,14.9c0,0.9,0,1.9,0,2.8c0,0.3-0.1,0.4-0.4,0.4c-1.9,0-3.8,0-5.7,0c-0.3,0-0.4-0.1-0.4-0.4
		c0.2-2.2,1.2-3.9,3-5.1c0.9-0.6,1.9-0.9,3-0.9c0.3,0,0.4,0.1,0.4,0.4C20.9,13,20.9,14,20.9,14.9z"/>
	<path class="floating-pin__icon" d="M29.4,28.7c1.8,0,3.7,0,5.5,0c0.4,0,0.5,0.1,0.4,0.5c-0.2,0.8-0.9,1.4-1.7,1.4c-2.8,0-5.5,0-8.3,0
		c-0.8,0-1.6-0.6-1.7-1.4c-0.1-0.4,0-0.4,0.3-0.4C25.7,28.7,27.6,28.7,29.4,28.7z"/>
	<path class="floating-pin__icon" d="M29.9,19.3c-0.2-0.5-0.1-1,0.2-1.4c0.2-0.3,0.4-0.6,0.4-1.1c0-0.5-0.1-0.9-0.5-1.3c-0.4-0.4-0.7-0.9-0.7-1.5
		c-0.1-0.7,0.1-1.3,0.5-1.8c0.4-0.5,1-0.8,1.2-1.5c0.2,0.4,0.1,0.7,0,1.1c-0.1,0.2-0.2,0.5-0.4,0.7c-0.4,0.7-0.4,1.4,0.1,2
		c0.5,0.5,0.8,1.1,0.8,1.9c0,0.6-0.2,1.2-0.7,1.6C30.6,18.4,30.1,18.7,29.9,19.3z"/>
	<path class="floating-pin__icon" d="M27.5,19.3c-0.1-0.3-0.1-0.6,0.1-0.8c0.1-0.1,0.1-0.2,0.2-0.4c0.3-0.5,0.2-0.9-0.1-1.3
		c-0.4-0.4-0.6-0.9-0.5-1.5c0-0.3,0.2-0.6,0.4-0.9c0.3-0.3,0.6-0.5,0.8-1c0.2,0.2,0.1,0.3,0.1,0.5c0,0.2-0.1,0.4-0.2,0.6
		c-0.4,0.7-0.3,1,0.1,1.6c0.7,0.8,0.6,1.7-0.2,2.4c-0.1,0.1-0.2,0.2-0.3,0.4C27.6,19.1,27.6,19.2,27.5,19.3z"/>
</g>
</svg>
