<svg width="24" height="24" viewBox="0 0 24 24" fill="none" xmlns="http://www.w3.org/2000/svg">
<path fill-rule="evenodd" clip-rule="evenodd" d="M9 0C4.02944 0 0 4.02944 0 9C0 13.9706 4.02944 18 9 18C11.159 18 13.1404 17.2398 14.6912 15.9724L22.2562 23.5763C22.6457 23.9678 23.2789 23.9694 23.6704 23.5799C24.0619 23.1904 24.0636 22.5572 23.674 22.1657L16.0907 14.5434C17.2869 13.0154 18 11.091 18 9C18 4.02944 13.9706 0 9 0ZM2 9C2 5.13401 5.13401 2 9 2C12.866 2 16 5.13401 16 9C16 12.866 12.866 16 9 16C5.13401 16 2 12.866 2 9Z" fill="#002EFF"/>
</svg>
