<?xml version="1.0" encoding="utf-8"?>
<!-- Generator: Adobe Illustrator 22.0.1, SVG Export Plug-In . SVG Version: 6.00 Build 0)  -->
<svg version="1.1" id="Layer_1" xmlns="http://www.w3.org/2000/svg" xmlns:xlink="http://www.w3.org/1999/xlink" x="0px" y="0px"
	 viewBox="0 0 51 70.7" style="enable-background:new 0 0 51 70.7;" xml:space="preserve">
<g class="floating-pin__outline">
	<path class="floating-pin__background" d="M47,24.3c0-12-9.7-21.7-21.7-21.7c-12,0-21.7,9.7-21.7,21.7c0,17.1,21.7,42.5,21.7,42.5S47,41.3,47,24.3
		L47,24.3z M14.6,23"/>
</g>
<g>
	<path class="floating-pin__icon" d="M35.9,22.5c0,2.3,0,4.6,0,7c0,0.8,0,1.7,0,2.5c0,0.8-0.5,1.6-1.3,1.9c-0.3,0.1-0.6,0.2-0.9,0.2
		c-5.4,0-10.8,0-16.1,0c-0.9,0-1.6-0.4-2-1.3c-0.1-0.2-0.1-0.5-0.1-0.7c0-6.2,0-12.4,0-18.6c0-0.3,0-0.5,0-0.8
		c0.1-0.7,0.6-1.2,1.2-1.5C17,11,17.3,11,17.6,11c5.4,0,10.8,0,16.1,0c0.9,0,1.6,0.4,2,1.3c0.1,0.2,0.1,0.4,0.1,0.7
		c0,0.8,0,1.6,0,2.4C35.9,17.7,35.9,20.1,35.9,22.5z M34.4,22c0-0.1,0-0.3,0-0.4c0-2.8,0-5.6,0-8.4c0-0.1,0-0.3-0.1-0.4
		c-0.1-0.2-0.3-0.3-0.5-0.3c-5.4,0-10.7,0-16.1,0c0,0-0.1,0-0.1,0c-0.2,0-0.4,0.1-0.5,0.4c-0.1,0.3,0,2.1,0,2.3c0,2.6,0,5.2,0,7.7
		c0,0.4,0,0.7,0,1.1c0,0.4,0,0.7,0,1.1c0,0.4,0,0.7,0,1.1c0,0.4,0,0.7,0,1.1c0,0.4,0,0.7,0,1.1c0,0.4,0,0.7,0,1.1c0,0.4,0,0.7,0,1.1
		c0,0.1,0.1,0.2,0,0.3c-0.1,0.3,0,0.5,0,0.8c0,0.4,0.2,0.6,0.6,0.6c5.4,0,10.8,0,16.1,0c0.4,0,0.6-0.2,0.6-0.6c0-0.3,0-0.7,0-1
		C34.4,27.9,34.4,25,34.4,22z"/>
	<path class="floating-pin__icon" d="M24.5,24.7c0,1.9,0,3.8,0,5.6c0,0.4-0.1,0.6-0.5,0.8c-0.4,0.2-1-0.1-1.1-0.6c0-0.1,0-0.2,0-0.4
		c0-1.8,0-3.5,0-5.3c0-0.1,0-0.1,0-0.2c0-0.1,0-0.1-0.1-0.1c-0.1,0-0.1,0-0.1,0.1c0,0.1,0,0.1,0,0.2c0,1.8,0,3.6,0,5.4
		c0,0.4-0.1,0.7-0.5,0.8c-0.4,0.2-1-0.1-1.1-0.5c0-0.2,0-0.4,0-0.5c0-3.7,0-7.3,0-11c0-0.1,0-0.1,0-0.2c0-0.1,0-0.1-0.1-0.1
		c-0.1,0-0.1,0-0.1,0.1c0,0.1,0,0.1,0,0.2c0,1.5,0,3,0,4.5c0,0.4-0.4,0.8-0.8,0.8c-0.4,0-0.8-0.3-0.8-0.8c0-1,0-1.9,0-2.9
		c0-0.7,0-1.3,0-2c0-0.3,0-0.6,0.2-0.8c0.2-0.4,0.5-0.6,0.9-0.6c0.8-0.1,1.7,0,2.5,0c0.6,0,1.2,0,1.9,0c0.2,0,0.5,0,0.7,0.1
		c0.4,0.2,0.7,0.5,0.7,1c0.1,1.2,0,2.4,0,3.6c0,0.1,0,1.5,0,1.6c0,0.4-0.2,0.7-0.5,0.8c-0.5,0.2-1-0.2-1-0.7c0-0.8,0-1.5,0-2.3
		c0-0.7,0-1.5,0-2.2c0,0,0-0.1,0-0.1c0-0.1-0.1-0.1-0.1-0.1c-0.1,0-0.1,0.1-0.1,0.1c0,0.1,0,0.1,0,0.2
		C24.5,20.9,24.5,22.8,24.5,24.7z"/>
	<path class="floating-pin__icon" d="M30.3,26.7c0-0.1,0-0.1-0.1-0.1c-0.1,0-0.2-0.1-0.3-0.2c-0.4-0.6-0.9-1.1-1.3-1.7c-0.2-0.2-0.3-0.4-0.5-0.6
		c-0.1-0.1-0.1-0.3,0-0.4c0.1-0.1,0.2-0.2,0.3-0.2c1.2,0,2.4,0,3.5,0c0.2,0,0.3,0,0.4,0.2c0.1,0.2,0,0.3-0.1,0.4
		c-0.3,0.3-0.5,0.7-0.8,1c-0.3,0.3-0.5,0.7-0.8,1c-0.1,0.1-0.2,0.3-0.3,0.4C30.4,26.5,30.3,26.6,30.3,26.7z"/>
	<path class="floating-pin__icon" d="M30.2,21.5c-0.6,0-1.2,0-1.8,0c-0.1,0-0.3,0-0.3-0.2c-0.1-0.2-0.1-0.3,0.1-0.5c0.6-0.8,1.2-1.5,1.8-2.3
		c0.1-0.2,0.3-0.2,0.5,0c0.3,0.4,0.6,0.8,0.9,1.1c0.3,0.4,0.6,0.8,0.9,1.2c0.1,0.1,0.1,0.3,0.1,0.4c-0.1,0.2-0.2,0.2-0.4,0.2
		C31.4,21.5,30.8,21.5,30.2,21.5z"/>
	<path class="floating-pin__icon" d="M24.4,15.3c0,0.8-0.7,1.5-1.5,1.5c-0.8,0-1.5-0.7-1.5-1.5c0-0.9,0.7-1.5,1.5-1.5
		C23.7,13.8,24.4,14.5,24.4,15.3z"/>
</g>
</svg>
