<?xml version="1.0" encoding="utf-8"?>
<!-- Generator: Adobe Illustrator 22.0.1, SVG Export Plug-In . SVG Version: 6.00 Build 0)  -->
<svg version="1.1" id="Layer_1" xmlns="http://www.w3.org/2000/svg" xmlns:xlink="http://www.w3.org/1999/xlink" x="0px" y="0px"
	 viewBox="0 0 51 70.7" style="enable-background:new 0 0 51 70.7;" xml:space="preserve">

<g class="floating-pin__outline">
	<path class="floating-pin__background" d="M46.8,24.3c0-12-9.7-21.7-21.7-21.7S3.4,12.3,3.4,24.3c0,17.1,21.7,42.5,21.7,42.5S46.8,41.3,46.8,24.3
		L46.8,24.3z"/>
</g>
<g>
	<path class="floating-pin__icon" d="M20.2,32.5c-0.4-0.1-0.9-0.1-1.3-0.2c-1.4-0.3-2.7-0.8-3.8-1.6c-1.2-0.9-2-2.2-2.5-3.6
		c-0.4-1.1-0.6-2.3-0.7-3.4c-0.1-1.5,0-2.9,0.3-4.3c0.3-1.3,0.8-2.5,1.6-3.6c1.3-1.7,3-2.8,5.2-3.2c1.7-0.3,3.4-0.2,5.1,0.3
		c2.2,0.7,3.8,2.1,4.9,4.2c0.7,1.3,0.9,2.7,1,4.1c0,0.6,0,1.2,0,1.8c0,0.7-0.3,1-1,1c-3.6,0-7.3,0-10.9,0c-0.3,0-0.5,0-0.8,0
		c-0.1,0-0.2,0.1-0.2,0.2c-0.1,1.6,0.8,3,2.2,3.6c1,0.4,1.9,0.5,3,0.4c0.7,0,1.3-0.2,1.9-0.4c0.5-0.2,0.9-0.5,1.4-0.8
		c0.1-0.1,0.3-0.2,0.4-0.3c0.3-0.1,0.4-0.1,0.6,0.1c0.7,0.7,1.5,1.4,2.3,2.1c0.3,0.3,0.3,0.5,0,0.8c-0.3,0.3-0.6,0.5-1,0.7
		c-1.4,0.9-2.9,1.6-4.6,1.9c-0.3,0.1-0.5,0.1-0.8,0.1C21.7,32.5,21,32.5,20.2,32.5z M21,20.6c1,0,1.9,0,2.9,0c0.3,0,0.5,0,0.8,0
		c0.2,0,0.3,0,0.2-0.2c0-0.2-0.1-0.4-0.1-0.7c-0.2-1-0.6-1.9-1.5-2.5c-0.8-0.6-1.7-0.8-2.7-0.7c-1.3,0.1-2.4,0.7-3,2
		c-0.3,0.6-0.4,1.2-0.5,1.9c0,0.2,0.1,0.2,0.2,0.2C18.5,20.6,19.8,20.6,21,20.6z"/>
	<path style="fill:#DB4600" d="M38.8,22.8c0,2.4-0.7,4.8-2.3,6.9c-0.5,0.7-1.1,1.3-1.8,1.9c-0.4,0.3-0.9,0.3-1.2,0c-0.6-0.5-1.2-1.1-1.8-1.6
		c-0.3-0.3-0.3-0.6,0-0.9c1.4-1.2,2.3-2.8,2.7-4.6c0.5-2.1,0.2-4-0.7-5.9c-0.4-0.9-1-1.6-1.7-2.2c-0.1-0.1-0.2-0.1-0.2-0.2
		c-0.2-0.2-0.2-0.4,0-0.6c0.1-0.1,0.2-0.2,0.3-0.3c0.5-0.5,1-0.9,1.5-1.4c0.5-0.4,1-0.4,1.5,0c2,1.8,3.2,4,3.6,6.7
		C38.8,21.2,38.8,21.9,38.8,22.8z"/>
</g>
</svg>
