<?xml version="1.0" encoding="utf-8"?>
<!-- Generator: Adobe Illustrator 22.0.1, SVG Export Plug-In . SVG Version: 6.00 Build 0)  -->
<svg version="1.1" id="Layer_1" xmlns="http://www.w3.org/2000/svg" xmlns:xlink="http://www.w3.org/1999/xlink" x="0px" y="0px"
	 viewBox="0 0 51 70.7" style="enable-background:new 0 0 51 70.7;" xml:space="preserve">
<g class="floating-pin__outline">
	<path class="floating-pin__background" d="M47,24.3c0-12-9.7-21.7-21.7-21.7c-12,0-21.7,9.7-21.7,21.7c0,17.1,21.7,42.5,21.7,42.5S47,41.3,47,24.3
		L47,24.3z M14.6,23"/>
</g>
<g id="jsXH56.tif_1_">
	<g>
		<path class="floating-pin__icon" d="M13.3,23.4c0.9-1.4,2.1-2.4,4-2.3c0.8,0,1.5,0.4,2.1,0.8c0.4,0.3,0.3,0.5-0.1,0.6c-0.9,0.3-1.6,0.8-2.3,1.5
			c-1,1-1,2.2,0,3.3c0.8,0.8,1.7,1.3,2.8,1.7c0.2,0.1,0.5,0.1,0.7,0.4c-0.8,0.4-1.6,0.4-2.5,0.5c-1.9,0.2-3.7-0.1-5.5-0.8
			c-0.2-0.1-0.3-0.2-0.5-0.3C12,28.2,12.6,24.4,13.3,23.4z"/>
		<path class="floating-pin__icon" d="M38.4,28.9c-1,0.5-2.1,0.8-3.2,0.9C33.6,30,32,30,30.4,29.6c-0.1,0-0.2-0.1-0.4-0.2c0.1-0.3,0.5-0.3,0.7-0.4
			c0.9-0.3,1.7-0.7,2.4-1.3c1.4-1.2,1.4-2.8,0.1-4c-0.6-0.5-1.3-0.9-2-1.2c-0.6-0.2-0.4-0.4-0.1-0.7c1.6-1.3,3.8-1,5.3,0.6
			c0.9,1,1.4,2.2,1.8,3.4C38.3,26.1,38.4,28.2,38.4,28.9z"/>
		<path class="floating-pin__icon" d="M25.8,8.9c1.1,0.4,1.9,1,2.2,2.2c0.4,1.5-0.5,3-1.9,3.4c-1.4,0.4-2.9-0.3-3.4-1.7c-0.5-1.4,0.1-2.9,1.5-3.5
			c0.2-0.1,0.4-0.2,0.6-0.3C25,8.9,25.4,8.9,25.8,8.9z"/>
		<path class="floating-pin__icon" d="M25.4,28.9c-2.4,0-4.5-0.3-6.4-1.2c-0.5-0.2-0.9-0.5-1.3-0.9c-0.7-0.8-0.7-1.6,0-2.3c0.7-0.6,1.5-1,2.3-1.3
			c3.4-1.1,6.9-1.1,10.3,0c0.7,0.2,1.4,0.6,2,1c1.2,0.9,1.2,2,0,2.9c-0.9,0.7-2,1.1-3.1,1.4c-0.5,0.1-0.9,0.2-1.4,0.3
			C27,28.9,26.1,29,25.4,28.9z"/>
		<path class="floating-pin__icon" d="M25.2,15.5c1.5,0,2.6,0.9,3.5,2c0.9,1.2,1.3,2.6,1.5,4c0.1,0.5-0.1,0.6-0.5,0.4c-2-0.5-4-0.5-6-0.5
			c-1,0-2,0.2-2.9,0.5c-0.4,0.1-0.6,0-0.5-0.4c0.3-1.9,0.9-3.7,2.4-5.1C23.4,15.9,24.2,15.5,25.2,15.5z"/>
		<path class="floating-pin__icon" d="M33.5,14.4c1.6,0,2.8,1.3,2.8,2.8c0,1.5-1.3,2.8-2.8,2.8c-1.6,0-2.8-1.3-2.8-2.8
			C30.7,15.6,31.9,14.4,33.5,14.4z"/>
		<path class="floating-pin__icon" d="M16.9,14.4c1.6,0,2.8,1.2,2.8,2.8c0,1.6-1.2,2.8-2.8,2.8c-1.5,0-2.8-1.3-2.8-2.8
			C14.1,15.7,15.3,14.4,16.9,14.4z"/>
	</g>
</g>
</svg>
