<?xml version="1.0" encoding="utf-8"?>
<!-- Generator: Adobe Illustrator 22.0.1, SVG Export Plug-In . SVG Version: 6.00 Build 0)  -->
<svg version="1.1" id="Layer_1" xmlns="http://www.w3.org/2000/svg" xmlns:xlink="http://www.w3.org/1999/xlink" x="0px" y="0px"
	 viewBox="0 0 824 223" style="enable-background:new 0 0 824 223;" xml:space="preserve">
<style type="text/css">
	.st0{fill:#FFFFFF;}
	.st1{fill:#FF2200;}
</style>
<g>
	<path class="st0" d="M10.6,100.4c1.7-11.4,3.7-22.6,8.3-33.3c11.8-27.7,32.9-43.2,62.4-47.8c18.7-2.9,37-1,54.2,7
		c28.2,13.1,41.3,36.9,45.4,66.6c1.2,8.4,1.2,16.9,1,25.4c-0.1,7.3-2.9,10.2-10.2,10.9c-2,0.2-4,0.1-6,0.1c-32.7,0-65.3,0-98,0
		c-6.9,0-7.4,0.5-6.9,7.4c0.9,14.4,12.4,27,28.4,30.1c16.9,3.2,33.2,1.8,47.6-9.1c1.9-1.4,3.8-2.7,5.8-3.9c2.6-1.6,5-1.4,7.3,0.7
		c6.6,6.1,13.3,12.1,19.8,18.4c4.7,4.5,4.4,7.5-0.9,11.4c-16.4,12.3-34.5,20.7-54.8,24.1c-1.1,0.2-2.2,0.5-3.4,0.8
		c-7.3,0-14.7,0-22,0c-3.3-0.6-6.5-1.2-9.8-1.7c-32.2-5.5-53.9-23.1-63.4-54.8c-2.4-8-3.4-16.3-4.8-24.5
		C10.6,119,10.6,109.7,10.6,100.4z M95.8,95.3c10.5,0,21,0,31.5,0c2,0,4.7,0.6,4.3-3c-1-10.1-4-19.3-12.2-25.9
		c-11.5-9.1-24.4-10.2-37.7-5.2C68.8,66,63,76.4,60.7,89.4c-0.9,5,0.5,6.1,5.1,6C75.8,95.2,85.8,95.3,95.8,95.3z"/>
	<path class="st1" d="M264.9,115.1c-0.6,30.6-9.9,57.8-32.2,79.8c-0.7,0.7-1.4,1.4-2.2,2.1c-8.7,7.6-12,7.6-20.4-0.1
		c-3.9-3.6-7.9-7.1-11.8-10.8c-4.3-4.2-4.3-7.2,0.1-11.4c18.7-18.1,27.6-40.1,25.8-66.1c-1.4-19.8-8.8-37.1-23.7-50.7
		c-5.3-4.9-5.6-7.8-0.4-12.8c4.3-4.2,8.8-8.2,13.3-12c6.1-5.2,10.6-5,16.8,0.5c17.7,16,28.2,36,32.5,59.3
		C264.2,100.1,265.3,107.6,264.9,115.1z"/>
	<path class="st0" d="M395.9,152.9c0,10.6,0,20,0,29.5c0,6.6-0.6,7.2-7.1,7.2c-3.3,0-6.7-0.1-10,0c-4.1,0.1-5.6-1.7-5.6-5.8
		c0.1-14.2,0-28.3,0-42.5c0-20.8,0-41.7,0-62.5c0-6.4,0.4-6.7,6.9-6.8c2.8,0,5.7,0.1,8.5,0c4.2-0.2,8,0,7.2,7c8-8.6,16.8-10,26.4-7
		c10.3,3.2,16.8,10.7,20.1,20.7c5.3,15.8,5.3,31.8-0.7,47.5c-5.4,14.1-18.4,21.6-32.9,19.5C404.1,159,400.4,156.6,395.9,152.9z
		 M422.3,115c-0.3-5.1-0.8-10.5-3.2-15.3c-2.1-4.3-5.3-7.2-10.5-7.1c-5,0.1-8.2,2.9-9.9,7.1c-4.1,10.3-4,20.8-0.1,31.1
		c1.6,4.3,4.8,7.1,9.8,7.2c5.1,0.1,8.4-2.6,10.6-6.9C421.5,126.1,422,120.6,422.3,115z"/>
	<path class="st0" d="M500.4,151.9c-8.5,8.2-17.7,8.8-27.2,7.5c-10.9-1.4-18.1-8.7-19.8-18.9c-2.1-12.8,2.3-23.8,11.7-29.1
		c4.7-2.6,9.8-4.2,15.2-4.3c4.8-0.1,9.7,0,14.5-0.1c5.4,0,6.1-0.9,5.4-6.1c-0.5-4.1-2.6-7.1-6.5-7.9c-5.1-1-10.8-1.8-14.1,3.3
		c-2.6,4-5.4,4.7-9.6,3.7c-3.2-0.8-6.6-0.9-9.9-1.3c-5-0.7-6-2-4.6-7c1.7-6.6,5.7-11.7,11.6-15.1c12.8-7.5,26.3-7.9,39.7-1.9
		c10.8,4.9,16.5,13.8,16.7,25.7c0.3,17.3,0,34.6,0.1,51.9c0,4.6-1.7,6.9-6.5,6.5c-3.1-0.2-6.3-0.2-9.5,0
		C503.5,158.9,500.3,158.1,500.4,151.9z M491.5,122.4c-3.8,0.1-7.7-0.3-11.2,1.9c-3.1,1.9-4.6,4.7-4.5,8.3c0.1,3.5,1.8,6,4.9,7.5
		c6,2.9,15.2-0.2,18.3-6c3.9-7.2,1.4-11.6-6.6-11.6C492.2,122.4,491.8,122.4,491.5,122.4z"/>
	<path class="st0" d="M692.4,159.7c-16.6,0-29.1-9.2-34.1-25.4c-3.7-11.9-3.8-23.9-0.8-36c4.3-17.1,17.5-27.4,35.1-27.9
		c16.2-0.4,29.7,9.8,34.4,26.5c3.8,13.1,3.5,26.3-1.1,39.2C720.5,151.4,708.4,159.7,692.4,159.7z M678.6,115.3c0.1,4.8,0,9.6,2,14.2
		c2.2,5.1,5.7,8.5,11.6,8.7c6,0.2,9.9-3.1,11.8-8.3c3.6-9.8,3.7-19.9,0-29.7c-2-5.3-6-8.1-12-7.9c-5.8,0.2-9.1,3.4-11.3,8.2
		C678.5,105.3,678.7,110.3,678.6,115.3z"/>
	<path class="st0" d="M349,100.7c-2,0-4-0.1-6,0c-2.6,0.1-4.2-0.8-4.5-3.5c-1.1-7.9-16.3-8.4-20.3-3.8c-2.3,2.7-1.9,6.2,1.2,8.1
		c3,1.8,6.5,2.5,9.9,3.4c7.3,1.9,14.3,4.4,20.9,8c16.6,9.2,13.3,33.2,0.4,41c-14.8,9-39.2,7.3-50.4-4c-4-4-5.9-8.8-6.4-14.3
		c-0.4-3.6,1-5.8,5-5.7c3,0.1,6,0.1,9,0c4.2-0.2,7.2,0.1,8.9,5.4c2.1,6.6,16,7.6,20.4,2.1c2.5-3.1,1.5-6.6-2.8-8.2
		c-6.2-2.4-12.6-4.3-18.8-6.6c-2.5-0.9-4.9-2.2-7.3-3.3c-20.4-9.5-15.6-35-2-43.3c12.1-7.4,33.3-6.9,44.4,2.1c5,4,8.1,9.3,9.1,15.6
		c1,5.7-0.1,6.9-5.7,7C352.3,100.8,350.6,100.7,349,100.7z"/>
	<path class="st0" d="M794.8,100.7c-1.8,0-3.7-0.1-5.5,0c-2.8,0.1-4.6-0.4-5.4-3.7c-0.9-4-4.2-5.9-8.2-6.3
		c-4.5-0.5-9.1-0.6-12.5,3.2c-2.4,2.7-1.6,6.1,2,7.8c3.1,1.5,6.6,2.4,9.9,3.4c7,2.1,13.9,4.4,20.5,7.8c15.4,8,14.3,31.7,1.5,40.5
		c-13.3,9.1-37.6,8.5-49.8-1.8c-5-4.2-7.4-9.7-7.9-16.1c-0.2-3.4,1.2-5.4,4.9-5.3c2.7,0.1,5.3,0.1,8,0c4.7-0.3,8.1,0,10.3,5.7
		c2.5,6.5,15.6,7.1,20.1,1.7c2.5-3,2-6-1.6-7.7c-2.8-1.4-5.9-2.2-8.9-3.1c-6.8-2.1-13.4-4.8-19.8-8.1c-17.8-9.2-14-33.5-1.4-41.8
		c11.9-7.9,32.5-8,44.1,0.4c5.6,4.1,9.1,9.6,10.4,16.5c1.1,5.9,0.1,7.1-6,7.1C797.8,100.7,796.3,100.7,794.8,100.7z"/>
	<path class="st0" d="M568.9,159.7c-13.6,0-26.5-9.5-31-24.1c-4.4-14.1-4.5-28.6,0.5-42.6c4.9-14,18.8-23,33.9-22.5
		c16.1,0.5,29.2,10,33.7,24.4c2,6.5,1.1,8-5.3,9.3c-2,0.4-3.9,0.6-5.9,1c-7.9,1.5-7.9,1.5-11.5-5.9c-2.3-4.7-6.1-6.7-11.3-6.9
		c-5.2-0.2-9.5,1.6-11.4,6.4c-4.4,10.8-4.2,21.8-0.1,32.6c1.8,4.7,5.9,6.9,11.2,6.9c5.5,0,9.6-2.6,11.3-7.4c1.8-5,4.6-6.4,9.5-4.9
		c2.2,0.7,4.6,0.8,6.9,1.1c7.3,1.1,8.3,2.6,6.2,9.5c-4.1,13.1-16.4,22.5-30.2,23C573.2,159.8,571.1,159.7,568.9,159.7z"/>
	<path class="st0" d="M641.9,115.4c0,12.3-0.1,24.7,0.1,37c0.1,4.4-1.5,6.5-6.1,6.3c-3.5-0.2-7-0.2-10.5,0c-4.5,0.2-6.2-1.7-6.2-6.2
		c0.1-17.8,0-35.6,0-53.5c0-7.2,0.1-14.3,0-21.5c0-3.7,1.4-5.6,5.3-5.4c3.8,0.1,7.7,0.2,11.5,0c4.3-0.2,5.9,1.6,5.9,5.9
		C641.8,90.5,641.9,102.9,641.9,115.4z"/>
	<path class="st0" d="M617.2,50.6c0-9,5.1-14.5,13.5-14.5c8.3,0,13.8,5.9,13.7,14.5c-0.1,8.7-5.6,14.6-13.7,14.6
		C622.6,65.3,617.2,59.5,617.2,50.6z"/>
</g>
</svg>
