<?xml version="1.0" encoding="utf-8"?>
<!-- Generator: Adobe Illustrator 22.0.1, SVG Export Plug-In . SVG Version: 6.00 Build 0)  -->
<svg version="1.1" id="Layer_1" xmlns="http://www.w3.org/2000/svg" xmlns:xlink="http://www.w3.org/1999/xlink" x="0px" y="0px"
	 viewBox="0 0 180.1 290.1" style="enable-background:new 0 0 180.1 290.1;" xml:space="preserve">
<g>
	<g class="floating-pin__outline">
		<g>
			<path class="floating-pin__background" d="M91.1,279c-0.3,0-0.7,0-1,0c-0.9-1.4-1.8-2.8-2.8-4.1C69,248.4,51.6,221.4,36.4,193
				c-12.8-23.7-25-47.7-29.6-74.7c0-8.4,0-16.8,0-25.1c0.9-5.3,1.6-10.7,3-15.9c7.9-27.6,23.9-48.5,50.5-60.4
				c7-3.1,14.4-4.7,21.9-5.9c5.6,0,11.2,0,16.8,0c6,1,12,2.1,17.7,4.3c25.8,9.8,42.4,28.4,52,53.8c2.9,7.8,4.4,15.9,5.6,24.1
				c0,8.4,0,16.8,0,25.1c-2,12.7-6.1,24.8-11.1,36.7c-11.7,27.6-26.6,53.4-42.4,78.9C111.4,249.2,101.3,264.1,91.1,279z M90.6,128
				c18.1,0,33.4-15.1,33.2-33.2c-0.2-18.5-14.2-33.1-33.1-33.2C72,61.5,57.6,76,57.4,94.8C57.2,113,72.5,128,90.6,128z"/>
		</g>
	</g>
	<circle id="circle" class="floating-pin__circle" cx="90.6" cy="90.4" r="62.1"/>
	<path id="symbol" class="floating-pin__symbol" d="M91.9,115.4c-9.4,0-18.9,0-28.3,0c-3.1,0-3.4-0.3-3-3.4c1.2-10.6,6.6-18.7,15.6-24.3c1.3-0.8,2.5-0.9,4,0.1
		c7.4,5.1,16.4,5.1,23.8,0c1.2-0.8,2.4-0.9,3.6-0.2c9.6,5.6,14.9,14,16.1,25c0.2,2.1-0.6,2.8-2.7,2.8
		C111.2,115.3,101.5,115.4,91.9,115.4z"/>
	<path class="floating-pin__symbol" d="M109.1,70.5c0,9.5-7.5,17.3-16.8,17.3c-9.6,0-17.5-7.7-17.6-17.2c-0.1-9.3,7.9-17.3,17.2-17.3
		C101.5,53.3,109.1,61,109.1,70.5z"/>
</g>
</svg>
