<?xml version="1.0" encoding="utf-8"?>
<!-- Generator: Adobe Illustrator 22.0.1, SVG Export Plug-In . SVG Version: 6.00 Build 0)  -->
<svg version="1.1" id="Layer_1" xmlns="http://www.w3.org/2000/svg" xmlns:xlink="http://www.w3.org/1999/xlink" x="0px" y="0px"
	 viewBox="0 0 180.1 290.1" style="enable-background:new 0 0 180.1 290.1;" xml:space="preserve">
<g>
	<g class="floating-pin__outline">
		<g>
			<path class="floating-pin__background" d="M91.1,279c-0.3,0-0.7,0-1,0c-0.9-1.4-1.8-2.8-2.8-4.1C69,248.4,51.6,221.4,36.4,193
				c-12.8-23.7-25-47.7-29.6-74.7c0-8.4,0-16.8,0-25.1c0.9-5.3,1.6-10.7,3-15.9c7.9-27.6,23.9-48.5,50.5-60.4
				c7-3.1,14.4-4.7,21.9-5.9c5.6,0,11.2,0,16.8,0c6,1,12,2.1,17.7,4.3c25.8,9.8,42.4,28.4,52,53.8c2.9,7.8,4.4,15.9,5.6,24.1
				c0,8.4,0,16.8,0,25.1c-2,12.7-6.1,24.8-11.1,36.7c-11.7,27.6-26.6,53.4-42.4,78.9C111.4,249.2,101.3,264.1,91.1,279z M90.6,128
				c18.1,0,33.4-15.1,33.2-33.2c-0.2-18.5-14.2-33.1-33.1-33.2C72,61.5,57.6,76,57.4,94.8C57.2,113,72.5,128,90.6,128z"/>
		</g>
	</g>
	<circle class="floating-pin__circle" cx="90.6" cy="90.4" r="62.1"/>
</g>
<text transform="matrix(1 0 0 1 45.9985 112.2448)" class="floating-pin__symbol">WC</text>
</svg>
