<?xml version="1.0" encoding="utf-8"?>
<!-- Generator: Adobe Illustrator 22.0.1, SVG Export Plug-In . SVG Version: 6.00 Build 0)  -->
<svg version="1.1" id="Layer_1" xmlns="http://www.w3.org/2000/svg" xmlns:xlink="http://www.w3.org/1999/xlink" x="0px" y="0px"
	 viewBox="0 0 180.1 290.1" style="enable-background:new 0 0 180.1 290.1;" xml:space="preserve">
<g>
	<g class="floating-pin__outline">
		<g>
			<path class="floating-pin__background" d="M91.1,279c-0.3,0-0.7,0-1,0c-0.9-1.4-1.8-2.8-2.8-4.1C69,248.4,51.6,221.4,36.4,193
				c-12.8-23.7-25-47.7-29.6-74.7c0-8.4,0-16.8,0-25.1c0.9-5.3,1.6-10.7,3-15.9c7.9-27.6,23.9-48.5,50.5-60.4
				c7-3.1,14.4-4.7,21.9-5.9c5.6,0,11.2,0,16.8,0c6,1,12,2.1,17.7,4.3c25.8,9.8,42.4,28.4,52,53.8c2.9,7.8,4.4,15.9,5.6,24.1
				c0,8.4,0,16.8,0,25.1c-2,12.7-6.1,24.8-11.1,36.7c-11.7,27.6-26.6,53.4-42.4,78.9C111.4,249.2,101.3,264.1,91.1,279z M90.6,128
				c18.1,0,33.4-15.1,33.2-33.2c-0.2-18.5-14.2-33.1-33.1-33.2C72,61.5,57.6,76,57.4,94.8C57.2,113,72.5,128,90.6,128z"/>
		</g>
	</g>
	<circle class="floating-pin__circle" cx="90.6" cy="90.4" r="62.1"/>
</g>
<g id="NCZnaX.tif">
	<g>
		<path class="floating-pin__symbol" d="M46.5,106.7c1-4.1,2-8.1,4.4-11.6c3.2-4.9,7.3-8.4,13.7-8c2.7,0.1,5.1,1.2,7.2,2.9c1.3,1,1.1,1.6-0.3,2.3
			c-3,1.2-5.7,2.8-7.9,5.2c-3.3,3.5-3.4,7.7-0.1,11.4c2.6,2.9,6,4.5,9.6,5.9c0.9,0.3,1.8,0.3,2.6,1.4c-2.8,1.3-5.7,1.5-8.5,1.7
			c-6.5,0.6-12.8-0.3-18.8-2.7c-0.5-0.2-1.1-0.6-1.6-1C46.5,111.7,46.5,109.2,46.5,106.7z"/>
		<path class="floating-pin__symbol" d="M137.4,114.1c-3.4,1.8-7.2,2.7-11.1,3.1c-5.6,0.6-11.1,0.5-16.6-0.9c-0.4-0.1-0.9-0.3-1.3-0.5
			c0.5-1.2,1.6-1.1,2.4-1.4c3-1.1,5.8-2.5,8.3-4.5c4.8-4,4.9-9.6,0.4-13.8c-2-1.8-4.3-3.2-6.9-4.2c-1.9-0.8-1.5-1.4-0.2-2.5
			c5.4-4.4,13-3.4,18.1,2.2c3,3.4,4.9,7.4,6.1,11.8c0.3,1.1,0.5,2,0.9,3.1C137.4,109.2,137.4,111.7,137.4,114.1z"/>
		<path class="floating-pin__symbol" d="M93.8,45.4c3.8,1.3,6.6,3.3,7.5,7.4c1.2,5.1-1.7,10.1-6.7,11.6c-4.8,1.4-10-1.2-11.8-5.9
			c-1.8-4.7,0.4-10.1,5.1-12.2c0.8-0.3,1.4-0.5,2.2-0.9C91.4,45.4,92.5,45.4,93.8,45.4z"/>
		<path class="floating-pin__symbol" d="M92.6,114.2c-8.2,0.1-15.4-1-22.2-4.2c-1.6-0.8-3.1-1.7-4.4-3c-2.5-2.6-2.5-5.4,0.1-8c2.3-2.3,5.1-3.5,8-4.5
			c11.7-3.8,23.6-3.8,35.4,0c2.5,0.8,4.7,1.9,6.8,3.4c4.2,3.2,4.3,6.9,0.1,10.1c-3.2,2.5-6.9,3.8-10.8,4.7c-1.6,0.4-3.2,0.6-4.7,1
			C98,114.2,95,114.3,92.6,114.2z"/>
		<path class="floating-pin__symbol" d="M92.1,68c5.2,0.1,8.9,2.9,11.9,7c3,4.1,4.4,8.8,5.2,13.8c0.2,1.6-0.4,1.9-1.8,1.5c-6.8-1.8-13.6-1.8-20.5-1.6
			c-3.4,0.1-6.8,0.8-10,1.6c-1.3,0.3-2,0.1-1.8-1.4c1-6.7,3.1-12.8,8.3-17.4C85.7,69.3,88.6,68.1,92.1,68z"/>
		<path class="floating-pin__symbol" d="M120.5,64.2c5.5,0,9.7,4.3,9.7,9.8c-0.1,5.2-4.5,9.6-9.7,9.6c-5.4,0-9.8-4.4-9.8-9.8
			C110.7,68.4,114.9,64.2,120.5,64.2z"/>
		<path class="floating-pin__symbol" d="M63.4,64.2c5.5,0,9.8,4.1,9.8,9.6c0,5.5-4.3,9.8-9.7,9.8c-5.2,0-9.7-4.4-9.7-9.6C53.7,68.6,58,64.3,63.4,64.2
			z"/>
	</g>
</g>
</svg>
