<?xml version="1.0" encoding="utf-8"?>
<!-- Generator: Adobe Illustrator 22.0.1, SVG Export Plug-In . SVG Version: 6.00 Build 0)  -->
<svg version="1.1" id="Layer_1" xmlns="http://www.w3.org/2000/svg" xmlns:xlink="http://www.w3.org/1999/xlink" x="0px" y="0px"
	 viewBox="0 0 180.1 290.1" style="enable-background:new 0 0 180.1 290.1;" xml:space="preserve">
<g>
	<g class="floating-pin__outline">
		<g>
			<path class="floating-pin__background" d="M91.1,279c-0.3,0-0.7,0-1,0c-0.9-1.4-1.8-2.8-2.8-4.1C69,248.4,51.6,221.4,36.4,193
				c-12.8-23.7-25-47.7-29.6-74.7c0-8.4,0-16.8,0-25.1c0.9-5.3,1.6-10.7,3-15.9c7.9-27.6,23.9-48.5,50.5-60.4
				c7-3.1,14.4-4.7,21.9-5.9c5.6,0,11.2,0,16.8,0c6,1,12,2.1,17.7,4.3c25.8,9.8,42.4,28.4,52,53.8c2.9,7.8,4.4,15.9,5.6,24.1
				c0,8.4,0,16.8,0,25.1c-2,12.7-6.1,24.8-11.1,36.7c-11.7,27.6-26.6,53.4-42.4,78.9C111.4,249.2,101.3,264.1,91.1,279z M90.6,128
				c18.1,0,33.4-15.1,33.2-33.2c-0.2-18.5-14.2-33.1-33.1-33.2C72,61.5,57.6,76,57.4,94.8C57.2,113,72.5,128,90.6,128z"/>
		</g>
	</g>
	<circle class="floating-pin__circle" cx="90.6" cy="90.4" r="62.1"/>
</g>
<g>
	<g>
		<g>
			<circle class="floating-pin__symbol" cx="91.5" cy="56.4" r="10.7"/>
		</g>
	</g>
	<g>
		<g>
			<path class="floating-pin__symbol" d="M66.6,105c-2.8-1.1-5.9,0.3-6.9,3.1c-1.1,2.8,0.3,5.9,3.1,6.9l5.8,2.1l15.2-5.7L66.6,105z"/>
		</g>
	</g>
	<g>
		<g>
			<path class="floating-pin__symbol" d="M123.3,108.1c-1.1-2.8-4.2-4.2-6.9-3.1L73.6,121c-2.8,1.1-4.2,4.2-3.1,6.9c1.1,2.7,4.1,4.2,6.9,3.1
				l42.8-16.1C123,113.9,124.3,110.9,123.3,108.1z"/>
		</g>
	</g>
	<g>
		<g>
			<path class="floating-pin__symbol" d="M128.9,88.5h-12.7L107,70.1c-1-1.9-2.9-3-4.9-3H91.5H80.9c-2,0-4,1.1-4.9,3l-9.2,18.4H54
				c-3,0-5.4,2.4-5.4,5.4s2.4,5.4,5.4,5.4h16.1c2,0,3.9-1.2,4.8-3l5.9-11.9v20.1l10.7,4l10.7-4.1V84.4l5.9,11.9c0.9,1.8,2.8,3,4.8,3
				h16.1c3,0,5.4-2.4,5.4-5.4S131.9,88.5,128.9,88.5z"/>
		</g>
	</g>
</g>
</svg>
