<?xml version="1.0" encoding="utf-8"?>
<!-- Generator: Adobe Illustrator 22.0.1, SVG Export Plug-In . SVG Version: 6.00 Build 0)  -->
<svg version="1.1" id="Layer_1" xmlns="http://www.w3.org/2000/svg" xmlns:xlink="http://www.w3.org/1999/xlink" x="0px" y="0px"
	 viewBox="0 0 24.2 22.1" style="enable-background:new 0 0 24.2 22.1;" xml:space="preserve">

<g id="_x38_4NeH4.tif">
	<g>
		<path class="floating-pin__background" d="M21.6,15.1c0,0.3-0.1,0.5-0.4,0.6c-0.2,0.1-0.5,0.1-0.7,0c-0.1-0.1-0.3-0.2-0.4-0.3c-2.6-2.6-5.2-5.2-7.8-7.8
			c-0.3-0.3-0.4-0.3-0.7,0c-2.5,2.6-5.1,5.1-7.6,7.6c-0.1,0.1-0.2,0.2-0.3,0.3c-0.4,0.4-0.8,0.4-1.1,0.1c-0.3-0.3-0.3-0.7,0.1-1.1
			c0.6-0.6,1.3-1.3,1.9-1.9c2.2-2.2,4.4-4.4,6.6-6.6c0.6-0.6,0.9-0.6,1.5,0c2.8,2.8,5.6,5.6,8.4,8.4C21.4,14.6,21.6,14.8,21.6,15.1z
			"/>
	</g>
</g>
</svg>
