<svg width="24" height="24" viewBox="0 0 24 24" fill="none" xmlns="http://www.w3.org/2000/svg">
<path d="M24 12C24 18.6274 18.6274 24 12 24C5.37258 24 0 18.6274 0 12C0 5.37258 5.37258 0 12 0C18.6274 0 24 5.37258 24 12Z" fill="#FF3D00"/>
<path d="M11.4812 6.73035C11.5652 6.69869 11.644 6.68286 11.7175 6.68286H13.2302C13.2827 6.68286 13.3248 6.70397 13.3563 6.74618C13.3983 6.77784 13.4193 6.82005 13.4193 6.87281V17.5733C13.4193 17.6261 13.3983 17.6736 13.3563 17.7158C13.3248 17.7474 13.2827 17.7633 13.2302 17.7633H11.7806C11.728 17.7633 11.6808 17.7474 11.6387 17.7158C11.6072 17.6736 11.5915 17.6261 11.5915 17.5733V8.58236C11.5915 8.56126 11.581 8.54543 11.56 8.53487C11.5389 8.51377 11.5179 8.50849 11.4969 8.51904L9.92119 9.00975C9.90018 9.0203 9.87392 9.02558 9.84241 9.02558C9.80039 9.02558 9.76362 9.00975 9.73211 8.97809C9.7111 8.94643 9.70059 8.90422 9.70059 8.85146L9.65332 7.80673C9.65332 7.7012 9.69534 7.62733 9.77938 7.58512L11.4812 6.73035Z" fill="white"/>
</svg>
