<svg width="24" height="24" viewBox="0 0 24 24" fill="none" xmlns="http://www.w3.org/2000/svg">
<path d="M24 12C24 18.6274 18.6274 24 12 24C5.37258 24 0 18.6274 0 12C0 5.37258 5.37258 0 12 0C18.6274 0 24 5.37258 24 12Z" fill="#FF3D00"/>
<path d="M10.6216 16.0858C10.6009 16.1069 10.5906 16.128 10.5906 16.1491C10.6009 16.1702 10.6216 16.1808 10.6527 16.1808H15.0785C15.1303 16.1808 15.1717 16.2019 15.2028 16.2441C15.2442 16.2757 15.2649 16.318 15.2649 16.3707V17.5737C15.2649 17.6265 15.2442 17.674 15.2028 17.7162C15.1717 17.7479 15.1303 17.7637 15.0785 17.7637H8.40091C8.34914 17.7637 8.30256 17.7479 8.26114 17.7162C8.23009 17.674 8.21456 17.6265 8.21456 17.5737V16.434C8.21456 16.3391 8.24562 16.2599 8.30773 16.1966C9.09455 15.3418 10.0056 14.2918 11.0409 13.0466L11.7708 12.176C12.7233 11.0468 13.1995 10.1921 13.1995 9.61167C13.1995 9.179 13.0494 8.82549 12.7491 8.55111C12.4489 8.27674 12.0607 8.13956 11.5844 8.13956C11.1082 8.13956 10.72 8.27674 10.4197 8.55111C10.1298 8.82549 9.9849 9.18956 9.9849 9.64333V10.0549C9.9849 10.1076 9.9642 10.1551 9.92279 10.1973C9.89173 10.229 9.85032 10.2448 9.79855 10.2448H8.35432C8.30256 10.2448 8.25597 10.229 8.21456 10.1973C8.1835 10.1551 8.16797 10.1076 8.16797 10.0549V9.37423C8.18867 8.80438 8.34914 8.3084 8.64938 7.88629C8.94961 7.46418 9.35338 7.13704 9.86067 6.90488C10.3783 6.67272 10.9529 6.55664 11.5844 6.55664C12.2781 6.55664 12.8837 6.68855 13.4014 6.95237C13.919 7.21619 14.3176 7.58026 14.5971 8.04458C14.8767 8.49835 15.0164 9.01016 15.0164 9.58001C15.0164 10.4453 14.5661 11.4426 13.6654 12.5717C13.1684 13.2049 12.3505 14.1546 11.2117 15.421L10.6216 16.0858Z" fill="white"/>
</svg>
