<svg width="24" height="24" viewBox="0 0 24 24" fill="none" xmlns="http://www.w3.org/2000/svg">
<path d="M24 12C24 18.6274 18.6274 24 12 24C5.37258 24 0 18.6274 0 12C0 5.37258 5.37258 0 12 0C18.6274 0 24 5.37258 24 12Z" fill="#FF3D00"/>
<path d="M14.7332 12.4922C14.9402 12.9987 15.0438 13.5791 15.0438 14.2334C15.0438 14.8243 14.9558 15.3467 14.7798 15.8005C14.5416 16.4653 14.1482 16.9824 13.5995 17.3517C13.0508 17.7105 12.3882 17.8899 11.6118 17.8899C10.8457 17.8899 10.1779 17.6947 9.60849 17.3042C9.04943 16.9032 8.65084 16.365 8.41272 15.6897C8.28849 15.3625 8.21602 14.9351 8.19531 14.4075C8.19531 14.2809 8.25743 14.2175 8.38166 14.2175H9.8259C9.95013 14.2175 10.0122 14.2809 10.0122 14.4075C10.033 14.7452 10.0847 15.0143 10.1675 15.2148C10.2607 15.5525 10.4315 15.8216 10.68 16.0221C10.9388 16.212 11.2494 16.307 11.6118 16.307C12.2951 16.307 12.7661 15.9904 13.0249 15.3572C13.1595 15.0512 13.2268 14.6555 13.2268 14.1701C13.2268 13.6319 13.1492 13.1886 12.9939 12.8404C12.7247 12.2495 12.2588 11.954 11.5962 11.954C11.4202 11.954 11.1821 12.0595 10.8819 12.2706C10.8405 12.2917 10.8042 12.3022 10.7732 12.3022C10.7214 12.3022 10.6697 12.2706 10.6179 12.2072L9.90354 11.1942C9.87248 11.1414 9.85696 11.0992 9.85696 11.0675C9.85696 11.0148 9.87766 10.9673 9.91907 10.9251L12.4814 8.36075C12.5021 8.33965 12.5073 8.31854 12.4969 8.29744C12.4866 8.27633 12.4659 8.26578 12.4348 8.26578H8.55249C8.50072 8.26578 8.45414 8.24995 8.41272 8.21829C8.38166 8.17608 8.36614 8.12859 8.36614 8.07583V6.87281C8.36614 6.82005 8.38166 6.77784 8.41272 6.74618C8.45414 6.70397 8.50072 6.68286 8.55249 6.68286H14.7487C14.8005 6.68286 14.8419 6.70397 14.8729 6.74618C14.9144 6.77784 14.9351 6.82005 14.9351 6.87281V8.24995C14.9351 8.34492 14.904 8.42407 14.8419 8.48739L12.6212 10.7668C12.5798 10.809 12.6005 10.8407 12.6833 10.8618C13.6461 10.9989 14.3294 11.5424 14.7332 12.4922Z" fill="white"/>
</svg>
