<svg width="24" height="24" viewBox="0 0 24 24" fill="none" xmlns="http://www.w3.org/2000/svg">
<path d="M24 12C24 18.6274 18.6274 24 12 24C5.37258 24 0 18.6274 0 12C0 5.37258 5.37258 0 12 0C18.6274 0 24 5.37258 24 12Z" fill="#FF3D00"/>
<path d="M15.9015 13.2045C15.9532 13.2045 15.9946 13.2256 16.0257 13.2678C16.0671 13.2995 16.0878 13.3417 16.0878 13.3944V14.6608C16.0878 14.7135 16.0671 14.761 16.0257 14.8032C15.9946 14.8349 15.9532 14.8507 15.9015 14.8507H15.2492C15.1975 14.8507 15.1716 14.8771 15.1716 14.9299V17.5733C15.1716 17.6261 15.1509 17.6736 15.1095 17.7158C15.0784 17.7474 15.037 17.7633 14.9852 17.7633H13.5565C13.5048 17.7633 13.4582 17.7474 13.4168 17.7158C13.3857 17.6736 13.3702 17.6261 13.3702 17.5733V14.9299C13.3702 14.8771 13.3443 14.8507 13.2925 14.8507H8.57161C8.51984 14.8507 8.47325 14.8349 8.43184 14.8032C8.40078 14.761 8.38525 14.7135 8.38525 14.6608V13.6477C8.38525 13.5844 8.40078 13.5052 8.43184 13.4103L11.3669 6.82532C11.4083 6.73035 11.4808 6.68286 11.5843 6.68286H13.1062C13.1787 6.68286 13.2252 6.70397 13.2459 6.74618C13.277 6.77784 13.277 6.8306 13.2459 6.90447L10.4817 13.1095C10.4714 13.1306 10.4714 13.1517 10.4817 13.1728C10.4921 13.1939 10.5076 13.2045 10.5283 13.2045H13.2925C13.3443 13.2045 13.3702 13.1781 13.3702 13.1253V10.9726C13.3702 10.9198 13.3857 10.8776 13.4168 10.8459C13.4582 10.8037 13.5048 10.7826 13.5565 10.7826H14.9852C15.037 10.7826 15.0784 10.8037 15.1095 10.8459C15.1509 10.8776 15.1716 10.9198 15.1716 10.9726V13.1253C15.1716 13.1781 15.1975 13.2045 15.2492 13.2045H15.9015Z" fill="white"/>
</svg>
