<svg width="48" height="48" viewBox="0 0 48 48" fill="none" xmlns="http://www.w3.org/2000/svg">
<path fill-rule="evenodd" clip-rule="evenodd" d="M6.02242 30.0376H3C1.34315 30.0376 0 28.6945 0 27.0376V25.8082C0 23.0497 1.88088 20.6466 4.55862 19.9839L11.9851 18.146C12.091 18.1198 12.1919 18.0765 12.2837 18.0177L20.8939 12.5104C21.3765 12.2017 21.9375 12.0376 22.5104 12.0376H34.3382C36.6122 12.0376 38.8394 12.6837 40.7603 13.9007L42.4221 14.9535C45.8952 17.1538 48 20.979 48 25.0904V28.0376C48 29.1422 47.1046 30.0376 46 30.0376H42.9776C42.725 32.8408 40.369 35.0376 37.5 35.0376C34.631 35.0376 32.275 32.8408 32.0224 30.0376H16.9776C16.725 32.8408 14.369 35.0376 11.5 35.0376C8.63098 35.0376 6.27504 32.8408 6.02242 30.0376ZM21.9716 14.1952C22.1325 14.0923 22.3194 14.0376 22.5104 14.0376H34.3382C36.2332 14.0376 38.0892 14.576 39.69 15.5902L41.3518 16.643C44.246 18.4766 46 21.6643 46 25.0904V28.0376H42.793C42.14 25.7291 40.0176 24.0376 37.5 24.0376C34.9824 24.0376 32.86 25.7291 32.207 28.0376L16.793 28.0376C16.14 25.7291 14.0176 24.0376 11.5 24.0376C8.98245 24.0376 6.85996 25.7291 6.20703 28.0376H3C2.44772 28.0376 2 27.5899 2 27.0376V25.8082C2 23.9692 3.25392 22.3671 5.03908 21.9253L12.4656 20.0874C12.7832 20.0088 13.0858 19.8788 13.3614 19.7025L21.9716 14.1952ZM11.5 33.0376C13.433 33.0376 15 31.4706 15 29.5376C15 27.6046 13.433 26.0376 11.5 26.0376C9.567 26.0376 8 27.6046 8 29.5376C8 31.4706 9.567 33.0376 11.5 33.0376ZM37.5 33.0376C39.433 33.0376 41 31.4706 41 29.5376C41 27.6046 39.433 26.0376 37.5 26.0376C35.567 26.0376 34 27.6046 34 29.5376C34 31.4706 35.567 33.0376 37.5 33.0376Z" fill="#002EFF"/>
</svg>
