<svg width="48" height="48" viewBox="0 0 48 48" fill="none" xmlns="http://www.w3.org/2000/svg">
<path fill-rule="evenodd" clip-rule="evenodd" d="M12.3969 21.1709L15.6931 9H8.03302L9.44724 13.1795C9.62426 13.7026 9.34367 14.2702 8.82052 14.4472C8.29737 14.6243 7.72978 14.3437 7.55276 13.8205L6.13853 9.64104C5.69977 8.34434 6.66409 7 8.03302 7H15.6931C17.0104 7 17.968 8.25136 17.6236 9.52283L16.4787 13.75H32.4153L33.2912 11H31C30.4477 11 30 10.5523 30 10C30 9.44772 30.4477 9 31 9H39C39.5523 9 40 9.44772 40 10C40 10.5523 39.5523 11 39 11H35.3902L34.1869 14.7781L35.8381 21.1308C36.3794 21.0447 36.9345 21 37.5 21C43.299 21 48 25.701 48 31.5C48 37.299 43.299 42 37.5 42C31.701 42 27 37.299 27 31.5C27 29.4261 27.6013 27.4926 28.639 25.8643L15.8882 15.9305L14.321 21.7169C18.2306 23.245 21 27.0491 21 31.5C21 37.299 16.299 42 10.5 42C4.70101 42 0 37.299 0 31.5C0 25.701 4.70101 21 10.5 21C11.1477 21 11.7816 21.0586 12.3969 21.1709ZM37.5 23C37.108 23 36.7221 23.0265 36.3442 23.0779L38.4678 31.2484C38.5756 31.663 38.4073 32.1002 38.0494 32.3356C37.6914 32.5709 37.2234 32.5521 36.8854 32.2889L30.2257 27.1005C29.4478 28.3839 29 29.8897 29 31.5C29 36.1944 32.8056 40 37.5 40C42.1944 40 46 36.1944 46 31.5C46 26.8056 42.1944 23 37.5 23ZM35.7913 28.9011L31.4558 25.5235C32.2858 24.6842 33.2893 24.0169 34.4082 23.5798L35.7913 28.9011ZM33.9021 21.6326C32.3553 22.1968 30.9784 23.1143 29.8692 24.2874L18.9107 15.75H32.373L33.9021 21.6326ZM13.7943 23.6619L11.4652 32.2614C11.3209 32.7945 10.7717 33.1096 10.2386 32.9652C9.70551 32.8209 9.3904 32.2717 9.53477 31.7386L11.8717 23.1101C11.4251 23.0377 10.967 23 10.5 23C5.80558 23 2 26.8056 2 31.5C2 36.1944 5.80558 40 10.5 40C15.1944 40 19 36.1944 19 31.5C19 27.9737 16.8527 24.9489 13.7943 23.6619Z" fill="#002EFF"/>
</svg>
