<svg width="28" height="28" viewBox="0 0 28 28" fill="none" xmlns="http://www.w3.org/2000/svg">
<path fill-rule="evenodd" clip-rule="evenodd" d="M10.5 0C4.70101 0 0 4.70101 0 10.5C0 16.299 4.70101 21 10.5 21C13.0394 21 15.3682 20.0985 17.184 18.5982L26.2929 27.7071C26.6834 28.0976 27.3166 28.0976 27.7071 27.7071C28.0976 27.3166 28.0976 26.6834 27.7071 26.2929L18.5982 17.184C20.0985 15.3682 21 13.0394 21 10.5C21 4.70101 16.299 0 10.5 0ZM2 10.5C2 5.80558 5.80558 2 10.5 2C15.1944 2 19 5.80558 19 10.5C19 15.1944 15.1944 19 10.5 19C5.80558 19 2 15.1944 2 10.5Z" fill="#002EFF"/>
</svg>
