<svg width="24" height="25" viewBox="0 0 24 25" fill="none" xmlns="http://www.w3.org/2000/svg">
<g clip-path="url(#clip0)">
<path fill-rule="evenodd" clip-rule="evenodd" d="M9 0.0933228C4.02944 0.0933228 0 4.12276 0 9.09332C0 14.0639 4.02944 18.0933 9 18.0933C11.159 18.0933 13.1404 17.3331 14.6912 16.0658L22.2562 23.6696C22.6457 24.0611 23.2789 24.0627 23.6704 23.6732C24.0619 23.2837 24.0636 22.6505 23.674 22.259L16.0907 14.6367C17.2869 13.1087 18 11.1843 18 9.09332C18 4.12276 13.9706 0.0933228 9 0.0933228ZM2 9.09332C2 5.22733 5.13401 2.09332 9 2.09332C12.866 2.09332 16 5.22733 16 9.09332C16 12.9593 12.866 16.0933 9 16.0933C5.13401 16.0933 2 12.9593 2 9.09332Z" fill="#002EFF"/>
</g>
<defs>
<clipPath id="clip0">
<rect width="24" height="24" fill="white" transform="translate(0 0.0933228)"/>
</clipPath>
</defs>
</svg>
