<svg width="276" height="60" viewBox="0 0 276 60" fill="none" xmlns="http://www.w3.org/2000/svg">
<path d="M0 8C0 3.58172 3.58172 0 8 0H223.021L267.388 23.4484C271.846 25.8046 273.039 31.6479 269.861 35.5631L250.026 60H7.99999C3.58171 60 0 56.4183 0 52V8Z" fill="#2FCBF1"/>
<path d="M0 8C0 3.58172 3.58172 0 8 0H221.477H257.15C262.681 0 266.544 5.47982 264.684 10.6896L247.081 60H7.99999C3.58171 60 0 56.4183 0 52V8Z" fill="#020247"/>
<path d="M48.9286 12C54.3134 12 58.6786 16.3652 58.6786 21.75C58.6786 27.1348 54.3134 31.5 48.9286 31.5C43.5438 31.5 39.1786 27.1348 39.1786 21.75C39.1786 16.3652 43.5438 12 48.9286 12Z" stroke="white" stroke-width="2"/>
<path d="M48.9286 31.5C55.6463 31.5 61.6128 36.519 62.6869 43.4079C62.8588 44.5103 61.9442 45.4286 60.8285 45.4286H37C35.8954 45.4286 34.9849 44.528 35.1417 43.4346C36.109 36.6867 41.9131 31.5 48.9286 31.5Z" stroke="white" stroke-width="2"/>
<path d="M54.9891 13.7224C56.3973 12.6421 58.1594 12 60.0714 12C64.6869 12 68.4285 15.7416 68.4285 20.3571C68.4285 24.9727 64.6869 28.7143 60.0714 28.7143C58.9759 28.7143 57.9296 28.5035 56.9709 28.1203" stroke="white" stroke-width="2"/>
<path d="M61.4642 39.8572H69.1856C70.3013 39.8572 71.2195 38.9362 71.0083 37.8407C69.9859 32.5363 65.3147 28.7143 60.0714 28.7143C57.104 28.7143 54.4075 29.8742 52.4106 31.7653" stroke="white" stroke-width="2"/>
<path d="M90.7002 23.4C90.8202 23.4 90.8802 23.46 90.8802 23.58V24.732C90.8802 24.852 90.8202 24.912 90.7002 24.912H87.2442C87.1962 24.912 87.1722 24.936 87.1722 24.984V35.82C87.1722 35.94 87.1122 36 86.9922 36H85.6242C85.5042 36 85.4442 35.94 85.4442 35.82V24.984C85.4442 24.936 85.4202 24.912 85.3722 24.912H82.0782C81.9582 24.912 81.8982 24.852 81.8982 24.732V23.58C81.8982 23.46 81.9582 23.4 82.0782 23.4H90.7002ZM93.6608 25.398C93.3248 25.398 93.0488 25.29 92.8328 25.074C92.6168 24.858 92.5088 24.582 92.5088 24.246C92.5088 23.91 92.6168 23.634 92.8328 23.418C93.0488 23.202 93.3248 23.094 93.6608 23.094C93.9968 23.094 94.2728 23.202 94.4888 23.418C94.7048 23.634 94.8128 23.91 94.8128 24.246C94.8128 24.582 94.7048 24.858 94.4888 25.074C94.2728 25.29 93.9968 25.398 93.6608 25.398ZM92.9408 35.982C92.8208 35.982 92.7608 35.922 92.7608 35.802V27.018C92.7608 26.898 92.8208 26.838 92.9408 26.838H94.3088C94.4288 26.838 94.4888 26.898 94.4888 27.018V35.802C94.4888 35.922 94.4288 35.982 94.3088 35.982H92.9408ZM104.639 29.142C104.867 29.79 104.981 30.558 104.981 31.446C104.981 32.286 104.885 33.012 104.693 33.624C104.441 34.428 104.027 35.052 103.451 35.496C102.875 35.928 102.137 36.144 101.237 36.144C100.829 36.144 100.439 36.066 100.067 35.91C99.7067 35.742 99.3947 35.508 99.1307 35.208C99.1067 35.184 99.0827 35.178 99.0587 35.19C99.0467 35.202 99.0407 35.22 99.0407 35.244V39.258C99.0407 39.378 98.9807 39.438 98.8607 39.438H97.4927C97.3727 39.438 97.3127 39.378 97.3127 39.258V27.018C97.3127 26.898 97.3727 26.838 97.4927 26.838H98.8607C98.9807 26.838 99.0407 26.898 99.0407 27.018V27.612C99.0407 27.636 99.0467 27.654 99.0587 27.666C99.0827 27.678 99.1067 27.672 99.1307 27.648C99.3947 27.348 99.7067 27.114 100.067 26.946C100.427 26.778 100.817 26.694 101.237 26.694C102.101 26.694 102.815 26.91 103.379 27.342C103.955 27.762 104.375 28.362 104.639 29.142ZM102.659 33.786C103.043 33.21 103.235 32.418 103.235 31.41C103.235 30.486 103.085 29.742 102.785 29.178C102.437 28.518 101.867 28.188 101.075 28.188C100.379 28.188 99.8507 28.512 99.4907 29.16C99.2027 29.676 99.0587 30.432 99.0587 31.428C99.0587 32.436 99.2147 33.204 99.5267 33.732C99.8747 34.344 100.385 34.65 101.057 34.65C101.777 34.65 102.311 34.362 102.659 33.786ZM110.88 36.144C109.992 36.144 109.218 35.922 108.558 35.478C107.898 35.022 107.436 34.392 107.172 33.588C106.956 32.94 106.848 32.208 106.848 31.392C106.848 30.54 106.95 29.82 107.154 29.232C107.418 28.44 107.88 27.822 108.54 27.378C109.2 26.922 109.986 26.694 110.898 26.694C111.762 26.694 112.512 26.922 113.148 27.378C113.796 27.822 114.258 28.434 114.534 29.214C114.75 29.826 114.858 30.546 114.858 31.374C114.858 32.214 114.75 32.952 114.534 33.588C114.27 34.392 113.814 35.022 113.166 35.478C112.518 35.922 111.756 36.144 110.88 36.144ZM110.88 34.65C111.36 34.65 111.78 34.518 112.14 34.254C112.5 33.978 112.758 33.594 112.914 33.102C113.046 32.646 113.112 32.082 113.112 31.41C113.112 30.738 113.052 30.18 112.932 29.736C112.776 29.244 112.518 28.866 112.158 28.602C111.798 28.326 111.36 28.188 110.844 28.188C110.352 28.188 109.926 28.326 109.566 28.602C109.206 28.866 108.948 29.244 108.792 29.736C108.66 30.156 108.594 30.714 108.594 31.41C108.594 32.106 108.66 32.67 108.792 33.102C108.936 33.594 109.188 33.978 109.548 34.254C109.92 34.518 110.364 34.65 110.88 34.65ZM126.412 23.58C126.412 23.46 126.472 23.4 126.592 23.4H127.96C128.08 23.4 128.14 23.46 128.14 23.58V35.82C128.14 35.94 128.08 36 127.96 36H126.592C126.472 36 126.412 35.94 126.412 35.82V35.226C126.412 35.202 126.4 35.184 126.376 35.172C126.364 35.16 126.346 35.166 126.322 35.19C126.058 35.49 125.746 35.724 125.386 35.892C125.026 36.06 124.636 36.144 124.216 36.144C123.352 36.144 122.632 35.934 122.056 35.514C121.492 35.082 121.078 34.476 120.814 33.696C120.586 33.06 120.472 32.292 120.472 31.392C120.472 30.552 120.568 29.826 120.76 29.214C121.012 28.422 121.426 27.804 122.002 27.36C122.578 26.916 123.316 26.694 124.216 26.694C124.624 26.694 125.008 26.778 125.368 26.946C125.74 27.102 126.058 27.33 126.322 27.63C126.346 27.654 126.364 27.66 126.376 27.648C126.4 27.636 126.412 27.618 126.412 27.594V23.58ZM125.962 33.678C126.238 33.174 126.376 32.418 126.376 31.41C126.376 30.402 126.226 29.634 125.926 29.106C125.578 28.494 125.068 28.188 124.396 28.188C123.676 28.188 123.142 28.476 122.794 29.052C122.41 29.652 122.218 30.444 122.218 31.428C122.218 32.352 122.368 33.096 122.668 33.66C123.016 34.32 123.586 34.65 124.378 34.65C125.074 34.65 125.602 34.326 125.962 33.678ZM138.089 30.276C138.137 30.768 138.155 31.32 138.143 31.932C138.143 32.052 138.083 32.112 137.963 32.112H132.221C132.173 32.112 132.149 32.136 132.149 32.184C132.149 32.592 132.185 32.904 132.257 33.12C132.389 33.6 132.653 33.978 133.049 34.254C133.457 34.518 133.967 34.65 134.579 34.65C135.467 34.65 136.151 34.284 136.631 33.552C136.691 33.432 136.769 33.414 136.865 33.498L137.891 34.182C137.975 34.254 137.993 34.332 137.945 34.416C137.609 34.956 137.129 35.382 136.505 35.694C135.893 36.006 135.197 36.162 134.417 36.162C133.541 36.162 132.803 35.97 132.203 35.586C131.603 35.202 131.153 34.656 130.853 33.948C130.565 33.24 130.421 32.382 130.421 31.374C130.421 30.498 130.487 29.832 130.619 29.376C130.835 28.548 131.267 27.894 131.915 27.414C132.563 26.934 133.349 26.694 134.273 26.694C135.485 26.694 136.391 27 136.991 27.612C137.591 28.212 137.957 29.1 138.089 30.276ZM134.273 28.188C133.757 28.188 133.331 28.32 132.995 28.584C132.659 28.836 132.431 29.178 132.311 29.61C132.227 29.874 132.173 30.21 132.149 30.618C132.149 30.666 132.173 30.69 132.221 30.69H136.343C136.391 30.69 136.415 30.666 136.415 30.618C136.391 30.222 136.355 29.928 136.307 29.736C136.187 29.268 135.947 28.896 135.587 28.62C135.239 28.332 134.801 28.188 134.273 28.188ZM146.339 36C146.231 36 146.159 35.952 146.123 35.856L143.189 27.036L143.171 26.964C143.171 26.88 143.225 26.838 143.333 26.838H144.845C144.953 26.838 145.025 26.886 145.061 26.982L147.041 33.498C147.053 33.522 147.071 33.534 147.095 33.534C147.119 33.534 147.137 33.522 147.149 33.498L149.111 26.982C149.147 26.886 149.219 26.838 149.327 26.838L150.839 26.856C150.971 26.856 151.019 26.922 150.983 27.054L148.067 35.856C148.031 35.952 147.959 36 147.851 36H146.339ZM153.813 25.398C153.477 25.398 153.201 25.29 152.985 25.074C152.769 24.858 152.661 24.582 152.661 24.246C152.661 23.91 152.769 23.634 152.985 23.418C153.201 23.202 153.477 23.094 153.813 23.094C154.149 23.094 154.425 23.202 154.641 23.418C154.857 23.634 154.965 23.91 154.965 24.246C154.965 24.582 154.857 24.858 154.641 25.074C154.425 25.29 154.149 25.398 153.813 25.398ZM153.093 35.982C152.973 35.982 152.913 35.922 152.913 35.802V27.018C152.913 26.898 152.973 26.838 153.093 26.838H154.461C154.581 26.838 154.641 26.898 154.641 27.018V35.802C154.641 35.922 154.581 35.982 154.461 35.982H153.093ZM160.579 36.108C159.859 36.108 159.223 36 158.671 35.784C158.131 35.568 157.711 35.274 157.411 34.902C157.111 34.518 156.961 34.098 156.961 33.642V33.444C156.961 33.324 157.021 33.264 157.141 33.264H158.437C158.557 33.264 158.617 33.324 158.617 33.444V33.534C158.617 33.87 158.797 34.164 159.157 34.416C159.529 34.668 159.997 34.794 160.561 34.794C161.101 34.794 161.539 34.68 161.875 34.452C162.211 34.212 162.379 33.912 162.379 33.552C162.379 33.204 162.223 32.946 161.911 32.778C161.599 32.598 161.095 32.412 160.399 32.22C159.715 32.028 159.139 31.836 158.671 31.644C158.215 31.44 157.825 31.158 157.501 30.798C157.189 30.426 157.033 29.952 157.033 29.376C157.033 28.572 157.345 27.936 157.969 27.468C158.605 26.988 159.445 26.748 160.489 26.748C161.185 26.748 161.797 26.862 162.325 27.09C162.865 27.306 163.279 27.612 163.567 28.008C163.855 28.404 163.999 28.848 163.999 29.34V29.394C163.999 29.514 163.939 29.574 163.819 29.574H162.559C162.439 29.574 162.379 29.514 162.379 29.394V29.34C162.379 28.992 162.205 28.704 161.857 28.476C161.521 28.236 161.059 28.116 160.471 28.116C159.943 28.116 159.511 28.218 159.175 28.422C158.851 28.626 158.689 28.902 158.689 29.25C158.689 29.598 158.845 29.862 159.157 30.042C159.481 30.222 159.997 30.414 160.705 30.618C161.401 30.81 161.977 31.002 162.433 31.194C162.901 31.374 163.297 31.65 163.621 32.022C163.945 32.382 164.107 32.856 164.107 33.444C164.107 34.26 163.783 34.908 163.135 35.388C162.499 35.868 161.647 36.108 160.579 36.108ZM167.173 25.398C166.837 25.398 166.561 25.29 166.345 25.074C166.129 24.858 166.021 24.582 166.021 24.246C166.021 23.91 166.129 23.634 166.345 23.418C166.561 23.202 166.837 23.094 167.173 23.094C167.509 23.094 167.785 23.202 168.001 23.418C168.217 23.634 168.325 23.91 168.325 24.246C168.325 24.582 168.217 24.858 168.001 25.074C167.785 25.29 167.509 25.398 167.173 25.398ZM166.453 35.982C166.333 35.982 166.273 35.922 166.273 35.802V27.018C166.273 26.898 166.333 26.838 166.453 26.838H167.821C167.941 26.838 168.001 26.898 168.001 27.018V35.802C168.001 35.922 167.941 35.982 167.821 35.982H166.453ZM175.234 28.08C175.234 28.2 175.174 28.26 175.054 28.26H173.11C173.062 28.26 173.038 28.284 173.038 28.332V33.102C173.038 33.606 173.152 33.972 173.38 34.2C173.608 34.416 173.962 34.524 174.442 34.524H174.964C175.084 34.524 175.144 34.584 175.144 34.704V35.82C175.144 35.94 175.084 36 174.964 36C174.58 36.024 174.304 36.036 174.136 36.036C173.224 36.036 172.534 35.874 172.066 35.55C171.61 35.214 171.382 34.602 171.382 33.714V28.332C171.382 28.284 171.358 28.26 171.31 28.26H170.212C170.092 28.26 170.032 28.2 170.032 28.08V27.018C170.032 26.898 170.092 26.838 170.212 26.838H171.31C171.358 26.838 171.382 26.814 171.382 26.766V24.642C171.382 24.522 171.442 24.462 171.562 24.462H172.858C172.978 24.462 173.038 24.522 173.038 24.642V26.766C173.038 26.814 173.062 26.838 173.11 26.838H175.054C175.174 26.838 175.234 26.898 175.234 27.018V28.08ZM180.709 26.694C181.441 26.694 182.077 26.826 182.617 27.09C183.169 27.342 183.589 27.702 183.877 28.17C184.177 28.626 184.327 29.148 184.327 29.736V35.82C184.327 35.94 184.267 36 184.147 36H182.779C182.659 36 182.599 35.94 182.599 35.82V35.172C182.599 35.112 182.569 35.1 182.509 35.136C182.197 35.46 181.813 35.712 181.357 35.892C180.913 36.06 180.415 36.144 179.863 36.144C178.975 36.144 178.237 35.922 177.649 35.478C177.073 35.022 176.785 34.338 176.785 33.426C176.785 32.49 177.109 31.758 177.757 31.23C178.417 30.69 179.335 30.42 180.511 30.42H182.527C182.575 30.42 182.599 30.396 182.599 30.348V29.862C182.599 29.334 182.443 28.926 182.131 28.638C181.831 28.338 181.369 28.188 180.745 28.188C180.241 28.188 179.827 28.29 179.503 28.494C179.191 28.686 178.999 28.95 178.927 29.286C178.891 29.406 178.819 29.46 178.711 29.448L177.253 29.25C177.133 29.226 177.079 29.178 177.091 29.106C177.187 28.398 177.565 27.822 178.225 27.378C178.885 26.922 179.713 26.694 180.709 26.694ZM180.241 34.686C180.877 34.686 181.429 34.518 181.897 34.182C182.365 33.846 182.599 33.42 182.599 32.904V31.842C182.599 31.794 182.575 31.77 182.527 31.77H180.835C180.127 31.77 179.563 31.908 179.143 32.184C178.723 32.46 178.513 32.844 178.513 33.336C178.513 33.78 178.669 34.116 178.981 34.344C179.305 34.572 179.725 34.686 180.241 34.686ZM188.496 29.808C188.16 29.808 187.884 29.7 187.668 29.484C187.452 29.268 187.344 28.992 187.344 28.656C187.344 28.32 187.452 28.044 187.668 27.828C187.884 27.612 188.16 27.504 188.496 27.504C188.832 27.504 189.108 27.612 189.324 27.828C189.54 28.044 189.648 28.32 189.648 28.656C189.648 28.992 189.54 29.268 189.324 29.484C189.108 29.7 188.832 29.808 188.496 29.808ZM188.496 35.802C188.16 35.802 187.884 35.694 187.668 35.478C187.452 35.262 187.344 34.986 187.344 34.65C187.344 34.314 187.452 34.038 187.668 33.822C187.884 33.606 188.16 33.498 188.496 33.498C188.832 33.498 189.108 33.606 189.324 33.822C189.54 34.038 189.648 34.314 189.648 34.65C189.648 34.986 189.54 35.262 189.324 35.478C189.108 35.694 188.832 35.802 188.496 35.802Z" fill="white"/>
</svg>
