<svg width="276" height="60" viewBox="0 0 276 60" fill="none" xmlns="http://www.w3.org/2000/svg">
<path d="M0 8C0 3.58172 3.58172 0 8 0H223.021L267.388 23.4484C271.846 25.8046 273.039 31.6479 269.861 35.5631L250.026 60H7.99999C3.58171 60 0 56.4183 0 52V8Z" fill="#FD6C98"/>
<path d="M0 8C0 3.58172 3.58172 0 8 0H221.477H257.15C262.681 0 266.544 5.47982 264.684 10.6896L247.081 60H7.99999C3.58171 60 0 56.4183 0 52V8Z" fill="#020247"/>
<path d="M64.364 37.144C63.44 37.144 62.636 37 61.952 36.712C61.28 36.424 60.758 36.016 60.386 35.488C60.026 34.96 59.846 34.342 59.846 33.634V33.112C59.846 32.992 59.906 32.932 60.026 32.932H61.34C61.46 32.932 61.52 32.992 61.52 33.112V33.544C61.52 34.156 61.784 34.66 62.312 35.056C62.84 35.452 63.566 35.65 64.49 35.65C65.318 35.65 65.942 35.476 66.362 35.128C66.782 34.78 66.992 34.324 66.992 33.76C66.992 33.388 66.884 33.07 66.668 32.806C66.452 32.542 66.134 32.302 65.714 32.086C65.306 31.858 64.706 31.588 63.914 31.276C63.038 30.94 62.342 30.634 61.826 30.358C61.322 30.082 60.902 29.722 60.566 29.278C60.23 28.822 60.062 28.252 60.062 27.568C60.062 26.536 60.428 25.726 61.16 25.138C61.904 24.55 62.906 24.256 64.166 24.256C65.054 24.256 65.834 24.406 66.506 24.706C67.178 25.006 67.694 25.426 68.054 25.966C68.426 26.506 68.612 27.13 68.612 27.838V28.198C68.612 28.318 68.552 28.378 68.432 28.378H67.082C66.962 28.378 66.902 28.318 66.902 28.198V27.928C66.902 27.304 66.65 26.788 66.146 26.38C65.654 25.96 64.97 25.75 64.094 25.75C63.35 25.75 62.774 25.906 62.366 26.218C61.958 26.518 61.754 26.956 61.754 27.532C61.754 27.928 61.856 28.252 62.06 28.504C62.264 28.756 62.564 28.984 62.96 29.188C63.368 29.38 63.986 29.632 64.814 29.944C65.666 30.28 66.356 30.592 66.884 30.88C67.412 31.156 67.85 31.528 68.198 31.996C68.546 32.452 68.72 33.022 68.72 33.706C68.72 34.762 68.33 35.602 67.55 36.226C66.782 36.838 65.72 37.144 64.364 37.144ZM78.258 31.276C78.306 31.768 78.324 32.32 78.312 32.932C78.312 33.052 78.252 33.112 78.132 33.112H72.39C72.342 33.112 72.318 33.136 72.318 33.184C72.318 33.592 72.354 33.904 72.426 34.12C72.558 34.6 72.822 34.978 73.218 35.254C73.626 35.518 74.136 35.65 74.748 35.65C75.636 35.65 76.32 35.284 76.8 34.552C76.86 34.432 76.938 34.414 77.034 34.498L78.06 35.182C78.144 35.254 78.162 35.332 78.114 35.416C77.778 35.956 77.298 36.382 76.674 36.694C76.062 37.006 75.366 37.162 74.586 37.162C73.71 37.162 72.972 36.97 72.372 36.586C71.772 36.202 71.322 35.656 71.022 34.948C70.734 34.24 70.59 33.382 70.59 32.374C70.59 31.498 70.656 30.832 70.788 30.376C71.004 29.548 71.436 28.894 72.084 28.414C72.732 27.934 73.518 27.694 74.442 27.694C75.654 27.694 76.56 28 77.16 28.612C77.76 29.212 78.126 30.1 78.258 31.276ZM74.442 29.188C73.926 29.188 73.5 29.32 73.164 29.584C72.828 29.836 72.6 30.178 72.48 30.61C72.396 30.874 72.342 31.21 72.318 31.618C72.318 31.666 72.342 31.69 72.39 31.69H76.512C76.56 31.69 76.584 31.666 76.584 31.618C76.56 31.222 76.524 30.928 76.476 30.736C76.356 30.268 76.116 29.896 75.756 29.62C75.408 29.332 74.97 29.188 74.442 29.188ZM80.6724 37C80.5524 37 80.4924 36.94 80.4924 36.82V24.58C80.4924 24.46 80.5524 24.4 80.6724 24.4H82.0404C82.1604 24.4 82.2204 24.46 82.2204 24.58V36.82C82.2204 36.94 82.1604 37 82.0404 37H80.6724ZM92.1448 31.276C92.1928 31.768 92.2108 32.32 92.1988 32.932C92.1988 33.052 92.1388 33.112 92.0188 33.112H86.2768C86.2288 33.112 86.2048 33.136 86.2048 33.184C86.2048 33.592 86.2408 33.904 86.3128 34.12C86.4448 34.6 86.7088 34.978 87.1048 35.254C87.5128 35.518 88.0228 35.65 88.6348 35.65C89.5228 35.65 90.2068 35.284 90.6868 34.552C90.7468 34.432 90.8248 34.414 90.9208 34.498L91.9468 35.182C92.0308 35.254 92.0488 35.332 92.0008 35.416C91.6648 35.956 91.1848 36.382 90.5608 36.694C89.9488 37.006 89.2528 37.162 88.4728 37.162C87.5968 37.162 86.8588 36.97 86.2588 36.586C85.6588 36.202 85.2088 35.656 84.9088 34.948C84.6208 34.24 84.4768 33.382 84.4768 32.374C84.4768 31.498 84.5428 30.832 84.6748 30.376C84.8908 29.548 85.3228 28.894 85.9708 28.414C86.6188 27.934 87.4048 27.694 88.3288 27.694C89.5408 27.694 90.4468 28 91.0468 28.612C91.6468 29.212 92.0128 30.1 92.1448 31.276ZM88.3288 29.188C87.8128 29.188 87.3868 29.32 87.0508 29.584C86.7148 29.836 86.4868 30.178 86.3668 30.61C86.2828 30.874 86.2288 31.21 86.2048 31.618C86.2048 31.666 86.2288 31.69 86.2768 31.69H90.3988C90.4468 31.69 90.4708 31.666 90.4708 31.618C90.4468 31.222 90.4108 30.928 90.3628 30.736C90.2428 30.268 90.0028 29.896 89.6428 29.62C89.2948 29.332 88.8568 29.188 88.3288 29.188ZM98.0511 37.144C97.1391 37.144 96.3591 36.916 95.7111 36.46C95.0631 35.992 94.6191 35.362 94.3791 34.57C94.1991 34.018 94.1091 33.292 94.1091 32.392C94.1091 31.564 94.1991 30.838 94.3791 30.214C94.6191 29.446 95.0631 28.834 95.7111 28.378C96.3711 27.922 97.1511 27.694 98.0511 27.694C98.9511 27.694 99.7371 27.922 100.409 28.378C101.081 28.834 101.519 29.41 101.723 30.106C101.795 30.298 101.843 30.496 101.867 30.7C101.867 30.796 101.813 30.856 101.705 30.88L100.355 31.078H100.319C100.235 31.078 100.175 31.024 100.139 30.916L100.085 30.628C99.9891 30.22 99.7551 29.878 99.3831 29.602C99.0111 29.326 98.5611 29.188 98.0331 29.188C97.5171 29.188 97.0791 29.326 96.7191 29.602C96.3591 29.878 96.1251 30.244 96.0171 30.7C95.9091 31.132 95.8551 31.702 95.8551 32.41C95.8551 33.106 95.9091 33.67 96.0171 34.102C96.1371 34.582 96.3711 34.96 96.7191 35.236C97.0791 35.512 97.5171 35.65 98.0331 35.65C98.5611 35.65 99.0111 35.512 99.3831 35.236C99.7671 34.96 100.007 34.6 100.103 34.156C100.115 34.144 100.115 34.132 100.103 34.12C100.103 34.096 100.109 34.078 100.121 34.066V33.994C100.157 33.898 100.223 33.862 100.319 33.886L101.669 34.102C101.765 34.126 101.813 34.174 101.813 34.246V34.318C101.813 34.426 101.783 34.558 101.723 34.714C101.519 35.446 101.081 36.034 100.409 36.478C99.7371 36.922 98.9511 37.144 98.0511 37.144ZM107.455 37.144C106.543 37.144 105.763 36.916 105.115 36.46C104.467 35.992 104.023 35.362 103.783 34.57C103.603 34.018 103.513 33.292 103.513 32.392C103.513 31.564 103.603 30.838 103.783 30.214C104.023 29.446 104.467 28.834 105.115 28.378C105.775 27.922 106.555 27.694 107.455 27.694C108.355 27.694 109.141 27.922 109.813 28.378C110.485 28.834 110.923 29.41 111.127 30.106C111.199 30.298 111.247 30.496 111.271 30.7C111.271 30.796 111.217 30.856 111.109 30.88L109.759 31.078H109.723C109.639 31.078 109.579 31.024 109.543 30.916L109.489 30.628C109.393 30.22 109.159 29.878 108.787 29.602C108.415 29.326 107.965 29.188 107.437 29.188C106.921 29.188 106.483 29.326 106.123 29.602C105.763 29.878 105.529 30.244 105.421 30.7C105.313 31.132 105.259 31.702 105.259 32.41C105.259 33.106 105.313 33.67 105.421 34.102C105.541 34.582 105.775 34.96 106.123 35.236C106.483 35.512 106.921 35.65 107.437 35.65C107.965 35.65 108.415 35.512 108.787 35.236C109.171 34.96 109.411 34.6 109.507 34.156C109.519 34.144 109.519 34.132 109.507 34.12C109.507 34.096 109.513 34.078 109.525 34.066V33.994C109.561 33.898 109.627 33.862 109.723 33.886L111.073 34.102C111.169 34.126 111.217 34.174 111.217 34.246V34.318C111.217 34.426 111.187 34.558 111.127 34.714C110.923 35.446 110.485 36.034 109.813 36.478C109.141 36.922 108.355 37.144 107.455 37.144ZM114.302 26.398C113.966 26.398 113.69 26.29 113.474 26.074C113.258 25.858 113.15 25.582 113.15 25.246C113.15 24.91 113.258 24.634 113.474 24.418C113.69 24.202 113.966 24.094 114.302 24.094C114.638 24.094 114.914 24.202 115.13 24.418C115.346 24.634 115.454 24.91 115.454 25.246C115.454 25.582 115.346 25.858 115.13 26.074C114.914 26.29 114.638 26.398 114.302 26.398ZM113.582 36.982C113.462 36.982 113.402 36.922 113.402 36.802V28.018C113.402 27.898 113.462 27.838 113.582 27.838H114.95C115.07 27.838 115.13 27.898 115.13 28.018V36.802C115.13 36.922 115.07 36.982 114.95 36.982H113.582ZM121.59 37.144C120.702 37.144 119.928 36.922 119.268 36.478C118.608 36.022 118.146 35.392 117.882 34.588C117.666 33.94 117.558 33.208 117.558 32.392C117.558 31.54 117.66 30.82 117.864 30.232C118.128 29.44 118.59 28.822 119.25 28.378C119.91 27.922 120.696 27.694 121.608 27.694C122.472 27.694 123.222 27.922 123.858 28.378C124.506 28.822 124.968 29.434 125.244 30.214C125.46 30.826 125.568 31.546 125.568 32.374C125.568 33.214 125.46 33.952 125.244 34.588C124.98 35.392 124.524 36.022 123.876 36.478C123.228 36.922 122.466 37.144 121.59 37.144ZM121.59 35.65C122.07 35.65 122.49 35.518 122.85 35.254C123.21 34.978 123.468 34.594 123.624 34.102C123.756 33.646 123.822 33.082 123.822 32.41C123.822 31.738 123.762 31.18 123.642 30.736C123.486 30.244 123.228 29.866 122.868 29.602C122.508 29.326 122.07 29.188 121.554 29.188C121.062 29.188 120.636 29.326 120.276 29.602C119.916 29.866 119.658 30.244 119.502 30.736C119.37 31.156 119.304 31.714 119.304 32.41C119.304 33.106 119.37 33.67 119.502 34.102C119.646 34.594 119.898 34.978 120.258 35.254C120.63 35.518 121.074 35.65 121.59 35.65ZM131.916 27.712C132.9 27.712 133.68 28 134.256 28.576C134.832 29.14 135.12 29.908 135.12 30.88V36.82C135.12 36.94 135.06 37 134.94 37H133.572C133.452 37 133.392 36.94 133.392 36.82V31.222C133.392 30.622 133.218 30.136 132.87 29.764C132.522 29.392 132.06 29.206 131.484 29.206C130.92 29.206 130.458 29.392 130.098 29.764C129.738 30.136 129.558 30.616 129.558 31.204V36.82C129.558 36.94 129.498 37 129.378 37H128.01C127.89 37 127.83 36.94 127.83 36.82V28.018C127.83 27.898 127.89 27.838 128.01 27.838H129.378C129.498 27.838 129.558 27.898 129.558 28.018V28.666C129.558 28.69 129.564 28.708 129.576 28.72C129.6 28.732 129.618 28.726 129.63 28.702C130.146 28.042 130.908 27.712 131.916 27.712ZM140.934 27.694C141.666 27.694 142.302 27.826 142.842 28.09C143.394 28.342 143.814 28.702 144.102 29.17C144.402 29.626 144.552 30.148 144.552 30.736V36.82C144.552 36.94 144.492 37 144.372 37H143.004C142.884 37 142.824 36.94 142.824 36.82V36.172C142.824 36.112 142.794 36.1 142.734 36.136C142.422 36.46 142.038 36.712 141.582 36.892C141.138 37.06 140.64 37.144 140.088 37.144C139.2 37.144 138.462 36.922 137.874 36.478C137.298 36.022 137.01 35.338 137.01 34.426C137.01 33.49 137.334 32.758 137.982 32.23C138.642 31.69 139.56 31.42 140.736 31.42H142.752C142.8 31.42 142.824 31.396 142.824 31.348V30.862C142.824 30.334 142.668 29.926 142.356 29.638C142.056 29.338 141.594 29.188 140.97 29.188C140.466 29.188 140.052 29.29 139.728 29.494C139.416 29.686 139.224 29.95 139.152 30.286C139.116 30.406 139.044 30.46 138.936 30.448L137.478 30.25C137.358 30.226 137.304 30.178 137.316 30.106C137.412 29.398 137.79 28.822 138.45 28.378C139.11 27.922 139.938 27.694 140.934 27.694ZM140.466 35.686C141.102 35.686 141.654 35.518 142.122 35.182C142.59 34.846 142.824 34.42 142.824 33.904V32.842C142.824 32.794 142.8 32.77 142.752 32.77H141.06C140.352 32.77 139.788 32.908 139.368 33.184C138.948 33.46 138.738 33.844 138.738 34.336C138.738 34.78 138.894 35.116 139.206 35.344C139.53 35.572 139.95 35.686 140.466 35.686ZM155.943 28.018C155.943 27.898 156.003 27.838 156.123 27.838H157.473C157.593 27.838 157.653 27.898 157.653 28.018V36.82C157.653 36.94 157.593 37 157.473 37H156.123C156.003 37 155.943 36.94 155.943 36.82V36.154C155.943 36.13 155.931 36.118 155.907 36.118C155.895 36.106 155.877 36.112 155.853 36.136C155.373 36.796 154.635 37.126 153.639 37.126C153.051 37.126 152.505 37.012 152.001 36.784C151.509 36.556 151.113 36.22 150.813 35.776C150.513 35.332 150.363 34.792 150.363 34.156V28.018C150.363 27.898 150.423 27.838 150.543 27.838H151.893C152.013 27.838 152.073 27.898 152.073 28.018V33.616C152.073 34.24 152.235 34.732 152.559 35.092C152.895 35.452 153.363 35.632 153.963 35.632C154.563 35.632 155.043 35.452 155.403 35.092C155.763 34.72 155.943 34.228 155.943 33.616V28.018ZM164.26 27.712C165.244 27.712 166.024 28 166.6 28.576C167.176 29.14 167.464 29.908 167.464 30.88V36.82C167.464 36.94 167.404 37 167.284 37H165.916C165.796 37 165.736 36.94 165.736 36.82V31.222C165.736 30.622 165.562 30.136 165.214 29.764C164.866 29.392 164.404 29.206 163.828 29.206C163.264 29.206 162.802 29.392 162.442 29.764C162.082 30.136 161.902 30.616 161.902 31.204V36.82C161.902 36.94 161.842 37 161.722 37H160.354C160.234 37 160.174 36.94 160.174 36.82V28.018C160.174 27.898 160.234 27.838 160.354 27.838H161.722C161.842 27.838 161.902 27.898 161.902 28.018V28.666C161.902 28.69 161.908 28.708 161.92 28.72C161.944 28.732 161.962 28.726 161.974 28.702C162.49 28.042 163.252 27.712 164.26 27.712ZM180.949 31.276C180.997 31.768 181.015 32.32 181.003 32.932C181.003 33.052 180.943 33.112 180.823 33.112H175.081C175.033 33.112 175.009 33.136 175.009 33.184C175.009 33.592 175.045 33.904 175.117 34.12C175.249 34.6 175.513 34.978 175.909 35.254C176.317 35.518 176.827 35.65 177.439 35.65C178.327 35.65 179.011 35.284 179.491 34.552C179.551 34.432 179.629 34.414 179.725 34.498L180.751 35.182C180.835 35.254 180.853 35.332 180.805 35.416C180.469 35.956 179.989 36.382 179.365 36.694C178.753 37.006 178.057 37.162 177.277 37.162C176.401 37.162 175.663 36.97 175.063 36.586C174.463 36.202 174.013 35.656 173.713 34.948C173.425 34.24 173.281 33.382 173.281 32.374C173.281 31.498 173.347 30.832 173.479 30.376C173.695 29.548 174.127 28.894 174.775 28.414C175.423 27.934 176.209 27.694 177.133 27.694C178.345 27.694 179.251 28 179.851 28.612C180.451 29.212 180.817 30.1 180.949 31.276ZM177.133 29.188C176.617 29.188 176.191 29.32 175.855 29.584C175.519 29.836 175.291 30.178 175.171 30.61C175.087 30.874 175.033 31.21 175.009 31.618C175.009 31.666 175.033 31.69 175.081 31.69H179.203C179.251 31.69 179.275 31.666 179.275 31.618C179.251 31.222 179.215 30.928 179.167 30.736C179.047 30.268 178.807 29.896 178.447 29.62C178.099 29.332 177.661 29.188 177.133 29.188ZM188.872 24.58C188.872 24.46 188.932 24.4 189.052 24.4H190.42C190.54 24.4 190.6 24.46 190.6 24.58V36.82C190.6 36.94 190.54 37 190.42 37H189.052C188.932 37 188.872 36.94 188.872 36.82V36.226C188.872 36.202 188.86 36.184 188.836 36.172C188.824 36.16 188.806 36.166 188.782 36.19C188.518 36.49 188.206 36.724 187.846 36.892C187.486 37.06 187.096 37.144 186.676 37.144C185.812 37.144 185.092 36.934 184.516 36.514C183.952 36.082 183.538 35.476 183.274 34.696C183.046 34.06 182.932 33.292 182.932 32.392C182.932 31.552 183.028 30.826 183.22 30.214C183.472 29.422 183.886 28.804 184.462 28.36C185.038 27.916 185.776 27.694 186.676 27.694C187.084 27.694 187.468 27.778 187.828 27.946C188.2 28.102 188.518 28.33 188.782 28.63C188.806 28.654 188.824 28.66 188.836 28.648C188.86 28.636 188.872 28.618 188.872 28.594V24.58ZM188.422 34.678C188.698 34.174 188.836 33.418 188.836 32.41C188.836 31.402 188.686 30.634 188.386 30.106C188.038 29.494 187.528 29.188 186.856 29.188C186.136 29.188 185.602 29.476 185.254 30.052C184.87 30.652 184.678 31.444 184.678 32.428C184.678 33.352 184.828 34.096 185.128 34.66C185.476 35.32 186.046 35.65 186.838 35.65C187.534 35.65 188.062 35.326 188.422 34.678ZM194.177 26.398C193.841 26.398 193.565 26.29 193.349 26.074C193.133 25.858 193.025 25.582 193.025 25.246C193.025 24.91 193.133 24.634 193.349 24.418C193.565 24.202 193.841 24.094 194.177 24.094C194.513 24.094 194.789 24.202 195.005 24.418C195.221 24.634 195.329 24.91 195.329 25.246C195.329 25.582 195.221 25.858 195.005 26.074C194.789 26.29 194.513 26.398 194.177 26.398ZM193.457 36.982C193.337 36.982 193.277 36.922 193.277 36.802V28.018C193.277 27.898 193.337 27.838 193.457 27.838H194.825C194.945 27.838 195.005 27.898 195.005 28.018V36.802C195.005 36.922 194.945 36.982 194.825 36.982H193.457ZM201.753 25.912C201.153 25.912 200.745 26.026 200.529 26.254C200.313 26.482 200.205 26.914 200.205 27.55V27.766C200.205 27.814 200.229 27.838 200.277 27.838H202.167C202.287 27.838 202.347 27.898 202.347 28.018V29.242C202.347 29.362 202.287 29.422 202.167 29.422H200.277C200.229 29.422 200.205 29.446 200.205 29.494V36.82C200.205 36.94 200.145 37 200.025 37H198.657C198.537 37 198.477 36.94 198.477 36.82V29.494C198.477 29.446 198.453 29.422 198.405 29.422H197.199C197.079 29.422 197.019 29.362 197.019 29.242V28.018C197.019 27.898 197.079 27.838 197.199 27.838H198.405C198.453 27.838 198.477 27.814 198.477 27.766V27.442C198.477 26.65 198.567 26.038 198.747 25.606C198.939 25.174 199.257 24.868 199.701 24.688C200.145 24.496 200.769 24.4 201.573 24.4H202.185C202.305 24.4 202.365 24.46 202.365 24.58V25.732C202.365 25.852 202.305 25.912 202.185 25.912H201.753ZM205.371 26.398C205.035 26.398 204.759 26.29 204.543 26.074C204.327 25.858 204.219 25.582 204.219 25.246C204.219 24.91 204.327 24.634 204.543 24.418C204.759 24.202 205.035 24.094 205.371 24.094C205.707 24.094 205.983 24.202 206.199 24.418C206.415 24.634 206.523 24.91 206.523 25.246C206.523 25.582 206.415 25.858 206.199 26.074C205.983 26.29 205.707 26.398 205.371 26.398ZM204.651 36.982C204.531 36.982 204.471 36.922 204.471 36.802V28.018C204.471 27.898 204.531 27.838 204.651 27.838H206.019C206.139 27.838 206.199 27.898 206.199 28.018V36.802C206.199 36.922 206.139 36.982 206.019 36.982H204.651ZM212.59 37.144C211.678 37.144 210.898 36.916 210.25 36.46C209.602 35.992 209.158 35.362 208.918 34.57C208.738 34.018 208.648 33.292 208.648 32.392C208.648 31.564 208.738 30.838 208.918 30.214C209.158 29.446 209.602 28.834 210.25 28.378C210.91 27.922 211.69 27.694 212.59 27.694C213.49 27.694 214.276 27.922 214.948 28.378C215.62 28.834 216.058 29.41 216.262 30.106C216.334 30.298 216.382 30.496 216.406 30.7C216.406 30.796 216.352 30.856 216.244 30.88L214.894 31.078H214.858C214.774 31.078 214.714 31.024 214.678 30.916L214.624 30.628C214.528 30.22 214.294 29.878 213.922 29.602C213.55 29.326 213.1 29.188 212.572 29.188C212.056 29.188 211.618 29.326 211.258 29.602C210.898 29.878 210.664 30.244 210.556 30.7C210.448 31.132 210.394 31.702 210.394 32.41C210.394 33.106 210.448 33.67 210.556 34.102C210.676 34.582 210.91 34.96 211.258 35.236C211.618 35.512 212.056 35.65 212.572 35.65C213.1 35.65 213.55 35.512 213.922 35.236C214.306 34.96 214.546 34.6 214.642 34.156C214.654 34.144 214.654 34.132 214.642 34.12C214.642 34.096 214.648 34.078 214.66 34.066V33.994C214.696 33.898 214.762 33.862 214.858 33.886L216.208 34.102C216.304 34.126 216.352 34.174 216.352 34.246V34.318C216.352 34.426 216.322 34.558 216.262 34.714C216.058 35.446 215.62 36.034 214.948 36.478C214.276 36.922 213.49 37.144 212.59 37.144ZM219.437 26.398C219.101 26.398 218.825 26.29 218.609 26.074C218.393 25.858 218.285 25.582 218.285 25.246C218.285 24.91 218.393 24.634 218.609 24.418C218.825 24.202 219.101 24.094 219.437 24.094C219.773 24.094 220.049 24.202 220.265 24.418C220.481 24.634 220.589 24.91 220.589 25.246C220.589 25.582 220.481 25.858 220.265 26.074C220.049 26.29 219.773 26.398 219.437 26.398ZM218.717 36.982C218.597 36.982 218.537 36.922 218.537 36.802V28.018C218.537 27.898 218.597 27.838 218.717 27.838H220.085C220.205 27.838 220.265 27.898 220.265 28.018V36.802C220.265 36.922 220.205 36.982 220.085 36.982H218.717ZM226.725 37.144C225.837 37.144 225.063 36.922 224.403 36.478C223.743 36.022 223.281 35.392 223.017 34.588C222.801 33.94 222.693 33.208 222.693 32.392C222.693 31.54 222.795 30.82 222.999 30.232C223.263 29.44 223.725 28.822 224.385 28.378C225.045 27.922 225.831 27.694 226.743 27.694C227.607 27.694 228.357 27.922 228.993 28.378C229.641 28.822 230.103 29.434 230.379 30.214C230.595 30.826 230.703 31.546 230.703 32.374C230.703 33.214 230.595 33.952 230.379 34.588C230.115 35.392 229.659 36.022 229.011 36.478C228.363 36.922 227.601 37.144 226.725 37.144ZM226.725 35.65C227.205 35.65 227.625 35.518 227.985 35.254C228.345 34.978 228.603 34.594 228.759 34.102C228.891 33.646 228.957 33.082 228.957 32.41C228.957 31.738 228.897 31.18 228.777 30.736C228.621 30.244 228.363 29.866 228.003 29.602C227.643 29.326 227.205 29.188 226.689 29.188C226.197 29.188 225.771 29.326 225.411 29.602C225.051 29.866 224.793 30.244 224.637 30.736C224.505 31.156 224.439 31.714 224.439 32.41C224.439 33.106 224.505 33.67 224.637 34.102C224.781 34.594 225.033 34.978 225.393 35.254C225.765 35.518 226.209 35.65 226.725 35.65ZM234.801 30.808C234.465 30.808 234.189 30.7 233.973 30.484C233.757 30.268 233.649 29.992 233.649 29.656C233.649 29.32 233.757 29.044 233.973 28.828C234.189 28.612 234.465 28.504 234.801 28.504C235.137 28.504 235.413 28.612 235.629 28.828C235.845 29.044 235.953 29.32 235.953 29.656C235.953 29.992 235.845 30.268 235.629 30.484C235.413 30.7 235.137 30.808 234.801 30.808ZM234.801 36.802C234.465 36.802 234.189 36.694 233.973 36.478C233.757 36.262 233.649 35.986 233.649 35.65C233.649 35.314 233.757 35.038 233.973 34.822C234.189 34.606 234.465 34.498 234.801 34.498C235.137 34.498 235.413 34.606 235.629 34.822C235.845 35.038 235.953 35.314 235.953 35.65C235.953 35.986 235.845 36.262 235.629 36.478C235.413 36.694 235.137 36.802 234.801 36.802Z" fill="white"/>
<path d="M22.2857 21C22.2857 20.2899 22.8614 19.7143 23.5715 19.7143H36.4286C37.1387 19.7143 37.7143 20.2899 37.7143 21C37.7143 21.7101 37.1387 22.2857 36.4286 22.2857H23.5715C22.8614 22.2857 22.2857 21.7101 22.2857 21Z" fill="white"/>
<path d="M23.5715 27.4286C22.8614 27.4286 22.2857 28.0042 22.2857 28.7143C22.2857 29.4244 22.8614 30 23.5715 30H36.4286C37.1387 30 37.7143 29.4244 37.7143 28.7143C37.7143 28.0042 37.1387 27.4286 36.4286 27.4286H23.5715Z" fill="white"/>
<path fill-rule="evenodd" clip-rule="evenodd" d="M40.2857 48C42.416 48 44.1429 46.2731 44.1429 44.1429V21C44.1429 16.0294 40.1135 12 35.1429 12H19.7143C17.5841 12 15.8572 13.7269 15.8572 15.8571V44.1429C15.8572 46.2731 17.5841 48 19.7143 48H26.1429V40.2857C26.1429 38.8656 27.2942 37.7143 28.7143 37.7143H31.2857C32.7059 37.7143 33.8572 38.8656 33.8572 40.2857V48H40.2857ZM35.1429 14.5714H19.7143C19.0042 14.5714 18.4286 15.1471 18.4286 15.8571V44.1429C18.4286 44.8529 19.0042 45.4286 19.7143 45.4286H23.5715V40.2857C23.5715 37.4454 25.874 35.1429 28.7143 35.1429H31.2857C34.1261 35.1429 36.4286 37.4454 36.4286 40.2857V45.4286H40.2857C40.9958 45.4286 41.5715 44.8529 41.5715 44.1429V21C41.5715 17.4496 38.6933 14.5714 35.1429 14.5714Z" fill="white"/>
</svg>
