<svg width="276" height="60" viewBox="0 0 276 60" fill="none" xmlns="http://www.w3.org/2000/svg">
<path d="M0 8C0 3.58172 3.58172 0 8 0H223.021L267.388 23.4484C271.846 25.8046 273.039 31.6479 269.861 35.5631L250.026 60H7.99999C3.58171 60 0 56.4183 0 52V8Z" fill="#FD6C98"/>
<path d="M0 8C0 3.58172 3.58172 0 8 0H221.477H257.15C262.681 0 266.544 5.47982 264.684 10.6896L247.081 60H7.99999C3.58171 60 0 56.4183 0 52V8Z" fill="#020247"/>
<path d="M76.846 25.714C76.846 25.834 76.786 25.894 76.666 25.894H70.276C70.228 25.894 70.204 25.918 70.204 25.966V29.836C70.204 29.884 70.228 29.908 70.276 29.908H74.668C74.788 29.908 74.848 29.968 74.848 30.088V31.222C74.848 31.342 74.788 31.402 74.668 31.402H70.276C70.228 31.402 70.204 31.426 70.204 31.474V35.434C70.204 35.482 70.228 35.506 70.276 35.506H76.666C76.786 35.506 76.846 35.566 76.846 35.686V36.82C76.846 36.94 76.786 37 76.666 37H68.656C68.536 37 68.476 36.94 68.476 36.82V24.58C68.476 24.46 68.536 24.4 68.656 24.4H76.666C76.786 24.4 76.846 24.46 76.846 24.58V25.714ZM84.7058 24.58C84.7058 24.46 84.7658 24.4 84.8858 24.4H86.2538C86.3738 24.4 86.4338 24.46 86.4338 24.58V36.82C86.4338 36.94 86.3738 37 86.2538 37H84.8858C84.7658 37 84.7058 36.94 84.7058 36.82V36.226C84.7058 36.202 84.6938 36.184 84.6698 36.172C84.6578 36.16 84.6398 36.166 84.6158 36.19C84.3518 36.49 84.0398 36.724 83.6798 36.892C83.3198 37.06 82.9298 37.144 82.5098 37.144C81.6458 37.144 80.9258 36.934 80.3498 36.514C79.7858 36.082 79.3718 35.476 79.1078 34.696C78.8798 34.06 78.7658 33.292 78.7658 32.392C78.7658 31.552 78.8618 30.826 79.0538 30.214C79.3058 29.422 79.7198 28.804 80.2958 28.36C80.8718 27.916 81.6098 27.694 82.5098 27.694C82.9178 27.694 83.3018 27.778 83.6618 27.946C84.0338 28.102 84.3518 28.33 84.6158 28.63C84.6398 28.654 84.6578 28.66 84.6698 28.648C84.6938 28.636 84.7058 28.618 84.7058 28.594V24.58ZM84.2558 34.678C84.5318 34.174 84.6698 33.418 84.6698 32.41C84.6698 31.402 84.5198 30.634 84.2198 30.106C83.8718 29.494 83.3618 29.188 82.6898 29.188C81.9698 29.188 81.4358 29.476 81.0878 30.052C80.7038 30.652 80.5118 31.444 80.5118 32.428C80.5118 33.352 80.6618 34.096 80.9618 34.66C81.3098 35.32 81.8798 35.65 82.6718 35.65C83.3678 35.65 83.8958 35.326 84.2558 34.678ZM90.011 26.398C89.675 26.398 89.399 26.29 89.183 26.074C88.967 25.858 88.859 25.582 88.859 25.246C88.859 24.91 88.967 24.634 89.183 24.418C89.399 24.202 89.675 24.094 90.011 24.094C90.347 24.094 90.623 24.202 90.839 24.418C91.055 24.634 91.163 24.91 91.163 25.246C91.163 25.582 91.055 25.858 90.839 26.074C90.623 26.29 90.347 26.398 90.011 26.398ZM89.291 36.982C89.171 36.982 89.111 36.922 89.111 36.802V28.018C89.111 27.898 89.171 27.838 89.291 27.838H90.659C90.779 27.838 90.839 27.898 90.839 28.018V36.802C90.839 36.922 90.779 36.982 90.659 36.982H89.291ZM97.5869 25.912C96.9869 25.912 96.5789 26.026 96.3629 26.254C96.1469 26.482 96.0389 26.914 96.0389 27.55V27.766C96.0389 27.814 96.0629 27.838 96.1109 27.838H98.0009C98.1209 27.838 98.1809 27.898 98.1809 28.018V29.242C98.1809 29.362 98.1209 29.422 98.0009 29.422H96.1109C96.0629 29.422 96.0389 29.446 96.0389 29.494V36.82C96.0389 36.94 95.9789 37 95.8589 37H94.4909C94.3709 37 94.3109 36.94 94.3109 36.82V29.494C94.3109 29.446 94.2869 29.422 94.2389 29.422H93.0329C92.9129 29.422 92.8529 29.362 92.8529 29.242V28.018C92.8529 27.898 92.9129 27.838 93.0329 27.838H94.2389C94.2869 27.838 94.3109 27.814 94.3109 27.766V27.442C94.3109 26.65 94.4009 26.038 94.5809 25.606C94.7729 25.174 95.0909 24.868 95.5349 24.688C95.9789 24.496 96.6029 24.4 97.4069 24.4H98.0189C98.1389 24.4 98.1989 24.46 98.1989 24.58V25.732C98.1989 25.852 98.1389 25.912 98.0189 25.912H97.5869ZM101.205 26.398C100.869 26.398 100.593 26.29 100.377 26.074C100.161 25.858 100.053 25.582 100.053 25.246C100.053 24.91 100.161 24.634 100.377 24.418C100.593 24.202 100.869 24.094 101.205 24.094C101.541 24.094 101.817 24.202 102.033 24.418C102.249 24.634 102.357 24.91 102.357 25.246C102.357 25.582 102.249 25.858 102.033 26.074C101.817 26.29 101.541 26.398 101.205 26.398ZM100.485 36.982C100.365 36.982 100.305 36.922 100.305 36.802V28.018C100.305 27.898 100.365 27.838 100.485 27.838H101.853C101.973 27.838 102.033 27.898 102.033 28.018V36.802C102.033 36.922 101.973 36.982 101.853 36.982H100.485ZM108.424 37.144C107.512 37.144 106.732 36.916 106.084 36.46C105.436 35.992 104.992 35.362 104.752 34.57C104.572 34.018 104.482 33.292 104.482 32.392C104.482 31.564 104.572 30.838 104.752 30.214C104.992 29.446 105.436 28.834 106.084 28.378C106.744 27.922 107.524 27.694 108.424 27.694C109.324 27.694 110.11 27.922 110.782 28.378C111.454 28.834 111.892 29.41 112.096 30.106C112.168 30.298 112.216 30.496 112.24 30.7C112.24 30.796 112.186 30.856 112.078 30.88L110.728 31.078H110.692C110.608 31.078 110.548 31.024 110.512 30.916L110.458 30.628C110.362 30.22 110.128 29.878 109.756 29.602C109.384 29.326 108.934 29.188 108.406 29.188C107.89 29.188 107.452 29.326 107.092 29.602C106.732 29.878 106.498 30.244 106.39 30.7C106.282 31.132 106.228 31.702 106.228 32.41C106.228 33.106 106.282 33.67 106.39 34.102C106.51 34.582 106.744 34.96 107.092 35.236C107.452 35.512 107.89 35.65 108.406 35.65C108.934 35.65 109.384 35.512 109.756 35.236C110.14 34.96 110.38 34.6 110.476 34.156C110.488 34.144 110.488 34.132 110.476 34.12C110.476 34.096 110.482 34.078 110.494 34.066V33.994C110.53 33.898 110.596 33.862 110.692 33.886L112.042 34.102C112.138 34.126 112.186 34.174 112.186 34.246V34.318C112.186 34.426 112.156 34.558 112.096 34.714C111.892 35.446 111.454 36.034 110.782 36.478C110.11 36.922 109.324 37.144 108.424 37.144ZM115.271 26.398C114.935 26.398 114.659 26.29 114.443 26.074C114.227 25.858 114.119 25.582 114.119 25.246C114.119 24.91 114.227 24.634 114.443 24.418C114.659 24.202 114.935 24.094 115.271 24.094C115.607 24.094 115.883 24.202 116.099 24.418C116.315 24.634 116.423 24.91 116.423 25.246C116.423 25.582 116.315 25.858 116.099 26.074C115.883 26.29 115.607 26.398 115.271 26.398ZM114.551 36.982C114.431 36.982 114.371 36.922 114.371 36.802V28.018C114.371 27.898 114.431 27.838 114.551 27.838H115.919C116.039 27.838 116.099 27.898 116.099 28.018V36.802C116.099 36.922 116.039 36.982 115.919 36.982H114.551ZM122.559 37.144C121.671 37.144 120.897 36.922 120.237 36.478C119.577 36.022 119.115 35.392 118.851 34.588C118.635 33.94 118.527 33.208 118.527 32.392C118.527 31.54 118.629 30.82 118.833 30.232C119.097 29.44 119.559 28.822 120.219 28.378C120.879 27.922 121.665 27.694 122.577 27.694C123.441 27.694 124.191 27.922 124.827 28.378C125.475 28.822 125.937 29.434 126.213 30.214C126.429 30.826 126.537 31.546 126.537 32.374C126.537 33.214 126.429 33.952 126.213 34.588C125.949 35.392 125.493 36.022 124.845 36.478C124.197 36.922 123.435 37.144 122.559 37.144ZM122.559 35.65C123.039 35.65 123.459 35.518 123.819 35.254C124.179 34.978 124.437 34.594 124.593 34.102C124.725 33.646 124.791 33.082 124.791 32.41C124.791 31.738 124.731 31.18 124.611 30.736C124.455 30.244 124.197 29.866 123.837 29.602C123.477 29.326 123.039 29.188 122.523 29.188C122.031 29.188 121.605 29.326 121.245 29.602C120.885 29.866 120.627 30.244 120.471 30.736C120.339 31.156 120.273 31.714 120.273 32.41C120.273 33.106 120.339 33.67 120.471 34.102C120.615 34.594 120.867 34.978 121.227 35.254C121.599 35.518 122.043 35.65 122.559 35.65ZM135.751 27.694C136.483 27.694 137.119 27.826 137.659 28.09C138.211 28.342 138.631 28.702 138.919 29.17C139.219 29.626 139.369 30.148 139.369 30.736V36.82C139.369 36.94 139.309 37 139.189 37H137.821C137.701 37 137.641 36.94 137.641 36.82V36.172C137.641 36.112 137.611 36.1 137.551 36.136C137.239 36.46 136.855 36.712 136.399 36.892C135.955 37.06 135.457 37.144 134.905 37.144C134.017 37.144 133.279 36.922 132.691 36.478C132.115 36.022 131.827 35.338 131.827 34.426C131.827 33.49 132.151 32.758 132.799 32.23C133.459 31.69 134.377 31.42 135.553 31.42H137.569C137.617 31.42 137.641 31.396 137.641 31.348V30.862C137.641 30.334 137.485 29.926 137.173 29.638C136.873 29.338 136.411 29.188 135.787 29.188C135.283 29.188 134.869 29.29 134.545 29.494C134.233 29.686 134.041 29.95 133.969 30.286C133.933 30.406 133.861 30.46 133.753 30.448L132.295 30.25C132.175 30.226 132.121 30.178 132.133 30.106C132.229 29.398 132.607 28.822 133.267 28.378C133.927 27.922 134.755 27.694 135.751 27.694ZM135.283 35.686C135.919 35.686 136.471 35.518 136.939 35.182C137.407 34.846 137.641 34.42 137.641 33.904V32.842C137.641 32.794 137.617 32.77 137.569 32.77H135.877C135.169 32.77 134.605 32.908 134.185 33.184C133.765 33.46 133.555 33.844 133.555 34.336C133.555 34.78 133.711 35.116 134.023 35.344C134.347 35.572 134.767 35.686 135.283 35.686ZM152.739 30.142C152.967 30.79 153.081 31.558 153.081 32.446C153.081 33.286 152.985 34.012 152.793 34.624C152.541 35.428 152.127 36.052 151.551 36.496C150.975 36.928 150.237 37.144 149.337 37.144C148.929 37.144 148.539 37.066 148.167 36.91C147.807 36.742 147.495 36.508 147.231 36.208C147.207 36.184 147.183 36.178 147.159 36.19C147.147 36.202 147.141 36.22 147.141 36.244V40.258C147.141 40.378 147.081 40.438 146.961 40.438H145.593C145.473 40.438 145.413 40.378 145.413 40.258V28.018C145.413 27.898 145.473 27.838 145.593 27.838H146.961C147.081 27.838 147.141 27.898 147.141 28.018V28.612C147.141 28.636 147.147 28.654 147.159 28.666C147.183 28.678 147.207 28.672 147.231 28.648C147.495 28.348 147.807 28.114 148.167 27.946C148.527 27.778 148.917 27.694 149.337 27.694C150.201 27.694 150.915 27.91 151.479 28.342C152.055 28.762 152.475 29.362 152.739 30.142ZM150.759 34.786C151.143 34.21 151.335 33.418 151.335 32.41C151.335 31.486 151.185 30.742 150.885 30.178C150.537 29.518 149.967 29.188 149.175 29.188C148.479 29.188 147.951 29.512 147.591 30.16C147.303 30.676 147.159 31.432 147.159 32.428C147.159 33.436 147.315 34.204 147.627 34.732C147.975 35.344 148.485 35.65 149.157 35.65C149.877 35.65 150.411 35.362 150.759 34.786ZM158.981 37.144C158.093 37.144 157.319 36.922 156.659 36.478C155.999 36.022 155.537 35.392 155.273 34.588C155.057 33.94 154.949 33.208 154.949 32.392C154.949 31.54 155.051 30.82 155.255 30.232C155.519 29.44 155.981 28.822 156.641 28.378C157.301 27.922 158.087 27.694 158.999 27.694C159.863 27.694 160.613 27.922 161.249 28.378C161.897 28.822 162.359 29.434 162.635 30.214C162.851 30.826 162.959 31.546 162.959 32.374C162.959 33.214 162.851 33.952 162.635 34.588C162.371 35.392 161.915 36.022 161.267 36.478C160.619 36.922 159.857 37.144 158.981 37.144ZM158.981 35.65C159.461 35.65 159.881 35.518 160.241 35.254C160.601 34.978 160.859 34.594 161.015 34.102C161.147 33.646 161.213 33.082 161.213 32.41C161.213 31.738 161.153 31.18 161.033 30.736C160.877 30.244 160.619 29.866 160.259 29.602C159.899 29.326 159.461 29.188 158.945 29.188C158.453 29.188 158.027 29.326 157.667 29.602C157.307 29.866 157.049 30.244 156.893 30.736C156.761 31.156 156.695 31.714 156.695 32.41C156.695 33.106 156.761 33.67 156.893 34.102C157.037 34.594 157.289 34.978 157.649 35.254C158.021 35.518 158.465 35.65 158.981 35.65ZM168.443 37.108C167.723 37.108 167.087 37 166.535 36.784C165.995 36.568 165.575 36.274 165.275 35.902C164.975 35.518 164.825 35.098 164.825 34.642V34.444C164.825 34.324 164.885 34.264 165.005 34.264H166.301C166.421 34.264 166.481 34.324 166.481 34.444V34.534C166.481 34.87 166.661 35.164 167.021 35.416C167.393 35.668 167.861 35.794 168.425 35.794C168.965 35.794 169.403 35.68 169.739 35.452C170.075 35.212 170.243 34.912 170.243 34.552C170.243 34.204 170.087 33.946 169.775 33.778C169.463 33.598 168.959 33.412 168.263 33.22C167.579 33.028 167.003 32.836 166.535 32.644C166.079 32.44 165.689 32.158 165.365 31.798C165.053 31.426 164.897 30.952 164.897 30.376C164.897 29.572 165.209 28.936 165.833 28.468C166.469 27.988 167.309 27.748 168.353 27.748C169.049 27.748 169.661 27.862 170.189 28.09C170.729 28.306 171.143 28.612 171.431 29.008C171.719 29.404 171.863 29.848 171.863 30.34V30.394C171.863 30.514 171.803 30.574 171.683 30.574H170.423C170.303 30.574 170.243 30.514 170.243 30.394V30.34C170.243 29.992 170.069 29.704 169.721 29.476C169.385 29.236 168.923 29.116 168.335 29.116C167.807 29.116 167.375 29.218 167.039 29.422C166.715 29.626 166.553 29.902 166.553 30.25C166.553 30.598 166.709 30.862 167.021 31.042C167.345 31.222 167.861 31.414 168.569 31.618C169.265 31.81 169.841 32.002 170.297 32.194C170.765 32.374 171.161 32.65 171.485 33.022C171.809 33.382 171.971 33.856 171.971 34.444C171.971 35.26 171.647 35.908 170.999 36.388C170.363 36.868 169.511 37.108 168.443 37.108ZM178.493 29.08C178.493 29.2 178.433 29.26 178.313 29.26H176.369C176.321 29.26 176.297 29.284 176.297 29.332V34.102C176.297 34.606 176.411 34.972 176.639 35.2C176.867 35.416 177.221 35.524 177.701 35.524H178.223C178.343 35.524 178.403 35.584 178.403 35.704V36.82C178.403 36.94 178.343 37 178.223 37C177.839 37.024 177.563 37.036 177.395 37.036C176.483 37.036 175.793 36.874 175.325 36.55C174.869 36.214 174.641 35.602 174.641 34.714V29.332C174.641 29.284 174.617 29.26 174.569 29.26H173.471C173.351 29.26 173.291 29.2 173.291 29.08V28.018C173.291 27.898 173.351 27.838 173.471 27.838H174.569C174.617 27.838 174.641 27.814 174.641 27.766V25.642C174.641 25.522 174.701 25.462 174.821 25.462H176.117C176.237 25.462 176.297 25.522 176.297 25.642V27.766C176.297 27.814 176.321 27.838 176.369 27.838H178.313C178.433 27.838 178.493 27.898 178.493 28.018V29.08ZM186.073 28.018C186.073 27.898 186.133 27.838 186.253 27.838H187.603C187.723 27.838 187.783 27.898 187.783 28.018V36.82C187.783 36.94 187.723 37 187.603 37H186.253C186.133 37 186.073 36.94 186.073 36.82V36.154C186.073 36.13 186.061 36.118 186.037 36.118C186.025 36.106 186.007 36.112 185.983 36.136C185.503 36.796 184.765 37.126 183.769 37.126C183.181 37.126 182.635 37.012 182.131 36.784C181.639 36.556 181.243 36.22 180.943 35.776C180.643 35.332 180.493 34.792 180.493 34.156V28.018C180.493 27.898 180.553 27.838 180.673 27.838H182.023C182.143 27.838 182.203 27.898 182.203 28.018V33.616C182.203 34.24 182.365 34.732 182.689 35.092C183.025 35.452 183.493 35.632 184.093 35.632C184.693 35.632 185.173 35.452 185.533 35.092C185.893 34.72 186.073 34.228 186.073 33.616V28.018ZM190.485 37C190.365 37 190.305 36.94 190.305 36.82V24.58C190.305 24.46 190.365 24.4 190.485 24.4H191.853C191.973 24.4 192.033 24.46 192.033 24.58V36.82C192.033 36.94 191.973 37 191.853 37H190.485ZM197.889 27.694C198.621 27.694 199.257 27.826 199.797 28.09C200.349 28.342 200.769 28.702 201.057 29.17C201.357 29.626 201.507 30.148 201.507 30.736V36.82C201.507 36.94 201.447 37 201.327 37H199.959C199.839 37 199.779 36.94 199.779 36.82V36.172C199.779 36.112 199.749 36.1 199.689 36.136C199.377 36.46 198.993 36.712 198.537 36.892C198.093 37.06 197.595 37.144 197.043 37.144C196.155 37.144 195.417 36.922 194.829 36.478C194.253 36.022 193.965 35.338 193.965 34.426C193.965 33.49 194.289 32.758 194.937 32.23C195.597 31.69 196.515 31.42 197.691 31.42H199.707C199.755 31.42 199.779 31.396 199.779 31.348V30.862C199.779 30.334 199.623 29.926 199.311 29.638C199.011 29.338 198.549 29.188 197.925 29.188C197.421 29.188 197.007 29.29 196.683 29.494C196.371 29.686 196.179 29.95 196.107 30.286C196.071 30.406 195.999 30.46 195.891 30.448L194.433 30.25C194.313 30.226 194.259 30.178 194.271 30.106C194.367 29.398 194.745 28.822 195.405 28.378C196.065 27.922 196.893 27.694 197.889 27.694ZM197.421 35.686C198.057 35.686 198.609 35.518 199.077 35.182C199.545 34.846 199.779 34.42 199.779 33.904V32.842C199.779 32.794 199.755 32.77 199.707 32.77H198.015C197.307 32.77 196.743 32.908 196.323 33.184C195.903 33.46 195.693 33.844 195.693 34.336C195.693 34.78 195.849 35.116 196.161 35.344C196.485 35.572 196.905 35.686 197.421 35.686ZM207.854 27.748C208.238 27.748 208.586 27.826 208.898 27.982C208.982 28.018 209.012 28.09 208.988 28.198L208.7 29.548C208.688 29.656 208.616 29.692 208.484 29.656C208.28 29.572 208.04 29.53 207.764 29.53L207.512 29.548C206.948 29.572 206.48 29.77 206.108 30.142C205.748 30.502 205.568 30.976 205.568 31.564V36.82C205.568 36.94 205.508 37 205.388 37H204.02C203.9 37 203.84 36.94 203.84 36.82V28.018C203.84 27.898 203.9 27.838 204.02 27.838H205.388C205.508 27.838 205.568 27.898 205.568 28.018V28.972C205.568 29.008 205.574 29.032 205.586 29.044C205.61 29.044 205.628 29.032 205.64 29.008C206.18 28.168 206.918 27.748 207.854 27.748ZM212.356 30.808C212.02 30.808 211.744 30.7 211.528 30.484C211.312 30.268 211.204 29.992 211.204 29.656C211.204 29.32 211.312 29.044 211.528 28.828C211.744 28.612 212.02 28.504 212.356 28.504C212.692 28.504 212.968 28.612 213.184 28.828C213.4 29.044 213.508 29.32 213.508 29.656C213.508 29.992 213.4 30.268 213.184 30.484C212.968 30.7 212.692 30.808 212.356 30.808ZM212.356 36.802C212.02 36.802 211.744 36.694 211.528 36.478C211.312 36.262 211.204 35.986 211.204 35.65C211.204 35.314 211.312 35.038 211.528 34.822C211.744 34.606 212.02 34.498 212.356 34.498C212.692 34.498 212.968 34.606 213.184 34.822C213.4 35.038 213.508 35.314 213.508 35.65C213.508 35.986 213.4 36.262 213.184 36.478C212.968 36.694 212.692 36.802 212.356 36.802Z" fill="white"/>
<path d="M30.2857 21C30.2857 20.2899 30.8614 19.7143 31.5715 19.7143H44.4286C45.1387 19.7143 45.7143 20.2899 45.7143 21C45.7143 21.7101 45.1387 22.2857 44.4286 22.2857H31.5715C30.8614 22.2857 30.2857 21.7101 30.2857 21Z" fill="white"/>
<path d="M31.5715 27.4286C30.8614 27.4286 30.2857 28.0042 30.2857 28.7143C30.2857 29.4244 30.8614 30 31.5715 30H44.4286C45.1387 30 45.7143 29.4244 45.7143 28.7143C45.7143 28.0042 45.1387 27.4286 44.4286 27.4286H31.5715Z" fill="white"/>
<path fill-rule="evenodd" clip-rule="evenodd" d="M48.2857 48C50.416 48 52.1429 46.2731 52.1429 44.1429V21C52.1429 16.0294 48.1135 12 43.1429 12H27.7143C25.5841 12 23.8572 13.7269 23.8572 15.8571V44.1429C23.8572 46.2731 25.5841 48 27.7143 48H34.1429V40.2857C34.1429 38.8656 35.2942 37.7143 36.7143 37.7143H39.2857C40.7059 37.7143 41.8572 38.8656 41.8572 40.2857V48H48.2857ZM43.1429 14.5714H27.7143C27.0042 14.5714 26.4286 15.1471 26.4286 15.8571V44.1429C26.4286 44.8529 27.0042 45.4286 27.7143 45.4286H31.5715V40.2857C31.5715 37.4454 33.874 35.1429 36.7143 35.1429H39.2857C42.1261 35.1429 44.4286 37.4454 44.4286 40.2857V45.4286H48.2857C48.9958 45.4286 49.5715 44.8529 49.5715 44.1429V21C49.5715 17.4496 46.6933 14.5714 43.1429 14.5714Z" fill="white"/>
</svg>
