<svg width="276" height="60" viewBox="0 0 276 60" fill="none" xmlns="http://www.w3.org/2000/svg">
<path d="M0 8C0 3.58172 3.58172 0 8 0H223.021L267.388 23.4484C271.846 25.8046 273.039 31.6479 269.861 35.5631L250.026 60H7.99999C3.58171 60 0 56.4183 0 52V8Z" fill="#42E8B4"/>
<path d="M0 8C0 3.58172 3.58172 0 8 0H221.477H257.15C262.681 0 266.544 5.47982 264.684 10.6896L247.081 60H7.99999C3.58171 60 0 56.4183 0 52V8Z" fill="#020247"/>
<path d="M76.486 24.4C76.606 24.4 76.666 24.46 76.666 24.58V25.732C76.666 25.852 76.606 25.912 76.486 25.912H73.03C72.982 25.912 72.958 25.936 72.958 25.984V36.82C72.958 36.94 72.898 37 72.778 37H71.41C71.29 37 71.23 36.94 71.23 36.82V25.984C71.23 25.936 71.206 25.912 71.158 25.912H67.864C67.744 25.912 67.684 25.852 67.684 25.732V24.58C67.684 24.46 67.744 24.4 67.864 24.4H76.486ZM79.4466 26.398C79.1106 26.398 78.8346 26.29 78.6186 26.074C78.4026 25.858 78.2946 25.582 78.2946 25.246C78.2946 24.91 78.4026 24.634 78.6186 24.418C78.8346 24.202 79.1106 24.094 79.4466 24.094C79.7826 24.094 80.0586 24.202 80.2746 24.418C80.4906 24.634 80.5986 24.91 80.5986 25.246C80.5986 25.582 80.4906 25.858 80.2746 26.074C80.0586 26.29 79.7826 26.398 79.4466 26.398ZM78.7266 36.982C78.6066 36.982 78.5466 36.922 78.5466 36.802V28.018C78.5466 27.898 78.6066 27.838 78.7266 27.838H80.0946C80.2146 27.838 80.2746 27.898 80.2746 28.018V36.802C80.2746 36.922 80.2146 36.982 80.0946 36.982H78.7266ZM90.4245 30.142C90.6525 30.79 90.7665 31.558 90.7665 32.446C90.7665 33.286 90.6705 34.012 90.4785 34.624C90.2265 35.428 89.8125 36.052 89.2365 36.496C88.6605 36.928 87.9225 37.144 87.0225 37.144C86.6145 37.144 86.2245 37.066 85.8525 36.91C85.4925 36.742 85.1805 36.508 84.9165 36.208C84.8925 36.184 84.8685 36.178 84.8445 36.19C84.8325 36.202 84.8265 36.22 84.8265 36.244V40.258C84.8265 40.378 84.7665 40.438 84.6465 40.438H83.2785C83.1585 40.438 83.0985 40.378 83.0985 40.258V28.018C83.0985 27.898 83.1585 27.838 83.2785 27.838H84.6465C84.7665 27.838 84.8265 27.898 84.8265 28.018V28.612C84.8265 28.636 84.8325 28.654 84.8445 28.666C84.8685 28.678 84.8925 28.672 84.9165 28.648C85.1805 28.348 85.4925 28.114 85.8525 27.946C86.2125 27.778 86.6025 27.694 87.0225 27.694C87.8865 27.694 88.6005 27.91 89.1645 28.342C89.7405 28.762 90.1605 29.362 90.4245 30.142ZM88.4445 34.786C88.8285 34.21 89.0205 33.418 89.0205 32.41C89.0205 31.486 88.8705 30.742 88.5705 30.178C88.2225 29.518 87.6525 29.188 86.8605 29.188C86.1645 29.188 85.6365 29.512 85.2765 30.16C84.9885 30.676 84.8445 31.432 84.8445 32.428C84.8445 33.436 85.0005 34.204 85.3125 34.732C85.6605 35.344 86.1705 35.65 86.8425 35.65C87.5625 35.65 88.0965 35.362 88.4445 34.786ZM96.6661 37.144C95.7781 37.144 95.0041 36.922 94.3441 36.478C93.6841 36.022 93.2221 35.392 92.9581 34.588C92.7421 33.94 92.6341 33.208 92.6341 32.392C92.6341 31.54 92.7361 30.82 92.9401 30.232C93.2041 29.44 93.6661 28.822 94.3261 28.378C94.9861 27.922 95.7721 27.694 96.6841 27.694C97.5481 27.694 98.2981 27.922 98.9341 28.378C99.5821 28.822 100.044 29.434 100.32 30.214C100.536 30.826 100.644 31.546 100.644 32.374C100.644 33.214 100.536 33.952 100.32 34.588C100.056 35.392 99.6001 36.022 98.9521 36.478C98.3041 36.922 97.5421 37.144 96.6661 37.144ZM96.6661 35.65C97.1461 35.65 97.5661 35.518 97.9261 35.254C98.2861 34.978 98.5441 34.594 98.7001 34.102C98.8321 33.646 98.8981 33.082 98.8981 32.41C98.8981 31.738 98.8381 31.18 98.7181 30.736C98.5621 30.244 98.3041 29.866 97.9441 29.602C97.5841 29.326 97.1461 29.188 96.6301 29.188C96.1381 29.188 95.7121 29.326 95.3521 29.602C94.9921 29.866 94.7341 30.244 94.5781 30.736C94.4461 31.156 94.3801 31.714 94.3801 32.41C94.3801 33.106 94.4461 33.67 94.5781 34.102C94.7221 34.594 94.9741 34.978 95.3341 35.254C95.7061 35.518 96.1501 35.65 96.6661 35.65ZM113.926 31.276C113.974 31.768 113.992 32.32 113.98 32.932C113.98 33.052 113.92 33.112 113.8 33.112H108.058C108.01 33.112 107.986 33.136 107.986 33.184C107.986 33.592 108.022 33.904 108.094 34.12C108.226 34.6 108.49 34.978 108.886 35.254C109.294 35.518 109.804 35.65 110.416 35.65C111.304 35.65 111.988 35.284 112.468 34.552C112.528 34.432 112.606 34.414 112.702 34.498L113.728 35.182C113.812 35.254 113.83 35.332 113.782 35.416C113.446 35.956 112.966 36.382 112.342 36.694C111.73 37.006 111.034 37.162 110.254 37.162C109.378 37.162 108.64 36.97 108.04 36.586C107.44 36.202 106.99 35.656 106.69 34.948C106.402 34.24 106.258 33.382 106.258 32.374C106.258 31.498 106.324 30.832 106.456 30.376C106.672 29.548 107.104 28.894 107.752 28.414C108.4 27.934 109.186 27.694 110.11 27.694C111.322 27.694 112.228 28 112.828 28.612C113.428 29.212 113.794 30.1 113.926 31.276ZM110.11 29.188C109.594 29.188 109.168 29.32 108.832 29.584C108.496 29.836 108.268 30.178 108.148 30.61C108.064 30.874 108.01 31.21 107.986 31.618C107.986 31.666 108.01 31.69 108.058 31.69H112.18C112.228 31.69 112.252 31.666 112.252 31.618C112.228 31.222 112.192 30.928 112.144 30.736C112.024 30.268 111.784 29.896 111.424 29.62C111.076 29.332 110.638 29.188 110.11 29.188ZM119.242 37.108C118.522 37.108 117.886 37 117.334 36.784C116.794 36.568 116.374 36.274 116.074 35.902C115.774 35.518 115.624 35.098 115.624 34.642V34.444C115.624 34.324 115.684 34.264 115.804 34.264H117.1C117.22 34.264 117.28 34.324 117.28 34.444V34.534C117.28 34.87 117.46 35.164 117.82 35.416C118.192 35.668 118.66 35.794 119.224 35.794C119.764 35.794 120.202 35.68 120.538 35.452C120.874 35.212 121.042 34.912 121.042 34.552C121.042 34.204 120.886 33.946 120.574 33.778C120.262 33.598 119.758 33.412 119.062 33.22C118.378 33.028 117.802 32.836 117.334 32.644C116.878 32.44 116.488 32.158 116.164 31.798C115.852 31.426 115.696 30.952 115.696 30.376C115.696 29.572 116.008 28.936 116.632 28.468C117.268 27.988 118.108 27.748 119.152 27.748C119.848 27.748 120.46 27.862 120.988 28.09C121.528 28.306 121.942 28.612 122.23 29.008C122.518 29.404 122.662 29.848 122.662 30.34V30.394C122.662 30.514 122.602 30.574 122.482 30.574H121.222C121.102 30.574 121.042 30.514 121.042 30.394V30.34C121.042 29.992 120.868 29.704 120.52 29.476C120.184 29.236 119.722 29.116 119.134 29.116C118.606 29.116 118.174 29.218 117.838 29.422C117.514 29.626 117.352 29.902 117.352 30.25C117.352 30.598 117.508 30.862 117.82 31.042C118.144 31.222 118.66 31.414 119.368 31.618C120.064 31.81 120.64 32.002 121.096 32.194C121.564 32.374 121.96 32.65 122.284 33.022C122.608 33.382 122.77 33.856 122.77 34.444C122.77 35.26 122.446 35.908 121.798 36.388C121.162 36.868 120.31 37.108 119.242 37.108ZM129.292 29.08C129.292 29.2 129.232 29.26 129.112 29.26H127.168C127.12 29.26 127.096 29.284 127.096 29.332V34.102C127.096 34.606 127.21 34.972 127.438 35.2C127.666 35.416 128.02 35.524 128.5 35.524H129.022C129.142 35.524 129.202 35.584 129.202 35.704V36.82C129.202 36.94 129.142 37 129.022 37C128.638 37.024 128.362 37.036 128.194 37.036C127.282 37.036 126.592 36.874 126.124 36.55C125.668 36.214 125.44 35.602 125.44 34.714V29.332C125.44 29.284 125.416 29.26 125.368 29.26H124.27C124.15 29.26 124.09 29.2 124.09 29.08V28.018C124.09 27.898 124.15 27.838 124.27 27.838H125.368C125.416 27.838 125.44 27.814 125.44 27.766V25.642C125.44 25.522 125.5 25.462 125.62 25.462H126.916C127.036 25.462 127.096 25.522 127.096 25.642V27.766C127.096 27.814 127.12 27.838 127.168 27.838H129.112C129.232 27.838 129.292 27.898 129.292 28.018V29.08ZM134.766 27.694C135.498 27.694 136.134 27.826 136.674 28.09C137.226 28.342 137.646 28.702 137.934 29.17C138.234 29.626 138.384 30.148 138.384 30.736V36.82C138.384 36.94 138.324 37 138.204 37H136.836C136.716 37 136.656 36.94 136.656 36.82V36.172C136.656 36.112 136.626 36.1 136.566 36.136C136.254 36.46 135.87 36.712 135.414 36.892C134.97 37.06 134.472 37.144 133.92 37.144C133.032 37.144 132.294 36.922 131.706 36.478C131.13 36.022 130.842 35.338 130.842 34.426C130.842 33.49 131.166 32.758 131.814 32.23C132.474 31.69 133.392 31.42 134.568 31.42H136.584C136.632 31.42 136.656 31.396 136.656 31.348V30.862C136.656 30.334 136.5 29.926 136.188 29.638C135.888 29.338 135.426 29.188 134.802 29.188C134.298 29.188 133.884 29.29 133.56 29.494C133.248 29.686 133.056 29.95 132.984 30.286C132.948 30.406 132.876 30.46 132.768 30.448L131.31 30.25C131.19 30.226 131.136 30.178 131.148 30.106C131.244 29.398 131.622 28.822 132.282 28.378C132.942 27.922 133.77 27.694 134.766 27.694ZM134.298 35.686C134.934 35.686 135.486 35.518 135.954 35.182C136.422 34.846 136.656 34.42 136.656 33.904V32.842C136.656 32.794 136.632 32.77 136.584 32.77H134.892C134.184 32.77 133.62 32.908 133.2 33.184C132.78 33.46 132.57 33.844 132.57 34.336C132.57 34.78 132.726 35.116 133.038 35.344C133.362 35.572 133.782 35.686 134.298 35.686ZM144.389 37.144C143.477 37.144 142.697 36.916 142.049 36.46C141.401 35.992 140.957 35.362 140.717 34.57C140.537 34.018 140.447 33.292 140.447 32.392C140.447 31.564 140.537 30.838 140.717 30.214C140.957 29.446 141.401 28.834 142.049 28.378C142.709 27.922 143.489 27.694 144.389 27.694C145.289 27.694 146.075 27.922 146.747 28.378C147.419 28.834 147.857 29.41 148.061 30.106C148.133 30.298 148.181 30.496 148.205 30.7C148.205 30.796 148.151 30.856 148.043 30.88L146.693 31.078H146.657C146.573 31.078 146.513 31.024 146.477 30.916L146.423 30.628C146.327 30.22 146.093 29.878 145.721 29.602C145.349 29.326 144.899 29.188 144.371 29.188C143.855 29.188 143.417 29.326 143.057 29.602C142.697 29.878 142.463 30.244 142.355 30.7C142.247 31.132 142.193 31.702 142.193 32.41C142.193 33.106 142.247 33.67 142.355 34.102C142.475 34.582 142.709 34.96 143.057 35.236C143.417 35.512 143.855 35.65 144.371 35.65C144.899 35.65 145.349 35.512 145.721 35.236C146.105 34.96 146.345 34.6 146.441 34.156C146.453 34.144 146.453 34.132 146.441 34.12C146.441 34.096 146.447 34.078 146.459 34.066V33.994C146.495 33.898 146.561 33.862 146.657 33.886L148.007 34.102C148.103 34.126 148.151 34.174 148.151 34.246V34.318C148.151 34.426 148.121 34.558 148.061 34.714C147.857 35.446 147.419 36.034 146.747 36.478C146.075 36.922 145.289 37.144 144.389 37.144ZM151.236 26.398C150.9 26.398 150.624 26.29 150.408 26.074C150.192 25.858 150.084 25.582 150.084 25.246C150.084 24.91 150.192 24.634 150.408 24.418C150.624 24.202 150.9 24.094 151.236 24.094C151.572 24.094 151.848 24.202 152.064 24.418C152.28 24.634 152.388 24.91 152.388 25.246C152.388 25.582 152.28 25.858 152.064 26.074C151.848 26.29 151.572 26.398 151.236 26.398ZM150.516 36.982C150.396 36.982 150.336 36.922 150.336 36.802V28.018C150.336 27.898 150.396 27.838 150.516 27.838H151.884C152.004 27.838 152.064 27.898 152.064 28.018V36.802C152.064 36.922 152.004 36.982 151.884 36.982H150.516ZM158.524 37.144C157.636 37.144 156.862 36.922 156.202 36.478C155.542 36.022 155.08 35.392 154.816 34.588C154.6 33.94 154.492 33.208 154.492 32.392C154.492 31.54 154.594 30.82 154.798 30.232C155.062 29.44 155.524 28.822 156.184 28.378C156.844 27.922 157.63 27.694 158.542 27.694C159.406 27.694 160.156 27.922 160.792 28.378C161.44 28.822 161.902 29.434 162.178 30.214C162.394 30.826 162.502 31.546 162.502 32.374C162.502 33.214 162.394 33.952 162.178 34.588C161.914 35.392 161.458 36.022 160.81 36.478C160.162 36.922 159.4 37.144 158.524 37.144ZM158.524 35.65C159.004 35.65 159.424 35.518 159.784 35.254C160.144 34.978 160.402 34.594 160.558 34.102C160.69 33.646 160.756 33.082 160.756 32.41C160.756 31.738 160.696 31.18 160.576 30.736C160.42 30.244 160.162 29.866 159.802 29.602C159.442 29.326 159.004 29.188 158.488 29.188C157.996 29.188 157.57 29.326 157.21 29.602C156.85 29.866 156.592 30.244 156.436 30.736C156.304 31.156 156.238 31.714 156.238 32.41C156.238 33.106 156.304 33.67 156.436 34.102C156.58 34.594 156.832 34.978 157.192 35.254C157.564 35.518 158.008 35.65 158.524 35.65ZM168.85 27.712C169.834 27.712 170.614 28 171.19 28.576C171.766 29.14 172.054 29.908 172.054 30.88V36.82C172.054 36.94 171.994 37 171.874 37H170.506C170.386 37 170.326 36.94 170.326 36.82V31.222C170.326 30.622 170.152 30.136 169.804 29.764C169.456 29.392 168.994 29.206 168.418 29.206C167.854 29.206 167.392 29.392 167.032 29.764C166.672 30.136 166.492 30.616 166.492 31.204V36.82C166.492 36.94 166.432 37 166.312 37H164.944C164.824 37 164.764 36.94 164.764 36.82V28.018C164.764 27.898 164.824 27.838 164.944 27.838H166.312C166.432 27.838 166.492 27.898 166.492 28.018V28.666C166.492 28.69 166.498 28.708 166.51 28.72C166.534 28.732 166.552 28.726 166.564 28.702C167.08 28.042 167.842 27.712 168.85 27.712ZM177.868 27.694C178.6 27.694 179.236 27.826 179.776 28.09C180.328 28.342 180.748 28.702 181.036 29.17C181.336 29.626 181.486 30.148 181.486 30.736V36.82C181.486 36.94 181.426 37 181.306 37H179.938C179.818 37 179.758 36.94 179.758 36.82V36.172C179.758 36.112 179.728 36.1 179.668 36.136C179.356 36.46 178.972 36.712 178.516 36.892C178.072 37.06 177.574 37.144 177.022 37.144C176.134 37.144 175.396 36.922 174.808 36.478C174.232 36.022 173.944 35.338 173.944 34.426C173.944 33.49 174.268 32.758 174.916 32.23C175.576 31.69 176.494 31.42 177.67 31.42H179.686C179.734 31.42 179.758 31.396 179.758 31.348V30.862C179.758 30.334 179.602 29.926 179.29 29.638C178.99 29.338 178.528 29.188 177.904 29.188C177.4 29.188 176.986 29.29 176.662 29.494C176.35 29.686 176.158 29.95 176.086 30.286C176.05 30.406 175.978 30.46 175.87 30.448L174.412 30.25C174.292 30.226 174.238 30.178 174.25 30.106C174.346 29.398 174.724 28.822 175.384 28.378C176.044 27.922 176.872 27.694 177.868 27.694ZM177.4 35.686C178.036 35.686 178.588 35.518 179.056 35.182C179.524 34.846 179.758 34.42 179.758 33.904V32.842C179.758 32.794 179.734 32.77 179.686 32.77H177.994C177.286 32.77 176.722 32.908 176.302 33.184C175.882 33.46 175.672 33.844 175.672 34.336C175.672 34.78 175.828 35.116 176.14 35.344C176.464 35.572 176.884 35.686 177.4 35.686ZM193.341 27.712C194.253 27.712 194.973 27.988 195.501 28.54C196.029 29.08 196.293 29.836 196.293 30.808V36.82C196.293 36.94 196.233 37 196.113 37H194.763C194.643 37 194.583 36.94 194.583 36.82V31.168C194.583 30.568 194.415 30.094 194.079 29.746C193.755 29.386 193.317 29.206 192.765 29.206C192.213 29.206 191.763 29.38 191.415 29.728C191.067 30.076 190.893 30.544 190.893 31.132V36.82C190.893 36.94 190.833 37 190.713 37H189.363C189.243 37 189.183 36.94 189.183 36.82V31.168C189.183 30.568 189.015 30.094 188.679 29.746C188.355 29.386 187.917 29.206 187.365 29.206C186.813 29.206 186.369 29.38 186.033 29.728C185.709 30.076 185.547 30.544 185.547 31.132V36.82C185.547 36.94 185.487 37 185.367 37H183.999C183.879 37 183.819 36.94 183.819 36.82V28.018C183.819 27.898 183.879 27.838 183.999 27.838H185.367C185.487 27.838 185.547 27.898 185.547 28.018V28.63C185.547 28.654 185.553 28.672 185.565 28.684C185.589 28.696 185.613 28.69 185.637 28.666C186.165 28.03 186.933 27.712 187.941 27.712C188.553 27.712 189.075 27.832 189.507 28.072C189.939 28.3 190.275 28.642 190.515 29.098C190.551 29.146 190.587 29.146 190.623 29.098C190.911 28.63 191.289 28.282 191.757 28.054C192.237 27.826 192.765 27.712 193.341 27.712ZM199.734 26.398C199.398 26.398 199.122 26.29 198.906 26.074C198.69 25.858 198.582 25.582 198.582 25.246C198.582 24.91 198.69 24.634 198.906 24.418C199.122 24.202 199.398 24.094 199.734 24.094C200.07 24.094 200.346 24.202 200.562 24.418C200.778 24.634 200.886 24.91 200.886 25.246C200.886 25.582 200.778 25.858 200.562 26.074C200.346 26.29 200.07 26.398 199.734 26.398ZM199.014 36.982C198.894 36.982 198.834 36.922 198.834 36.802V28.018C198.834 27.898 198.894 27.838 199.014 27.838H200.382C200.502 27.838 200.562 27.898 200.562 28.018V36.802C200.562 36.922 200.502 36.982 200.382 36.982H199.014ZM210.694 31.276C210.742 31.768 210.76 32.32 210.748 32.932C210.748 33.052 210.688 33.112 210.568 33.112H204.826C204.778 33.112 204.754 33.136 204.754 33.184C204.754 33.592 204.79 33.904 204.862 34.12C204.994 34.6 205.258 34.978 205.654 35.254C206.062 35.518 206.572 35.65 207.184 35.65C208.072 35.65 208.756 35.284 209.236 34.552C209.296 34.432 209.374 34.414 209.47 34.498L210.496 35.182C210.58 35.254 210.598 35.332 210.55 35.416C210.214 35.956 209.734 36.382 209.11 36.694C208.498 37.006 207.802 37.162 207.022 37.162C206.146 37.162 205.408 36.97 204.808 36.586C204.208 36.202 203.758 35.656 203.458 34.948C203.17 34.24 203.026 33.382 203.026 32.374C203.026 31.498 203.092 30.832 203.224 30.376C203.44 29.548 203.872 28.894 204.52 28.414C205.168 27.934 205.954 27.694 206.878 27.694C208.09 27.694 208.996 28 209.596 28.612C210.196 29.212 210.562 30.1 210.694 31.276ZM206.878 29.188C206.362 29.188 205.936 29.32 205.6 29.584C205.264 29.836 205.036 30.178 204.916 30.61C204.832 30.874 204.778 31.21 204.754 31.618C204.754 31.666 204.778 31.69 204.826 31.69H208.948C208.996 31.69 209.02 31.666 209.02 31.618C208.996 31.222 208.96 30.928 208.912 30.736C208.792 30.268 208.552 29.896 208.192 29.62C207.844 29.332 207.406 29.188 206.878 29.188ZM217.014 27.712C217.998 27.712 218.778 28 219.354 28.576C219.93 29.14 220.218 29.908 220.218 30.88V36.82C220.218 36.94 220.158 37 220.038 37H218.67C218.55 37 218.49 36.94 218.49 36.82V31.222C218.49 30.622 218.316 30.136 217.968 29.764C217.62 29.392 217.158 29.206 216.582 29.206C216.018 29.206 215.556 29.392 215.196 29.764C214.836 30.136 214.656 30.616 214.656 31.204V36.82C214.656 36.94 214.596 37 214.476 37H213.108C212.988 37 212.928 36.94 212.928 36.82V28.018C212.928 27.898 212.988 27.838 213.108 27.838H214.476C214.596 27.838 214.656 27.898 214.656 28.018V28.666C214.656 28.69 214.662 28.708 214.674 28.72C214.698 28.732 214.716 28.726 214.728 28.702C215.244 28.042 216.006 27.712 217.014 27.712ZM227.202 29.08C227.202 29.2 227.142 29.26 227.022 29.26H225.078C225.03 29.26 225.006 29.284 225.006 29.332V34.102C225.006 34.606 225.12 34.972 225.348 35.2C225.576 35.416 225.93 35.524 226.41 35.524H226.932C227.052 35.524 227.112 35.584 227.112 35.704V36.82C227.112 36.94 227.052 37 226.932 37C226.548 37.024 226.272 37.036 226.104 37.036C225.192 37.036 224.502 36.874 224.034 36.55C223.578 36.214 223.35 35.602 223.35 34.714V29.332C223.35 29.284 223.326 29.26 223.278 29.26H222.18C222.06 29.26 222 29.2 222 29.08V28.018C222 27.898 222.06 27.838 222.18 27.838H223.278C223.326 27.838 223.35 27.814 223.35 27.766V25.642C223.35 25.522 223.41 25.462 223.53 25.462H224.826C224.946 25.462 225.006 25.522 225.006 25.642V27.766C225.006 27.814 225.03 27.838 225.078 27.838H227.022C227.142 27.838 227.202 27.898 227.202 28.018V29.08ZM232.861 37.144C231.973 37.144 231.199 36.922 230.539 36.478C229.879 36.022 229.417 35.392 229.153 34.588C228.937 33.94 228.829 33.208 228.829 32.392C228.829 31.54 228.931 30.82 229.135 30.232C229.399 29.44 229.861 28.822 230.521 28.378C231.181 27.922 231.967 27.694 232.879 27.694C233.743 27.694 234.493 27.922 235.129 28.378C235.777 28.822 236.239 29.434 236.515 30.214C236.731 30.826 236.839 31.546 236.839 32.374C236.839 33.214 236.731 33.952 236.515 34.588C236.251 35.392 235.795 36.022 235.147 36.478C234.499 36.922 233.737 37.144 232.861 37.144ZM232.861 35.65C233.341 35.65 233.761 35.518 234.121 35.254C234.481 34.978 234.739 34.594 234.895 34.102C235.027 33.646 235.093 33.082 235.093 32.41C235.093 31.738 235.033 31.18 234.913 30.736C234.757 30.244 234.499 29.866 234.139 29.602C233.779 29.326 233.341 29.188 232.825 29.188C232.333 29.188 231.907 29.326 231.547 29.602C231.187 29.866 230.929 30.244 230.773 30.736C230.641 31.156 230.575 31.714 230.575 32.41C230.575 33.106 230.641 33.67 230.773 34.102C230.917 34.594 231.169 34.978 231.529 35.254C231.901 35.518 232.345 35.65 232.861 35.65ZM240.938 30.808C240.602 30.808 240.326 30.7 240.11 30.484C239.894 30.268 239.786 29.992 239.786 29.656C239.786 29.32 239.894 29.044 240.11 28.828C240.326 28.612 240.602 28.504 240.938 28.504C241.274 28.504 241.55 28.612 241.766 28.828C241.982 29.044 242.09 29.32 242.09 29.656C242.09 29.992 241.982 30.268 241.766 30.484C241.55 30.7 241.274 30.808 240.938 30.808ZM240.938 36.802C240.602 36.802 240.326 36.694 240.11 36.478C239.894 36.262 239.786 35.986 239.786 35.65C239.786 35.314 239.894 35.038 240.11 34.822C240.326 34.606 240.602 34.498 240.938 34.498C241.274 34.498 241.55 34.606 241.766 34.822C241.982 35.038 242.09 35.314 242.09 35.65C242.09 35.986 241.982 36.262 241.766 36.478C241.55 36.694 241.274 36.802 240.938 36.802Z" fill="white"/>
<path fill-rule="evenodd" clip-rule="evenodd" d="M20.0224 36.0376H17C15.3431 36.0376 14 34.6945 14 33.0376V31.8082C14 29.0497 15.8809 26.6466 18.5586 25.9839L25.9851 24.146C26.091 24.1198 26.1919 24.0765 26.2837 24.0177L34.8939 18.5104C35.3765 18.2017 35.9375 18.0376 36.5104 18.0376H48.3382C50.6122 18.0376 52.8394 18.6837 54.7603 19.9007L56.4221 20.9535C59.8952 23.1538 62 26.979 62 31.0904V34.0376C62 35.1422 61.1046 36.0376 60 36.0376H56.9776C56.725 38.8408 54.369 41.0376 51.5 41.0376C48.631 41.0376 46.275 38.8408 46.0224 36.0376H30.9776C30.725 38.8408 28.369 41.0376 25.5 41.0376C22.631 41.0376 20.275 38.8408 20.0224 36.0376ZM35.9716 20.1952C36.1325 20.0923 36.3194 20.0376 36.5104 20.0376H48.3382C50.2332 20.0376 52.0892 20.576 53.69 21.5902L55.3518 22.643C58.246 24.4766 60 27.6643 60 31.0904V34.0376H56.793C56.14 31.7291 54.0176 30.0376 51.5 30.0376C48.9824 30.0376 46.86 31.7291 46.207 34.0376L30.793 34.0376C30.14 31.7291 28.0176 30.0376 25.5 30.0376C22.9824 30.0376 20.86 31.7291 20.207 34.0376H17C16.4477 34.0376 16 33.5899 16 33.0376V31.8082C16 29.9692 17.2539 28.3671 19.0391 27.9253L26.4656 26.0874C26.7832 26.0088 27.0858 25.8788 27.3614 25.7025L35.9716 20.1952ZM25.5 39.0376C27.433 39.0376 29 37.4706 29 35.5376C29 33.6046 27.433 32.0376 25.5 32.0376C23.567 32.0376 22 33.6046 22 35.5376C22 37.4706 23.567 39.0376 25.5 39.0376ZM51.5 39.0376C53.433 39.0376 55 37.4706 55 35.5376C55 33.6046 53.433 32.0376 51.5 32.0376C49.567 32.0376 48 33.6046 48 35.5376C48 37.4706 49.567 39.0376 51.5 39.0376Z" fill="white"/>
</svg>
