<svg width="36" height="36" viewBox="0 0 36 36" fill="none" xmlns="http://www.w3.org/2000/svg">
<path fill-rule="evenodd" clip-rule="evenodd" d="M18 36C27.9411 36 36 27.9411 36 18C36 8.05887 27.9411 0 18 0C8.05887 0 0 8.05887 0 18C0 27.9411 8.05887 36 18 36Z" fill="#FF3D00"/>
<path d="M25.1122 13.0655C25.698 12.4798 25.698 11.53 25.1122 10.9442C24.5264 10.3584 23.5767 10.3584 22.9909 10.9442L17.9905 15.9446L12.9903 10.9444C12.4046 10.3586 11.4548 10.3586 10.869 10.9444C10.2832 11.5302 10.2832 12.48 10.869 13.0657L15.8692 18.0659L10.8692 23.0659C10.2834 23.6517 10.2833 24.6016 10.869 25.1874C11.4548 25.7732 12.4046 25.7732 12.9904 25.1874L17.9905 20.1872L22.9909 25.1876C23.5766 25.7734 24.5264 25.7734 25.1122 25.1876C25.698 24.6018 25.698 23.652 25.1122 23.0663L20.1118 18.0659L25.1122 13.0655Z" fill="white"/>
</svg>
