<svg width="36" height="36" viewBox="0 0 36 36" fill="none" xmlns="http://www.w3.org/2000/svg">
<path fill-rule="evenodd" clip-rule="evenodd" d="M18 36C27.9411 36 36 27.9411 36 18C36 8.05887 27.9411 0 18 0C8.05887 0 0 8.05887 0 18C0 27.9411 8.05887 36 18 36Z" fill="#0ECC83"/>
<path d="M27.8882 13.6239C28.474 13.0381 28.474 12.0884 27.8882 11.5026C27.3025 10.9168 26.3527 10.9168 25.7669 11.5026L14.445 22.8245L10.1588 18.5382C9.57302 17.9524 8.62327 17.9524 8.03748 18.5382C7.4517 19.124 7.4517 20.0738 8.03748 20.6595L13.3408 25.9628C13.4156 26.0377 13.4965 26.103 13.5817 26.1587C14.1676 26.578 14.9876 26.5245 15.5139 25.9983L27.8882 13.6239Z" fill="white"/>
</svg>
