<svg width="36" height="36" viewBox="0 0 36 36" fill="none" xmlns="http://www.w3.org/2000/svg">
<path fill-rule="evenodd" clip-rule="evenodd" d="M18 36C27.9411 36 36 27.9411 36 18C36 8.05887 27.9411 0 18 0C8.05887 0 0 8.05887 0 18C0 27.9411 8.05887 36 18 36Z" fill="#10069F"/>
<path d="M19.8688 8.99048C19.8688 10.026 19.0294 10.8655 17.9938 10.8655C16.9583 10.8655 16.1188 10.026 16.1188 8.99048C16.1188 7.95494 16.9583 7.11548 17.9938 7.11548C19.0294 7.11548 19.8688 7.95494 19.8688 8.99048Z" fill="white"/>
<path d="M19.5142 14.0083C19.5142 13.1799 18.8426 12.5083 18.0142 12.5083L17.9869 12.5085H16C15.1716 12.5085 14.5 13.1801 14.5 14.0085C14.5 14.837 15.1716 15.5085 16 15.5085H16.5142V25.5083H16.0143C15.1859 25.5083 14.5143 26.1799 14.5143 27.0083C14.5143 27.8367 15.1859 28.5083 16.0143 28.5083H20.0143C20.8427 28.5083 21.5143 27.8367 21.5143 27.0083C21.5143 26.1799 20.8427 25.5083 20.0143 25.5083H19.5142V14.0083Z" fill="white"/>
</svg>
