<svg width="24" height="24" viewBox="0 0 24 24" fill="none" xmlns="http://www.w3.org/2000/svg">
<path fill-rule="evenodd" clip-rule="evenodd" d="M4 0C2.52724 0 1.33333 1.19391 1.33333 2.66667V6.00002H0.67755C0.30936 6.00002 0.010883 6.29849 0.010883 6.66668C0.010883 7.03487 0.30936 7.33335 0.67755 7.33335H1.33333V11.3444H0.674151C0.305961 11.3444 0.00748444 11.6429 0.00748444 12.0111C0.00748444 12.3793 0.305961 12.6777 0.674151 12.6777H1.33333V16.6667H0.67755C0.30936 16.6667 0.010883 16.9652 0.010883 17.3333C0.010883 17.7015 0.30936 18 0.67755 18H1.33333V21.3333C1.33333 22.8061 2.52724 24 4 24H21.3333C22.8061 24 24 22.8061 24 21.3333V2.66667C24 1.19391 22.8061 0 21.3333 0H4ZM2.66666 7.33335V11.3444H3.34082C3.70901 11.3444 4.00748 11.6429 4.00748 12.0111C4.00748 12.3793 3.70901 12.6777 3.34082 12.6777H2.66666V16.6667H3.34422C3.71241 16.6667 4.01088 16.9652 4.01088 17.3333C4.01088 17.7015 3.71241 18 3.34422 18H2.66666V21.3333C2.66666 22.0697 3.26362 22.6667 4 22.6667H21.3333C22.0697 22.6667 22.6667 22.0697 22.6667 21.3333V2.66667C22.6667 1.93029 22.0697 1.33333 21.3333 1.33333H4C3.26362 1.33333 2.66666 1.93029 2.66666 2.66667V6.00002H3.34422C3.71241 6.00002 4.01088 6.29849 4.01088 6.66668C4.01088 7.03487 3.71241 7.33335 3.34422 7.33335H2.66666Z" fill="white"/>
<path fill-rule="evenodd" clip-rule="evenodd" d="M20 12C20 16.0501 16.7168 19.3333 12.6667 19.3333C8.61658 19.3333 5.33334 16.0501 5.33334 12C5.33334 7.94991 8.61658 4.66666 12.6667 4.66666C16.7168 4.66666 20 7.94991 20 12ZM17.1444 15.9938C18.0912 14.933 18.6667 13.5337 18.6667 12C18.6667 8.68629 15.9804 6 12.6667 6C9.35296 6 6.66667 8.68629 6.66667 12C6.66667 13.5409 7.24752 14.9461 8.2022 16.0086C8.67272 15.0106 9.46716 14.1953 10.4501 13.6986C9.5697 13.0289 9.0013 11.9701 9.0013 10.7785C9.0013 8.75344 10.6429 7.11181 12.668 7.11181C14.693 7.11181 16.3346 8.75344 16.3346 10.7785C16.3346 11.9669 15.7693 13.0232 14.8928 13.6932C15.8759 14.1869 16.6713 14.9989 17.1444 15.9938ZM16.089 16.9289C15.5985 15.5167 14.2553 14.5034 12.6768 14.5034C11.0941 14.5034 9.74798 15.5222 9.26074 16.9403C10.2283 17.6086 11.4018 18 12.6667 18C13.9387 18 15.1183 17.6041 16.089 16.9289ZM12.668 13.1118C13.9566 13.1118 15.0013 12.0671 15.0013 10.7785C15.0013 9.48982 13.9566 8.44515 12.668 8.44515C11.3793 8.44515 10.3346 9.48982 10.3346 10.7785C10.3346 12.0671 11.3793 13.1118 12.668 13.1118Z" fill="white"/>
</svg>
