<svg width="24" height="25" viewBox="0 0 24 25" fill="none" xmlns="http://www.w3.org/2000/svg">
<path d="M12.984 2.79181V13.539L16.3424 9.9034C16.7172 9.49771 17.3498 9.47263 17.7555 9.84738C18.1612 10.2221 18.1863 10.8548 17.8115 11.2605L12.8117 16.6731C12.7724 16.7282 12.7269 16.7801 12.6752 16.8279C12.2695 17.2026 11.6368 17.1776 11.2621 16.7719L6.2276 11.3218C5.85285 10.9161 5.87793 10.2834 6.28361 9.90866C6.6893 9.53391 7.32197 9.55899 7.69672 9.96467L10.984 13.5233V2.79181C10.984 2.23952 11.4317 1.79181 11.984 1.79181C12.5363 1.79181 12.984 2.23952 12.984 2.79181Z" fill="#002EFF"/>
<path d="M2 16.0933C2 15.541 1.55228 15.0933 1 15.0933C0.447715 15.0933 0 15.541 0 16.0933V17.0933C0 19.8547 2.23858 22.0933 5 22.0933H19C21.7614 22.0933 24 19.8547 24 17.0933V16.0933C24 15.541 23.5523 15.0933 23 15.0933C22.4477 15.0933 22 15.541 22 16.0933V17.0933C22 18.7502 20.6569 20.0933 19 20.0933H5C3.34315 20.0933 2 18.7502 2 17.0933V16.0933Z" fill="#002EFF"/>
</svg>
