<svg width="24" height="24" viewBox="0 0 24 24" fill="none" xmlns="http://www.w3.org/2000/svg">
<path fill-rule="evenodd" clip-rule="evenodd" d="M17.5412 0.769197C18.3223 -0.0118517 19.5886 -0.0118513 20.3696 0.769197L23.2045 3.60404C23.9855 4.38509 23.9855 5.65142 23.2045 6.43247L8.01887 21.6181C7.77582 21.8611 7.47422 22.0374 7.14319 22.13L1.49297 23.7098C0.742032 23.9197 0.050377 23.2276 0.260811 22.4768L1.84355 16.8297C1.93619 16.4992 2.11237 16.198 2.35512 15.9553L17.5412 0.769197ZM18.9554 2.18341L21.7903 5.01825L20.4844 6.3241L17.6352 3.50363L18.9554 2.18341ZM19.0702 7.73833L16.221 4.91786L3.76934 17.3695L2.66631 21.305L6.60466 20.2039L19.0702 7.73833Z" fill="#002EFF"/>
</svg>
