<svg width="25" height="24" viewBox="0 0 25 24" fill="none" xmlns="http://www.w3.org/2000/svg">
<path d="M9.00012 9.01636C9.55241 9.01636 10.0001 9.46407 10.0001 10.0164V19.0164C10.0001 19.5686 9.55241 20.0164 9.00012 20.0164C8.44784 20.0164 8.00012 19.5686 8.00012 19.0164V10.0164C8.00012 9.46407 8.44784 9.01636 9.00012 9.01636Z" fill="#002EFF"/>
<path d="M16.0001 10.0164C16.0001 9.46407 15.5524 9.01636 15.0001 9.01636C14.4478 9.01636 14.0001 9.46407 14.0001 10.0164V19.0164C14.0001 19.5686 14.4478 20.0164 15.0001 20.0164C15.5524 20.0164 16.0001 19.5686 16.0001 19.0164V10.0164Z" fill="#002EFF"/>
<path fill-rule="evenodd" clip-rule="evenodd" d="M10.0001 0C7.79098 0 6.00012 1.79086 6.00012 4V5H3.00012V5.00415H1.01367C0.461387 5.00415 0.0136719 5.45187 0.0136719 6.00415C0.0136719 6.55644 0.461388 7.00415 1.01367 7.00415H3.00012V20C3.00012 22.2091 4.79098 24 7.00012 24H17.0001C19.2093 24 21.0001 22.2091 21.0001 20V7.00415H23.0137C23.566 7.00415 24.0137 6.55644 24.0137 6.00415C24.0137 5.45187 23.566 5.00415 23.0137 5.00415H21.0001V5H18.0001V4C18.0001 1.79086 16.2093 0 14.0001 0H10.0001ZM16.0001 5V4C16.0001 2.89543 15.1047 2 14.0001 2H10.0001C8.89555 2 8.00012 2.89543 8.00012 4V5H16.0001ZM19.0001 7.00415H5.00012V20C5.00012 21.1046 5.89555 22 7.00012 22H17.0001C18.1047 22 19.0001 21.1046 19.0001 20V7.00415Z" fill="#002EFF"/>
</svg>
