<svg width="273" height="120" viewBox="0 0 273 120" fill="none" xmlns="http://www.w3.org/2000/svg">
<path d="M9.86279 8C9.86279 3.58172 13.4445 0 17.8628 0H236.726L269.227 42.6996C271.204 45.2979 271.404 48.8373 269.732 51.6419L236.726 107L17.757 104.104C13.3804 104.047 9.86279 100.482 9.86279 96.1051V8Z" fill="#FD6C98"/>
<path d="M0 8C0 3.58172 3.58172 0 8 0H236L265.53 65.3821C266.559 67.6614 266.464 70.291 265.271 72.4895L239.5 120H8C3.58172 120 0 116.418 0 112V8Z" fill="#020247"/>
<path d="M71.034 42.206C71.034 42.3527 70.9607 42.426 70.814 42.426H63.004C62.9453 42.426 62.916 42.4553 62.916 42.514V47.244C62.916 47.3027 62.9453 47.332 63.004 47.332H68.372C68.5187 47.332 68.592 47.4053 68.592 47.552V48.938C68.592 49.0847 68.5187 49.158 68.372 49.158H63.004C62.9453 49.158 62.916 49.1873 62.916 49.246V54.086C62.916 54.1447 62.9453 54.174 63.004 54.174H70.814C70.9607 54.174 71.034 54.2473 71.034 54.394V55.78C71.034 55.9267 70.9607 56 70.814 56H61.024C60.8773 56 60.804 55.9267 60.804 55.78V40.82C60.804 40.6733 60.8773 40.6 61.024 40.6H70.814C70.9607 40.6 71.034 40.6733 71.034 40.82V42.206ZM77.6264 56.132C76.7464 56.132 75.9691 56 75.2944 55.736C74.6344 55.472 74.1211 55.1127 73.7544 54.658C73.3878 54.1887 73.2044 53.6753 73.2044 53.118V52.876C73.2044 52.7293 73.2778 52.656 73.4244 52.656H75.0084C75.1551 52.656 75.2284 52.7293 75.2284 52.876V52.986C75.2284 53.3967 75.4484 53.756 75.8884 54.064C76.3431 54.372 76.9151 54.526 77.6044 54.526C78.2644 54.526 78.7998 54.3867 79.2104 54.108C79.6211 53.8147 79.8264 53.448 79.8264 53.008C79.8264 52.5827 79.6358 52.2673 79.2544 52.062C78.8731 51.842 78.2571 51.6147 77.4064 51.38C76.5704 51.1453 75.8664 50.9107 75.2944 50.676C74.7371 50.4267 74.2604 50.082 73.8644 49.642C73.4831 49.1873 73.2924 48.608 73.2924 47.904C73.2924 46.9213 73.6738 46.144 74.4364 45.572C75.2138 44.9853 76.2404 44.692 77.5164 44.692C78.3671 44.692 79.1151 44.8313 79.7604 45.11C80.4204 45.374 80.9264 45.748 81.2784 46.232C81.6304 46.716 81.8064 47.2587 81.8064 47.86V47.926C81.8064 48.0727 81.7331 48.146 81.5864 48.146H80.0464C79.8998 48.146 79.8264 48.0727 79.8264 47.926V47.86C79.8264 47.4347 79.6138 47.0827 79.1884 46.804C78.7778 46.5107 78.2131 46.364 77.4944 46.364C76.8491 46.364 76.3211 46.4887 75.9104 46.738C75.5144 46.9873 75.3164 47.3247 75.3164 47.75C75.3164 48.1753 75.5071 48.498 75.8884 48.718C76.2844 48.938 76.9151 49.1727 77.7804 49.422C78.6311 49.6567 79.3351 49.8913 79.8924 50.126C80.4644 50.346 80.9484 50.6833 81.3444 51.138C81.7404 51.578 81.9384 52.1573 81.9384 52.876C81.9384 53.8733 81.5424 54.6653 80.7504 55.252C79.9731 55.8387 78.9318 56.132 77.6264 56.132ZM89.9097 46.32C89.9097 46.4667 89.8363 46.54 89.6897 46.54H87.3137C87.255 46.54 87.2257 46.5693 87.2257 46.628V52.458C87.2257 53.074 87.365 53.5213 87.6437 53.8C87.9223 54.064 88.355 54.196 88.9417 54.196H89.5797C89.7263 54.196 89.7997 54.2693 89.7997 54.416V55.78C89.7997 55.9267 89.7263 56 89.5797 56C89.1103 56.0293 88.773 56.044 88.5677 56.044C87.453 56.044 86.6097 55.846 86.0377 55.45C85.4803 55.0393 85.2017 54.2913 85.2017 53.206V46.628C85.2017 46.5693 85.1723 46.54 85.1137 46.54H83.7717C83.625 46.54 83.5517 46.4667 83.5517 46.32V45.022C83.5517 44.8753 83.625 44.802 83.7717 44.802H85.1137C85.1723 44.802 85.2017 44.7727 85.2017 44.714V42.118C85.2017 41.9713 85.275 41.898 85.4217 41.898H87.0057C87.1523 41.898 87.2257 41.9713 87.2257 42.118V44.714C87.2257 44.7727 87.255 44.802 87.3137 44.802H89.6897C89.8363 44.802 89.9097 44.8753 89.9097 45.022V46.32ZM96.6008 44.626C97.4954 44.626 98.2728 44.7873 98.9328 45.11C99.6074 45.418 100.121 45.858 100.473 46.43C100.839 46.9873 101.023 47.6253 101.023 48.344V55.78C101.023 55.9267 100.949 56 100.803 56H99.1308C98.9841 56 98.9108 55.9267 98.9108 55.78V54.988C98.9108 54.9147 98.8741 54.9 98.8008 54.944C98.4194 55.34 97.9501 55.648 97.3928 55.868C96.8501 56.0733 96.2414 56.176 95.5668 56.176C94.4814 56.176 93.5794 55.9047 92.8608 55.362C92.1568 54.8047 91.8048 53.9687 91.8048 52.854C91.8048 51.71 92.2008 50.8153 92.9928 50.17C93.7994 49.51 94.9214 49.18 96.3588 49.18H98.8228C98.8814 49.18 98.9108 49.1507 98.9108 49.092V48.498C98.9108 47.8527 98.7201 47.354 98.3388 47.002C97.9721 46.6353 97.4074 46.452 96.6448 46.452C96.0288 46.452 95.5228 46.5767 95.1268 46.826C94.7454 47.0607 94.5108 47.3833 94.4228 47.794C94.3788 47.9407 94.2908 48.0067 94.1588 47.992L92.3768 47.75C92.2301 47.7207 92.1641 47.662 92.1788 47.574C92.2961 46.7087 92.7581 46.0047 93.5648 45.462C94.3714 44.9047 95.3834 44.626 96.6008 44.626ZM96.0288 54.394C96.8061 54.394 97.4808 54.1887 98.0528 53.778C98.6248 53.3673 98.9108 52.8467 98.9108 52.216V50.918C98.9108 50.8593 98.8814 50.83 98.8228 50.83H96.7548C95.8894 50.83 95.2001 50.9987 94.6868 51.336C94.1734 51.6733 93.9168 52.1427 93.9168 52.744C93.9168 53.2867 94.1074 53.6973 94.4888 53.976C94.8848 54.2547 95.3981 54.394 96.0288 54.394ZM108.362 56.176C107.247 56.176 106.294 55.8973 105.502 55.34C104.71 54.768 104.167 53.998 103.874 53.03C103.654 52.3553 103.544 51.468 103.544 50.368C103.544 49.356 103.654 48.4687 103.874 47.706C104.167 46.7673 104.71 46.0193 105.502 45.462C106.309 44.9047 107.262 44.626 108.362 44.626C109.462 44.626 110.423 44.9047 111.244 45.462C112.065 46.0193 112.601 46.7233 112.85 47.574C112.938 47.8087 112.997 48.0507 113.026 48.3C113.026 48.4173 112.96 48.4907 112.828 48.52L111.178 48.762H111.134C111.031 48.762 110.958 48.696 110.914 48.564L110.848 48.212C110.731 47.7133 110.445 47.2953 109.99 46.958C109.535 46.6207 108.985 46.452 108.34 46.452C107.709 46.452 107.174 46.6207 106.734 46.958C106.294 47.2953 106.008 47.7427 105.876 48.3C105.744 48.828 105.678 49.5247 105.678 50.39C105.678 51.2407 105.744 51.93 105.876 52.458C106.023 53.0447 106.309 53.5067 106.734 53.844C107.174 54.1813 107.709 54.35 108.34 54.35C108.985 54.35 109.535 54.1813 109.99 53.844C110.459 53.5067 110.753 53.0667 110.87 52.524C110.885 52.5093 110.885 52.4947 110.87 52.48C110.87 52.4507 110.877 52.4287 110.892 52.414V52.326C110.936 52.2087 111.017 52.1647 111.134 52.194L112.784 52.458C112.901 52.4873 112.96 52.546 112.96 52.634V52.722C112.96 52.854 112.923 53.0153 112.85 53.206C112.601 54.1007 112.065 54.8193 111.244 55.362C110.423 55.9047 109.462 56.176 108.362 56.176ZM116.73 43.042C116.319 43.042 115.982 42.91 115.718 42.646C115.454 42.382 115.322 42.0447 115.322 41.634C115.322 41.2233 115.454 40.886 115.718 40.622C115.982 40.358 116.319 40.226 116.73 40.226C117.141 40.226 117.478 40.358 117.742 40.622C118.006 40.886 118.138 41.2233 118.138 41.634C118.138 42.0447 118.006 42.382 117.742 42.646C117.478 42.91 117.141 43.042 116.73 43.042ZM115.85 55.978C115.703 55.978 115.63 55.9047 115.63 55.758V45.022C115.63 44.8753 115.703 44.802 115.85 44.802H117.522C117.669 44.802 117.742 44.8753 117.742 45.022V55.758C117.742 55.9047 117.669 55.978 117.522 55.978H115.85ZM125.637 56.176C124.552 56.176 123.606 55.9047 122.799 55.362C121.993 54.8047 121.428 54.0347 121.105 53.052C120.841 52.26 120.709 51.3653 120.709 50.368C120.709 49.3267 120.834 48.4467 121.083 47.728C121.406 46.76 121.971 46.0047 122.777 45.462C123.584 44.9047 124.545 44.626 125.659 44.626C126.715 44.626 127.632 44.9047 128.409 45.462C129.201 46.0047 129.766 46.7527 130.103 47.706C130.367 48.454 130.499 49.334 130.499 50.346C130.499 51.3727 130.367 52.2747 130.103 53.052C129.781 54.0347 129.223 54.8047 128.431 55.362C127.639 55.9047 126.708 56.176 125.637 56.176ZM125.637 54.35C126.224 54.35 126.737 54.1887 127.177 53.866C127.617 53.5287 127.933 53.0593 128.123 52.458C128.285 51.9007 128.365 51.2113 128.365 50.39C128.365 49.5687 128.292 48.8867 128.145 48.344C127.955 47.7427 127.639 47.2807 127.199 46.958C126.759 46.6207 126.224 46.452 125.593 46.452C124.992 46.452 124.471 46.6207 124.031 46.958C123.591 47.2807 123.276 47.7427 123.085 48.344C122.924 48.8573 122.843 49.5393 122.843 50.39C122.843 51.2407 122.924 51.93 123.085 52.458C123.261 53.0593 123.569 53.5287 124.009 53.866C124.464 54.1887 125.007 54.35 125.637 54.35ZM138.259 44.648C139.461 44.648 140.415 45 141.119 45.704C141.823 46.3933 142.175 47.332 142.175 48.52V55.78C142.175 55.9267 142.101 56 141.955 56H140.283C140.136 56 140.063 55.9267 140.063 55.78V48.938C140.063 48.2047 139.85 47.6107 139.425 47.156C138.999 46.7013 138.435 46.474 137.731 46.474C137.041 46.474 136.477 46.7013 136.037 47.156C135.597 47.6107 135.377 48.1973 135.377 48.916V55.78C135.377 55.9267 135.303 56 135.157 56H133.485C133.338 56 133.265 55.9267 133.265 55.78V45.022C133.265 44.8753 133.338 44.802 133.485 44.802H135.157C135.303 44.802 135.377 44.8753 135.377 45.022V45.814C135.377 45.8433 135.384 45.8653 135.399 45.88C135.428 45.8947 135.45 45.8873 135.465 45.858C136.095 45.0513 137.027 44.648 138.259 44.648ZM149.28 44.626C150.175 44.626 150.952 44.7873 151.612 45.11C152.287 45.418 152.8 45.858 153.152 46.43C153.519 46.9873 153.702 47.6253 153.702 48.344V55.78C153.702 55.9267 153.629 56 153.482 56H151.81C151.664 56 151.59 55.9267 151.59 55.78V54.988C151.59 54.9147 151.554 54.9 151.48 54.944C151.099 55.34 150.63 55.648 150.072 55.868C149.53 56.0733 148.921 56.176 148.246 56.176C147.161 56.176 146.259 55.9047 145.54 55.362C144.836 54.8047 144.484 53.9687 144.484 52.854C144.484 51.71 144.88 50.8153 145.672 50.17C146.479 49.51 147.601 49.18 149.038 49.18H151.502C151.561 49.18 151.59 49.1507 151.59 49.092V48.498C151.59 47.8527 151.4 47.354 151.018 47.002C150.652 46.6353 150.087 46.452 149.324 46.452C148.708 46.452 148.202 46.5767 147.806 46.826C147.425 47.0607 147.19 47.3833 147.102 47.794C147.058 47.9407 146.97 48.0067 146.838 47.992L145.056 47.75C144.91 47.7207 144.844 47.662 144.858 47.574C144.976 46.7087 145.438 46.0047 146.244 45.462C147.051 44.9047 148.063 44.626 149.28 44.626ZM148.708 54.394C149.486 54.394 150.16 54.1887 150.732 53.778C151.304 53.3673 151.59 52.8467 151.59 52.216V50.918C151.59 50.8593 151.561 50.83 151.502 50.83H149.434C148.569 50.83 147.88 50.9987 147.366 51.336C146.853 51.6733 146.596 52.1427 146.596 52.744C146.596 53.2867 146.787 53.6973 147.168 53.976C147.564 54.2547 148.078 54.394 148.708 54.394ZM168.192 44.648C169.306 44.648 170.186 44.9853 170.832 45.66C171.477 46.32 171.8 47.244 171.8 48.432V55.78C171.8 55.9267 171.726 56 171.58 56H169.93C169.783 56 169.71 55.9267 169.71 55.78V48.872C169.71 48.1387 169.504 47.5593 169.094 47.134C168.698 46.694 168.162 46.474 167.488 46.474C166.813 46.474 166.263 46.6867 165.838 47.112C165.412 47.5373 165.2 48.1093 165.2 48.828V55.78C165.2 55.9267 165.126 56 164.98 56H163.33C163.183 56 163.11 55.9267 163.11 55.78V48.872C163.11 48.1387 162.904 47.5593 162.494 47.134C162.098 46.694 161.562 46.474 160.888 46.474C160.213 46.474 159.67 46.6867 159.26 47.112C158.864 47.5373 158.666 48.1093 158.666 48.828V55.78C158.666 55.9267 158.592 56 158.446 56H156.774C156.627 56 156.554 55.9267 156.554 55.78V45.022C156.554 44.8753 156.627 44.802 156.774 44.802H158.446C158.592 44.802 158.666 44.8753 158.666 45.022V45.77C158.666 45.7993 158.673 45.8213 158.688 45.836C158.717 45.8507 158.746 45.8433 158.776 45.814C159.421 45.0367 160.36 44.648 161.592 44.648C162.34 44.648 162.978 44.7947 163.506 45.088C164.034 45.3667 164.444 45.7847 164.738 46.342C164.782 46.4007 164.826 46.4007 164.87 46.342C165.222 45.77 165.684 45.3447 166.256 45.066C166.842 44.7873 167.488 44.648 168.192 44.648ZM176.005 43.042C175.595 43.042 175.257 42.91 174.993 42.646C174.729 42.382 174.597 42.0447 174.597 41.634C174.597 41.2233 174.729 40.886 174.993 40.622C175.257 40.358 175.595 40.226 176.005 40.226C176.416 40.226 176.753 40.358 177.017 40.622C177.281 40.886 177.413 41.2233 177.413 41.634C177.413 42.0447 177.281 42.382 177.017 42.646C176.753 42.91 176.416 43.042 176.005 43.042ZM175.125 55.978C174.979 55.978 174.905 55.9047 174.905 55.758V45.022C174.905 44.8753 174.979 44.802 175.125 44.802H176.797C176.944 44.802 177.017 44.8753 177.017 45.022V55.758C177.017 55.9047 176.944 55.978 176.797 55.978H175.125ZM189.401 49.004C189.46 49.6053 189.482 50.28 189.467 51.028C189.467 51.1747 189.394 51.248 189.247 51.248H182.229C182.17 51.248 182.141 51.2773 182.141 51.336C182.141 51.8347 182.185 52.216 182.273 52.48C182.434 53.0667 182.757 53.5287 183.241 53.866C183.74 54.1887 184.363 54.35 185.111 54.35C186.196 54.35 187.032 53.9027 187.619 53.008C187.692 52.8613 187.788 52.8393 187.905 52.942L189.159 53.778C189.262 53.866 189.284 53.9613 189.225 54.064C188.814 54.724 188.228 55.2447 187.465 55.626C186.717 56.0073 185.866 56.198 184.913 56.198C183.842 56.198 182.94 55.9633 182.207 55.494C181.474 55.0247 180.924 54.3573 180.557 53.492C180.205 52.6267 180.029 51.578 180.029 50.346C180.029 49.2753 180.11 48.4613 180.271 47.904C180.535 46.892 181.063 46.0927 181.855 45.506C182.647 44.9193 183.608 44.626 184.737 44.626C186.218 44.626 187.326 45 188.059 45.748C188.792 46.4813 189.24 47.5667 189.401 49.004ZM184.737 46.452C184.106 46.452 183.586 46.6133 183.175 46.936C182.764 47.244 182.486 47.662 182.339 48.19C182.236 48.5127 182.17 48.9233 182.141 49.422C182.141 49.4807 182.17 49.51 182.229 49.51H187.267C187.326 49.51 187.355 49.4807 187.355 49.422C187.326 48.938 187.282 48.5787 187.223 48.344C187.076 47.772 186.783 47.3173 186.343 46.98C185.918 46.628 185.382 46.452 184.737 46.452ZM197.126 44.648C198.328 44.648 199.282 45 199.986 45.704C200.69 46.3933 201.042 47.332 201.042 48.52V55.78C201.042 55.9267 200.968 56 200.822 56H199.15C199.003 56 198.93 55.9267 198.93 55.78V48.938C198.93 48.2047 198.717 47.6107 198.292 47.156C197.866 46.7013 197.302 46.474 196.598 46.474C195.908 46.474 195.344 46.7013 194.904 47.156C194.464 47.6107 194.244 48.1973 194.244 48.916V55.78C194.244 55.9267 194.17 56 194.024 56H192.352C192.205 56 192.132 55.9267 192.132 55.78V45.022C192.132 44.8753 192.205 44.802 192.352 44.802H194.024C194.17 44.802 194.244 44.8753 194.244 45.022V45.814C194.244 45.8433 194.251 45.8653 194.266 45.88C194.295 45.8947 194.317 45.8873 194.332 45.858C194.962 45.0513 195.894 44.648 197.126 44.648ZM209.578 46.32C209.578 46.4667 209.504 46.54 209.358 46.54H206.982C206.923 46.54 206.894 46.5693 206.894 46.628V52.458C206.894 53.074 207.033 53.5213 207.312 53.8C207.59 54.064 208.023 54.196 208.61 54.196H209.248C209.394 54.196 209.468 54.2693 209.468 54.416V55.78C209.468 55.9267 209.394 56 209.248 56C208.778 56.0293 208.441 56.044 208.236 56.044C207.121 56.044 206.278 55.846 205.706 55.45C205.148 55.0393 204.87 54.2913 204.87 53.206V46.628C204.87 46.5693 204.84 46.54 204.782 46.54H203.44C203.293 46.54 203.22 46.4667 203.22 46.32V45.022C203.22 44.8753 203.293 44.802 203.44 44.802H204.782C204.84 44.802 204.87 44.7727 204.87 44.714V42.118C204.87 41.9713 204.943 41.898 205.09 41.898H206.674C206.82 41.898 206.894 41.9713 206.894 42.118V44.714C206.894 44.7727 206.923 44.802 206.982 44.802H209.358C209.504 44.802 209.578 44.8753 209.578 45.022V46.32ZM216.495 56.176C215.41 56.176 214.464 55.9047 213.657 55.362C212.85 54.8047 212.286 54.0347 211.963 53.052C211.699 52.26 211.567 51.3653 211.567 50.368C211.567 49.3267 211.692 48.4467 211.941 47.728C212.264 46.76 212.828 46.0047 213.635 45.462C214.442 44.9047 215.402 44.626 216.517 44.626C217.573 44.626 218.49 44.9047 219.267 45.462C220.059 46.0047 220.624 46.7527 220.961 47.706C221.225 48.454 221.357 49.334 221.357 50.346C221.357 51.3727 221.225 52.2747 220.961 53.052C220.638 54.0347 220.081 54.8047 219.289 55.362C218.497 55.9047 217.566 56.176 216.495 56.176ZM216.495 54.35C217.082 54.35 217.595 54.1887 218.035 53.866C218.475 53.5287 218.79 53.0593 218.981 52.458C219.142 51.9007 219.223 51.2113 219.223 50.39C219.223 49.5687 219.15 48.8867 219.003 48.344C218.812 47.7427 218.497 47.2807 218.057 46.958C217.617 46.6207 217.082 46.452 216.451 46.452C215.85 46.452 215.329 46.6207 214.889 46.958C214.449 47.2807 214.134 47.7427 213.943 48.344C213.782 48.8573 213.701 49.5393 213.701 50.39C213.701 51.2407 213.782 51.93 213.943 52.458C214.119 53.0593 214.427 53.5287 214.867 53.866C215.322 54.1887 215.864 54.35 216.495 54.35ZM228.06 56.132C227.18 56.132 226.403 56 225.728 55.736C225.068 55.472 224.555 55.1127 224.188 54.658C223.821 54.1887 223.638 53.6753 223.638 53.118V52.876C223.638 52.7293 223.711 52.656 223.858 52.656H225.442C225.589 52.656 225.662 52.7293 225.662 52.876V52.986C225.662 53.3967 225.882 53.756 226.322 54.064C226.777 54.372 227.349 54.526 228.038 54.526C228.698 54.526 229.233 54.3867 229.644 54.108C230.055 53.8147 230.26 53.448 230.26 53.008C230.26 52.5827 230.069 52.2673 229.688 52.062C229.307 51.842 228.691 51.6147 227.84 51.38C227.004 51.1453 226.3 50.9107 225.728 50.676C225.171 50.4267 224.694 50.082 224.298 49.642C223.917 49.1873 223.726 48.608 223.726 47.904C223.726 46.9213 224.107 46.144 224.87 45.572C225.647 44.9853 226.674 44.692 227.95 44.692C228.801 44.692 229.549 44.8313 230.194 45.11C230.854 45.374 231.36 45.748 231.712 46.232C232.064 46.716 232.24 47.2587 232.24 47.86V47.926C232.24 48.0727 232.167 48.146 232.02 48.146H230.48C230.333 48.146 230.26 48.0727 230.26 47.926V47.86C230.26 47.4347 230.047 47.0827 229.622 46.804C229.211 46.5107 228.647 46.364 227.928 46.364C227.283 46.364 226.755 46.4887 226.344 46.738C225.948 46.9873 225.75 47.3247 225.75 47.75C225.75 48.1753 225.941 48.498 226.322 48.718C226.718 48.938 227.349 49.1727 228.214 49.422C229.065 49.6567 229.769 49.8913 230.326 50.126C230.898 50.346 231.382 50.6833 231.778 51.138C232.174 51.578 232.372 52.1573 232.372 52.876C232.372 53.8733 231.976 54.6653 231.184 55.252C230.407 55.8387 229.365 56.132 228.06 56.132ZM63.488 82C63.356 82 63.268 81.9413 63.224 81.824L59.638 71.044L59.616 70.956C59.616 70.8533 59.682 70.802 59.814 70.802H61.662C61.794 70.802 61.882 70.8607 61.926 70.978L64.346 78.942C64.3607 78.9713 64.3827 78.986 64.412 78.986C64.4413 78.986 64.4633 78.9713 64.478 78.942L66.876 70.978C66.92 70.8607 67.008 70.802 67.14 70.802L68.988 70.824C69.1493 70.824 69.208 70.9047 69.164 71.066L65.6 81.824C65.556 81.9413 65.468 82 65.336 82H63.488ZM72.6226 69.042C72.212 69.042 71.8746 68.91 71.6106 68.646C71.3466 68.382 71.2146 68.0447 71.2146 67.634C71.2146 67.2233 71.3466 66.886 71.6106 66.622C71.8746 66.358 72.212 66.226 72.6226 66.226C73.0333 66.226 73.3706 66.358 73.6346 66.622C73.8986 66.886 74.0306 67.2233 74.0306 67.634C74.0306 68.0447 73.8986 68.382 73.6346 68.646C73.3706 68.91 73.0333 69.042 72.6226 69.042ZM71.7426 81.978C71.596 81.978 71.5226 81.9047 71.5226 81.758V71.022C71.5226 70.8753 71.596 70.802 71.7426 70.802H73.4146C73.5613 70.802 73.6346 70.8753 73.6346 71.022V81.758C73.6346 81.9047 73.5613 81.978 73.4146 81.978H71.7426ZM80.8921 82.132C80.0121 82.132 79.2347 82 78.5601 81.736C77.9001 81.472 77.3867 81.1127 77.0201 80.658C76.6534 80.1887 76.4701 79.6753 76.4701 79.118V78.876C76.4701 78.7293 76.5434 78.656 76.6901 78.656H78.2741C78.4207 78.656 78.4941 78.7293 78.4941 78.876V78.986C78.4941 79.3967 78.7141 79.756 79.1541 80.064C79.6087 80.372 80.1807 80.526 80.8701 80.526C81.5301 80.526 82.0654 80.3867 82.4761 80.108C82.8867 79.8147 83.0921 79.448 83.0921 79.008C83.0921 78.5827 82.9014 78.2673 82.5201 78.062C82.1387 77.842 81.5227 77.6147 80.6721 77.38C79.8361 77.1453 79.1321 76.9107 78.5601 76.676C78.0027 76.4267 77.5261 76.082 77.1301 75.642C76.7487 75.1873 76.5581 74.608 76.5581 73.904C76.5581 72.9213 76.9394 72.144 77.7021 71.572C78.4794 70.9853 79.5061 70.692 80.7821 70.692C81.6327 70.692 82.3807 70.8313 83.0261 71.11C83.6861 71.374 84.1921 71.748 84.5441 72.232C84.8961 72.716 85.0721 73.2587 85.0721 73.86V73.926C85.0721 74.0727 84.9987 74.146 84.8521 74.146H83.3121C83.1654 74.146 83.0921 74.0727 83.0921 73.926V73.86C83.0921 73.4347 82.8794 73.0827 82.4541 72.804C82.0434 72.5107 81.4787 72.364 80.7601 72.364C80.1147 72.364 79.5867 72.4887 79.1761 72.738C78.7801 72.9873 78.5821 73.3247 78.5821 73.75C78.5821 74.1753 78.7727 74.498 79.1541 74.718C79.5501 74.938 80.1807 75.1727 81.0461 75.422C81.8967 75.6567 82.6007 75.8913 83.1581 76.126C83.7301 76.346 84.2141 76.6833 84.6101 77.138C85.0061 77.578 85.2041 78.1573 85.2041 78.876C85.2041 79.8733 84.8081 80.6653 84.0161 81.252C83.2387 81.8387 82.1974 82.132 80.8921 82.132ZM88.9508 69.042C88.5401 69.042 88.2028 68.91 87.9388 68.646C87.6748 68.382 87.5428 68.0447 87.5428 67.634C87.5428 67.2233 87.6748 66.886 87.9388 66.622C88.2028 66.358 88.5401 66.226 88.9508 66.226C89.3614 66.226 89.6988 66.358 89.9628 66.622C90.2268 66.886 90.3588 67.2233 90.3588 67.634C90.3588 68.0447 90.2268 68.382 89.9628 68.646C89.6988 68.91 89.3614 69.042 88.9508 69.042ZM88.0708 81.978C87.9241 81.978 87.8508 81.9047 87.8508 81.758V71.022C87.8508 70.8753 87.9241 70.802 88.0708 70.802H89.7428C89.8894 70.802 89.9628 70.8753 89.9628 71.022V81.758C89.9628 81.9047 89.8894 81.978 89.7428 81.978H88.0708ZM98.8042 72.32C98.8042 72.4667 98.7309 72.54 98.5842 72.54H96.2082C96.1495 72.54 96.1202 72.5693 96.1202 72.628V78.458C96.1202 79.074 96.2595 79.5213 96.5382 79.8C96.8169 80.064 97.2495 80.196 97.8362 80.196H98.4742C98.6209 80.196 98.6942 80.2693 98.6942 80.416V81.78C98.6942 81.9267 98.6209 82 98.4742 82C98.0049 82.0293 97.6675 82.044 97.4622 82.044C96.3475 82.044 95.5042 81.846 94.9322 81.45C94.3749 81.0393 94.0962 80.2913 94.0962 79.206V72.628C94.0962 72.5693 94.0669 72.54 94.0082 72.54H92.6662C92.5195 72.54 92.4462 72.4667 92.4462 72.32V71.022C92.4462 70.8753 92.5195 70.802 92.6662 70.802H94.0082C94.0669 70.802 94.0962 70.7727 94.0962 70.714V68.118C94.0962 67.9713 94.1695 67.898 94.3162 67.898H95.9002C96.0469 67.898 96.1202 67.9713 96.1202 68.118V70.714C96.1202 70.7727 96.1495 70.802 96.2082 70.802H98.5842C98.7309 70.802 98.8042 70.8753 98.8042 71.022V72.32ZM105.495 70.626C106.39 70.626 107.167 70.7873 107.827 71.11C108.502 71.418 109.015 71.858 109.367 72.43C109.734 72.9873 109.917 73.6253 109.917 74.344V81.78C109.917 81.9267 109.844 82 109.697 82H108.025C107.879 82 107.805 81.9267 107.805 81.78V80.988C107.805 80.9147 107.769 80.9 107.695 80.944C107.314 81.34 106.845 81.648 106.287 81.868C105.745 82.0733 105.136 82.176 104.461 82.176C103.376 82.176 102.474 81.9047 101.755 81.362C101.051 80.8047 100.699 79.9687 100.699 78.854C100.699 77.71 101.095 76.8153 101.887 76.17C102.694 75.51 103.816 75.18 105.253 75.18H107.717C107.776 75.18 107.805 75.1507 107.805 75.092V74.498C107.805 73.8527 107.615 73.354 107.233 73.002C106.867 72.6353 106.302 72.452 105.539 72.452C104.923 72.452 104.417 72.5767 104.021 72.826C103.64 73.0607 103.405 73.3833 103.317 73.794C103.273 73.9407 103.185 74.0067 103.053 73.992L101.271 73.75C101.125 73.7207 101.059 73.662 101.073 73.574C101.191 72.7087 101.653 72.0047 102.459 71.462C103.266 70.9047 104.278 70.626 105.495 70.626ZM104.923 80.394C105.701 80.394 106.375 80.1887 106.947 79.778C107.519 79.3673 107.805 78.8467 107.805 78.216V76.918C107.805 76.8593 107.776 76.83 107.717 76.83H105.649C104.784 76.83 104.095 76.9987 103.581 77.336C103.068 77.6733 102.811 78.1427 102.811 78.744C102.811 79.2867 103.002 79.6973 103.383 79.976C103.779 80.2547 104.293 80.394 104.923 80.394Z" fill="white"/>
<path fill-rule="evenodd" clip-rule="evenodd" d="M30.5 75.0556C39.0911 75.0556 46.0556 68.0911 46.0556 59.5C46.0556 50.9089 39.0911 43.9444 30.5 43.9444C21.9089 43.9444 14.9444 50.9089 14.9444 59.5C14.9444 68.0911 21.9089 75.0556 30.5 75.0556ZM30.5 77C40.165 77 48 69.165 48 59.5C48 49.835 40.165 42 30.5 42C20.835 42 13 49.835 13 59.5C13 69.165 20.835 77 30.5 77Z" fill="white"/>
<path d="M33.6205 66.3057C33.5138 66.3057 33.4405 66.2603 33.4004 66.1696L30.5998 60.3557C30.5865 60.3168 30.5598 60.2974 30.5198 60.2974H27.6391C27.5858 60.2974 27.5591 60.3233 27.5591 60.3751V66.1112C27.5591 66.2409 27.4924 66.3057 27.3591 66.3057H25.8387C25.7054 66.3057 25.6387 66.2409 25.6387 66.1112V52.889C25.6387 52.7594 25.7054 52.6946 25.8387 52.6946H31.2199C32.0201 52.6946 32.7203 52.8566 33.3204 53.1807C33.9339 53.5048 34.4073 53.9585 34.7408 54.5418C35.0742 55.1251 35.2409 55.7992 35.2409 56.564C35.2409 57.4714 34.9941 58.2427 34.5007 58.8779C34.0206 59.5001 33.3471 59.9214 32.4802 60.1418C32.4269 60.1677 32.4136 60.2001 32.4402 60.239L35.3409 66.0724C35.3542 66.0983 35.3609 66.1307 35.3609 66.1696C35.3609 66.2603 35.3075 66.3057 35.2009 66.3057H33.6205ZM27.6391 54.3085C27.5858 54.3085 27.5591 54.3344 27.5591 54.3862V58.7418C27.5591 58.7937 27.5858 58.8196 27.6391 58.8196H30.9799C31.6867 58.8196 32.2535 58.6187 32.6803 58.2168C33.107 57.802 33.3204 57.2575 33.3204 56.5835C33.3204 55.8964 33.107 55.3455 32.6803 54.9307C32.2535 54.5159 31.6867 54.3085 30.9799 54.3085H27.6391Z" fill="white"/>
</svg>
