<svg width="390" height="170" viewBox="0 0 390 170" fill="none" xmlns="http://www.w3.org/2000/svg">
<rect width="390" height="151" rx="8" fill="#42E8B4"/>
<path d="M196 169.5L180 151H210.5L196 169.5Z" fill="#42E8B4"/>
<path d="M195 58C204.941 58 213 49.9411 213 40C213 30.0589 204.941 22 195 22C185.059 22 177 30.0589 177 40C177 49.9411 185.059 58 195 58Z" fill="white"/>
<path fill-rule="evenodd" clip-rule="evenodd" d="M184.207 39.9352C183.931 39.6527 183.931 39.1818 184.207 38.8992L185.217 37.8631C185.493 37.5806 185.952 37.5806 186.228 37.8631L191.923 43.7498C192.106 43.9382 192.428 43.9382 192.612 43.7498L203.772 32.2119C204.048 31.9294 204.507 31.9294 204.783 32.2119L205.793 33.248C206.069 33.5305 206.069 34.0015 205.793 34.284L192.795 47.7528C192.52 48.0824 192.061 48.0824 191.785 47.7528L184.207 39.9352Z" fill="#017E4E"/>
<path d="M41.486 103.4C41.606 103.4 41.666 103.46 41.666 103.58V104.732C41.666 104.852 41.606 104.912 41.486 104.912H38.03C37.982 104.912 37.958 104.936 37.958 104.984V115.82C37.958 115.94 37.898 116 37.778 116H36.41C36.29 116 36.23 115.94 36.23 115.82V104.984C36.23 104.936 36.206 104.912 36.158 104.912H32.864C32.744 104.912 32.684 104.852 32.684 104.732V103.58C32.684 103.46 32.744 103.4 32.864 103.4H41.486ZM48.2589 107.018C48.2589 106.898 48.3189 106.838 48.4389 106.838H49.7889C49.9089 106.838 49.9689 106.898 49.9689 107.018V115.82C49.9689 115.94 49.9089 116 49.7889 116H48.4389C48.3189 116 48.2589 115.94 48.2589 115.82V115.154C48.2589 115.13 48.2469 115.118 48.2229 115.118C48.2109 115.106 48.1929 115.112 48.1689 115.136C47.6889 115.796 46.9509 116.126 45.9549 116.126C45.3669 116.126 44.8209 116.012 44.3169 115.784C43.8249 115.556 43.4289 115.22 43.1289 114.776C42.8289 114.332 42.6789 113.792 42.6789 113.156V107.018C42.6789 106.898 42.7389 106.838 42.8589 106.838H44.2089C44.3289 106.838 44.3889 106.898 44.3889 107.018V112.616C44.3889 113.24 44.5509 113.732 44.8749 114.092C45.2109 114.452 45.6789 114.632 46.2789 114.632C46.8789 114.632 47.3589 114.452 47.7189 114.092C48.0789 113.72 48.2589 113.228 48.2589 112.616V107.018ZM63.528 109.142C63.756 109.79 63.87 110.558 63.87 111.446C63.87 112.286 63.774 113.012 63.582 113.624C63.33 114.428 62.916 115.052 62.34 115.496C61.764 115.928 61.026 116.144 60.126 116.144C59.718 116.144 59.328 116.066 58.956 115.91C58.596 115.742 58.284 115.508 58.02 115.208C57.996 115.184 57.972 115.178 57.948 115.19C57.936 115.202 57.93 115.22 57.93 115.244V119.258C57.93 119.378 57.87 119.438 57.75 119.438H56.382C56.262 119.438 56.202 119.378 56.202 119.258V107.018C56.202 106.898 56.262 106.838 56.382 106.838H57.75C57.87 106.838 57.93 106.898 57.93 107.018V107.612C57.93 107.636 57.936 107.654 57.948 107.666C57.972 107.678 57.996 107.672 58.02 107.648C58.284 107.348 58.596 107.114 58.956 106.946C59.316 106.778 59.706 106.694 60.126 106.694C60.99 106.694 61.704 106.91 62.268 107.342C62.844 107.762 63.264 108.362 63.528 109.142ZM61.548 113.786C61.932 113.21 62.124 112.418 62.124 111.41C62.124 110.486 61.974 109.742 61.674 109.178C61.326 108.518 60.756 108.188 59.964 108.188C59.268 108.188 58.74 108.512 58.38 109.16C58.092 109.676 57.948 110.432 57.948 111.428C57.948 112.436 58.104 113.204 58.416 113.732C58.764 114.344 59.274 114.65 59.946 114.65C60.666 114.65 61.2 114.362 61.548 113.786ZM69.7696 116.144C68.8816 116.144 68.1076 115.922 67.4476 115.478C66.7876 115.022 66.3256 114.392 66.0616 113.588C65.8456 112.94 65.7376 112.208 65.7376 111.392C65.7376 110.54 65.8396 109.82 66.0436 109.232C66.3076 108.44 66.7696 107.822 67.4296 107.378C68.0896 106.922 68.8756 106.694 69.7876 106.694C70.6516 106.694 71.4016 106.922 72.0376 107.378C72.6856 107.822 73.1476 108.434 73.4236 109.214C73.6396 109.826 73.7476 110.546 73.7476 111.374C73.7476 112.214 73.6396 112.952 73.4236 113.588C73.1596 114.392 72.7036 115.022 72.0556 115.478C71.4076 115.922 70.6456 116.144 69.7696 116.144ZM69.7696 114.65C70.2496 114.65 70.6696 114.518 71.0296 114.254C71.3896 113.978 71.6476 113.594 71.8036 113.102C71.9356 112.646 72.0016 112.082 72.0016 111.41C72.0016 110.738 71.9416 110.18 71.8216 109.736C71.6656 109.244 71.4076 108.866 71.0476 108.602C70.6876 108.326 70.2496 108.188 69.7336 108.188C69.2416 108.188 68.8156 108.326 68.4556 108.602C68.0956 108.866 67.8376 109.244 67.6816 109.736C67.5496 110.156 67.4836 110.714 67.4836 111.41C67.4836 112.106 67.5496 112.67 67.6816 113.102C67.8256 113.594 68.0776 113.978 68.4376 114.254C68.8096 114.518 69.2536 114.65 69.7696 114.65ZM79.232 116.108C78.512 116.108 77.876 116 77.324 115.784C76.784 115.568 76.364 115.274 76.064 114.902C75.764 114.518 75.614 114.098 75.614 113.642V113.444C75.614 113.324 75.674 113.264 75.794 113.264H77.09C77.21 113.264 77.27 113.324 77.27 113.444V113.534C77.27 113.87 77.45 114.164 77.81 114.416C78.182 114.668 78.65 114.794 79.214 114.794C79.754 114.794 80.192 114.68 80.528 114.452C80.864 114.212 81.032 113.912 81.032 113.552C81.032 113.204 80.876 112.946 80.564 112.778C80.252 112.598 79.748 112.412 79.052 112.22C78.368 112.028 77.792 111.836 77.324 111.644C76.868 111.44 76.478 111.158 76.154 110.798C75.842 110.426 75.686 109.952 75.686 109.376C75.686 108.572 75.998 107.936 76.622 107.468C77.258 106.988 78.098 106.748 79.142 106.748C79.838 106.748 80.45 106.862 80.978 107.09C81.518 107.306 81.932 107.612 82.22 108.008C82.508 108.404 82.652 108.848 82.652 109.34V109.394C82.652 109.514 82.592 109.574 82.472 109.574H81.212C81.092 109.574 81.032 109.514 81.032 109.394V109.34C81.032 108.992 80.858 108.704 80.51 108.476C80.174 108.236 79.712 108.116 79.124 108.116C78.596 108.116 78.164 108.218 77.828 108.422C77.504 108.626 77.342 108.902 77.342 109.25C77.342 109.598 77.498 109.862 77.81 110.042C78.134 110.222 78.65 110.414 79.358 110.618C80.054 110.81 80.63 111.002 81.086 111.194C81.554 111.374 81.95 111.65 82.274 112.022C82.598 112.382 82.76 112.856 82.76 113.444C82.76 114.26 82.436 114.908 81.788 115.388C81.152 115.868 80.3 116.108 79.232 116.108ZM89.2819 108.08C89.2819 108.2 89.2219 108.26 89.1019 108.26H87.1579C87.1099 108.26 87.0859 108.284 87.0859 108.332V113.102C87.0859 113.606 87.1999 113.972 87.4279 114.2C87.6559 114.416 88.0099 114.524 88.4899 114.524H89.0119C89.1319 114.524 89.1919 114.584 89.1919 114.704V115.82C89.1919 115.94 89.1319 116 89.0119 116C88.6279 116.024 88.3519 116.036 88.1839 116.036C87.2719 116.036 86.5819 115.874 86.1139 115.55C85.6579 115.214 85.4299 114.602 85.4299 113.714V108.332C85.4299 108.284 85.4059 108.26 85.3579 108.26H84.2599C84.1399 108.26 84.0799 108.2 84.0799 108.08V107.018C84.0799 106.898 84.1399 106.838 84.2599 106.838H85.3579C85.4059 106.838 85.4299 106.814 85.4299 106.766V104.642C85.4299 104.522 85.4899 104.462 85.6099 104.462H86.9059C87.0259 104.462 87.0859 104.522 87.0859 104.642V106.766C87.0859 106.814 87.1099 106.838 87.1579 106.838H89.1019C89.2219 106.838 89.2819 106.898 89.2819 107.018V108.08ZM96.8624 107.018C96.8624 106.898 96.9224 106.838 97.0424 106.838H98.3924C98.5124 106.838 98.5724 106.898 98.5724 107.018V115.82C98.5724 115.94 98.5124 116 98.3924 116H97.0424C96.9224 116 96.8624 115.94 96.8624 115.82V115.154C96.8624 115.13 96.8504 115.118 96.8264 115.118C96.8144 115.106 96.7964 115.112 96.7724 115.136C96.2924 115.796 95.5544 116.126 94.5584 116.126C93.9704 116.126 93.4244 116.012 92.9204 115.784C92.4284 115.556 92.0324 115.22 91.7324 114.776C91.4324 114.332 91.2824 113.792 91.2824 113.156V107.018C91.2824 106.898 91.3424 106.838 91.4624 106.838H92.8124C92.9324 106.838 92.9924 106.898 92.9924 107.018V112.616C92.9924 113.24 93.1544 113.732 93.4784 114.092C93.8144 114.452 94.2824 114.632 94.8824 114.632C95.4824 114.632 95.9624 114.452 96.3224 114.092C96.6824 113.72 96.8624 113.228 96.8624 112.616V107.018ZM101.274 116C101.154 116 101.094 115.94 101.094 115.82V103.58C101.094 103.46 101.154 103.4 101.274 103.4H102.642C102.762 103.4 102.822 103.46 102.822 103.58V115.82C102.822 115.94 102.762 116 102.642 116H101.274ZM108.678 106.694C109.41 106.694 110.046 106.826 110.586 107.09C111.138 107.342 111.558 107.702 111.846 108.17C112.146 108.626 112.296 109.148 112.296 109.736V115.82C112.296 115.94 112.236 116 112.116 116H110.748C110.628 116 110.568 115.94 110.568 115.82V115.172C110.568 115.112 110.538 115.1 110.478 115.136C110.166 115.46 109.782 115.712 109.326 115.892C108.882 116.06 108.384 116.144 107.832 116.144C106.944 116.144 106.206 115.922 105.618 115.478C105.042 115.022 104.754 114.338 104.754 113.426C104.754 112.49 105.078 111.758 105.726 111.23C106.386 110.69 107.304 110.42 108.48 110.42H110.496C110.544 110.42 110.568 110.396 110.568 110.348V109.862C110.568 109.334 110.412 108.926 110.1 108.638C109.8 108.338 109.338 108.188 108.714 108.188C108.21 108.188 107.796 108.29 107.472 108.494C107.16 108.686 106.968 108.95 106.896 109.286C106.86 109.406 106.788 109.46 106.68 109.448L105.222 109.25C105.102 109.226 105.048 109.178 105.06 109.106C105.156 108.398 105.534 107.822 106.194 107.378C106.854 106.922 107.682 106.694 108.678 106.694ZM108.21 114.686C108.846 114.686 109.398 114.518 109.866 114.182C110.334 113.846 110.568 113.42 110.568 112.904V111.842C110.568 111.794 110.544 111.77 110.496 111.77H108.804C108.096 111.77 107.532 111.908 107.112 112.184C106.692 112.46 106.482 112.844 106.482 113.336C106.482 113.78 106.638 114.116 106.95 114.344C107.274 114.572 107.694 114.686 108.21 114.686ZM118.301 116.144C117.389 116.144 116.609 115.916 115.961 115.46C115.313 114.992 114.869 114.362 114.629 113.57C114.449 113.018 114.359 112.292 114.359 111.392C114.359 110.564 114.449 109.838 114.629 109.214C114.869 108.446 115.313 107.834 115.961 107.378C116.621 106.922 117.401 106.694 118.301 106.694C119.201 106.694 119.987 106.922 120.659 107.378C121.331 107.834 121.769 108.41 121.973 109.106C122.045 109.298 122.093 109.496 122.117 109.7C122.117 109.796 122.063 109.856 121.955 109.88L120.605 110.078H120.569C120.485 110.078 120.425 110.024 120.389 109.916L120.335 109.628C120.239 109.22 120.005 108.878 119.633 108.602C119.261 108.326 118.811 108.188 118.283 108.188C117.767 108.188 117.329 108.326 116.969 108.602C116.609 108.878 116.375 109.244 116.267 109.7C116.159 110.132 116.105 110.702 116.105 111.41C116.105 112.106 116.159 112.67 116.267 113.102C116.387 113.582 116.621 113.96 116.969 114.236C117.329 114.512 117.767 114.65 118.283 114.65C118.811 114.65 119.261 114.512 119.633 114.236C120.017 113.96 120.257 113.6 120.353 113.156C120.365 113.144 120.365 113.132 120.353 113.12C120.353 113.096 120.359 113.078 120.371 113.066V112.994C120.407 112.898 120.473 112.862 120.569 112.886L121.919 113.102C122.015 113.126 122.063 113.174 122.063 113.246V113.318C122.063 113.426 122.033 113.558 121.973 113.714C121.769 114.446 121.331 115.034 120.659 115.478C119.987 115.922 119.201 116.144 118.301 116.144ZM125.148 105.398C124.812 105.398 124.536 105.29 124.32 105.074C124.104 104.858 123.996 104.582 123.996 104.246C123.996 103.91 124.104 103.634 124.32 103.418C124.536 103.202 124.812 103.094 125.148 103.094C125.484 103.094 125.76 103.202 125.976 103.418C126.192 103.634 126.3 103.91 126.3 104.246C126.3 104.582 126.192 104.858 125.976 105.074C125.76 105.29 125.484 105.398 125.148 105.398ZM124.428 115.982C124.308 115.982 124.248 115.922 124.248 115.802V107.018C124.248 106.898 124.308 106.838 124.428 106.838H125.796C125.916 106.838 125.976 106.898 125.976 107.018V115.802C125.976 115.922 125.916 115.982 125.796 115.982H124.428ZM132.436 116.144C131.548 116.144 130.774 115.922 130.114 115.478C129.454 115.022 128.992 114.392 128.728 113.588C128.512 112.94 128.404 112.208 128.404 111.392C128.404 110.54 128.506 109.82 128.71 109.232C128.974 108.44 129.436 107.822 130.096 107.378C130.756 106.922 131.542 106.694 132.454 106.694C133.318 106.694 134.068 106.922 134.704 107.378C135.352 107.822 135.814 108.434 136.09 109.214C136.306 109.826 136.414 110.546 136.414 111.374C136.414 112.214 136.306 112.952 136.09 113.588C135.826 114.392 135.37 115.022 134.722 115.478C134.074 115.922 133.312 116.144 132.436 116.144ZM132.436 114.65C132.916 114.65 133.336 114.518 133.696 114.254C134.056 113.978 134.314 113.594 134.47 113.102C134.602 112.646 134.668 112.082 134.668 111.41C134.668 110.738 134.608 110.18 134.488 109.736C134.332 109.244 134.074 108.866 133.714 108.602C133.354 108.326 132.916 108.188 132.4 108.188C131.908 108.188 131.482 108.326 131.122 108.602C130.762 108.866 130.504 109.244 130.348 109.736C130.216 110.156 130.15 110.714 130.15 111.41C130.15 112.106 130.216 112.67 130.348 113.102C130.492 113.594 130.744 113.978 131.104 114.254C131.476 114.518 131.92 114.65 132.436 114.65ZM131.554 105.686C131.482 105.686 131.428 105.668 131.392 105.632C131.368 105.584 131.374 105.53 131.41 105.47L132.472 103.526C132.508 103.442 132.58 103.4 132.688 103.4H133.894C133.966 103.4 134.008 103.424 134.02 103.472C134.044 103.508 134.038 103.556 134.002 103.616L132.724 105.56C132.664 105.644 132.592 105.686 132.508 105.686H131.554ZM142.516 106.712C143.5 106.712 144.28 107 144.856 107.576C145.432 108.14 145.72 108.908 145.72 109.88V115.82C145.72 115.94 145.66 116 145.54 116H144.172C144.052 116 143.992 115.94 143.992 115.82V110.222C143.992 109.622 143.818 109.136 143.47 108.764C143.122 108.392 142.66 108.206 142.084 108.206C141.52 108.206 141.058 108.392 140.698 108.764C140.338 109.136 140.158 109.616 140.158 110.204V115.82C140.158 115.94 140.098 116 139.978 116H138.61C138.49 116 138.43 115.94 138.43 115.82V107.018C138.43 106.898 138.49 106.838 138.61 106.838H139.978C140.098 106.838 140.158 106.898 140.158 107.018V107.666C140.158 107.69 140.164 107.708 140.176 107.72C140.2 107.732 140.218 107.726 140.23 107.702C140.746 107.042 141.508 106.712 142.516 106.712ZM155.821 104.912C155.221 104.912 154.813 105.026 154.597 105.254C154.381 105.482 154.273 105.914 154.273 106.55V106.766C154.273 106.814 154.297 106.838 154.345 106.838H156.235C156.355 106.838 156.415 106.898 156.415 107.018V108.242C156.415 108.362 156.355 108.422 156.235 108.422H154.345C154.297 108.422 154.273 108.446 154.273 108.494V115.82C154.273 115.94 154.213 116 154.093 116H152.725C152.605 116 152.545 115.94 152.545 115.82V108.494C152.545 108.446 152.521 108.422 152.473 108.422H151.267C151.147 108.422 151.087 108.362 151.087 108.242V107.018C151.087 106.898 151.147 106.838 151.267 106.838H152.473C152.521 106.838 152.545 106.814 152.545 106.766V106.442C152.545 105.65 152.635 105.038 152.815 104.606C153.007 104.174 153.325 103.868 153.769 103.688C154.213 103.496 154.837 103.4 155.641 103.4H156.253C156.373 103.4 156.433 103.46 156.433 103.58V104.732C156.433 104.852 156.373 104.912 156.253 104.912H155.821ZM163.853 107.018C163.853 106.898 163.913 106.838 164.033 106.838H165.383C165.503 106.838 165.563 106.898 165.563 107.018V115.82C165.563 115.94 165.503 116 165.383 116H164.033C163.913 116 163.853 115.94 163.853 115.82V115.154C163.853 115.13 163.841 115.118 163.817 115.118C163.805 115.106 163.787 115.112 163.763 115.136C163.283 115.796 162.545 116.126 161.549 116.126C160.961 116.126 160.415 116.012 159.911 115.784C159.419 115.556 159.023 115.22 158.723 114.776C158.423 114.332 158.273 113.792 158.273 113.156V107.018C158.273 106.898 158.333 106.838 158.453 106.838H159.803C159.923 106.838 159.983 106.898 159.983 107.018V112.616C159.983 113.24 160.145 113.732 160.469 114.092C160.805 114.452 161.273 114.632 161.873 114.632C162.473 114.632 162.953 114.452 163.313 114.092C163.673 113.72 163.853 113.228 163.853 112.616V107.018ZM175.5 110.276C175.548 110.768 175.566 111.32 175.554 111.932C175.554 112.052 175.494 112.112 175.374 112.112H169.632C169.584 112.112 169.56 112.136 169.56 112.184C169.56 112.592 169.596 112.904 169.668 113.12C169.8 113.6 170.064 113.978 170.46 114.254C170.868 114.518 171.378 114.65 171.99 114.65C172.878 114.65 173.562 114.284 174.042 113.552C174.102 113.432 174.18 113.414 174.276 113.498L175.302 114.182C175.386 114.254 175.404 114.332 175.356 114.416C175.02 114.956 174.54 115.382 173.916 115.694C173.304 116.006 172.608 116.162 171.828 116.162C170.952 116.162 170.214 115.97 169.614 115.586C169.014 115.202 168.564 114.656 168.264 113.948C167.976 113.24 167.832 112.382 167.832 111.374C167.832 110.498 167.898 109.832 168.03 109.376C168.246 108.548 168.678 107.894 169.326 107.414C169.974 106.934 170.76 106.694 171.684 106.694C172.896 106.694 173.802 107 174.402 107.612C175.002 108.212 175.368 109.1 175.5 110.276ZM171.684 108.188C171.168 108.188 170.742 108.32 170.406 108.584C170.07 108.836 169.842 109.178 169.722 109.61C169.638 109.874 169.584 110.21 169.56 110.618C169.56 110.666 169.584 110.69 169.632 110.69H173.754C173.802 110.69 173.826 110.666 173.826 110.618C173.802 110.222 173.766 109.928 173.718 109.736C173.598 109.268 173.358 108.896 172.998 108.62C172.65 108.332 172.212 108.188 171.684 108.188ZM170.892 105.686C170.82 105.686 170.766 105.668 170.73 105.632C170.706 105.584 170.712 105.53 170.748 105.47L171.81 103.526C171.846 103.442 171.918 103.4 172.026 103.4H173.232C173.304 103.4 173.346 103.424 173.358 103.472C173.382 103.508 173.376 103.556 173.34 103.616L172.062 105.56C172.002 105.644 171.93 105.686 171.846 105.686H170.892ZM188.772 110.276C188.82 110.768 188.838 111.32 188.826 111.932C188.826 112.052 188.766 112.112 188.646 112.112H182.904C182.856 112.112 182.832 112.136 182.832 112.184C182.832 112.592 182.868 112.904 182.94 113.12C183.072 113.6 183.336 113.978 183.732 114.254C184.14 114.518 184.65 114.65 185.262 114.65C186.15 114.65 186.834 114.284 187.314 113.552C187.374 113.432 187.452 113.414 187.548 113.498L188.574 114.182C188.658 114.254 188.676 114.332 188.628 114.416C188.292 114.956 187.812 115.382 187.188 115.694C186.576 116.006 185.88 116.162 185.1 116.162C184.224 116.162 183.486 115.97 182.886 115.586C182.286 115.202 181.836 114.656 181.536 113.948C181.248 113.24 181.104 112.382 181.104 111.374C181.104 110.498 181.17 109.832 181.302 109.376C181.518 108.548 181.95 107.894 182.598 107.414C183.246 106.934 184.032 106.694 184.956 106.694C186.168 106.694 187.074 107 187.674 107.612C188.274 108.212 188.64 109.1 188.772 110.276ZM184.956 108.188C184.44 108.188 184.014 108.32 183.678 108.584C183.342 108.836 183.114 109.178 182.994 109.61C182.91 109.874 182.856 110.21 182.832 110.618C182.832 110.666 182.856 110.69 182.904 110.69H187.026C187.074 110.69 187.098 110.666 187.098 110.618C187.074 110.222 187.038 109.928 186.99 109.736C186.87 109.268 186.63 108.896 186.27 108.62C185.922 108.332 185.484 108.188 184.956 108.188ZM195.092 106.712C196.076 106.712 196.856 107 197.432 107.576C198.008 108.14 198.296 108.908 198.296 109.88V115.82C198.296 115.94 198.236 116 198.116 116H196.748C196.628 116 196.568 115.94 196.568 115.82V110.222C196.568 109.622 196.394 109.136 196.046 108.764C195.698 108.392 195.236 108.206 194.66 108.206C194.096 108.206 193.634 108.392 193.274 108.764C192.914 109.136 192.734 109.616 192.734 110.204V115.82C192.734 115.94 192.674 116 192.554 116H191.186C191.066 116 191.006 115.94 191.006 115.82V107.018C191.006 106.898 191.066 106.838 191.186 106.838H192.554C192.674 106.838 192.734 106.898 192.734 107.018V107.666C192.734 107.69 192.74 107.708 192.752 107.72C192.776 107.732 192.794 107.726 192.806 107.702C193.322 107.042 194.084 106.712 195.092 106.712ZM202.928 116C202.82 116 202.748 115.952 202.712 115.856L199.778 107.036L199.76 106.964C199.76 106.88 199.814 106.838 199.922 106.838H201.434C201.542 106.838 201.614 106.886 201.65 106.982L203.63 113.498C203.642 113.522 203.66 113.534 203.684 113.534C203.708 113.534 203.726 113.522 203.738 113.498L205.7 106.982C205.736 106.886 205.808 106.838 205.916 106.838L207.428 106.856C207.56 106.856 207.608 106.922 207.572 107.054L204.656 115.856C204.62 115.952 204.548 116 204.44 116H202.928ZM210.402 105.398C210.066 105.398 209.79 105.29 209.574 105.074C209.358 104.858 209.25 104.582 209.25 104.246C209.25 103.91 209.358 103.634 209.574 103.418C209.79 103.202 210.066 103.094 210.402 103.094C210.738 103.094 211.014 103.202 211.23 103.418C211.446 103.634 211.554 103.91 211.554 104.246C211.554 104.582 211.446 104.858 211.23 105.074C211.014 105.29 210.738 105.398 210.402 105.398ZM209.682 115.982C209.562 115.982 209.502 115.922 209.502 115.802V107.018C209.502 106.898 209.562 106.838 209.682 106.838H211.05C211.17 106.838 211.23 106.898 211.23 107.018V115.802C211.23 115.922 211.17 115.982 211.05 115.982H209.682ZM217.294 106.694C218.026 106.694 218.662 106.826 219.202 107.09C219.754 107.342 220.174 107.702 220.462 108.17C220.762 108.626 220.912 109.148 220.912 109.736V115.82C220.912 115.94 220.852 116 220.732 116H219.364C219.244 116 219.184 115.94 219.184 115.82V115.172C219.184 115.112 219.154 115.1 219.094 115.136C218.782 115.46 218.398 115.712 217.942 115.892C217.498 116.06 217 116.144 216.448 116.144C215.56 116.144 214.822 115.922 214.234 115.478C213.658 115.022 213.37 114.338 213.37 113.426C213.37 112.49 213.694 111.758 214.342 111.23C215.002 110.69 215.92 110.42 217.096 110.42H219.112C219.16 110.42 219.184 110.396 219.184 110.348V109.862C219.184 109.334 219.028 108.926 218.716 108.638C218.416 108.338 217.954 108.188 217.33 108.188C216.826 108.188 216.412 108.29 216.088 108.494C215.776 108.686 215.584 108.95 215.512 109.286C215.476 109.406 215.404 109.46 215.296 109.448L213.838 109.25C213.718 109.226 213.664 109.178 213.676 109.106C213.772 108.398 214.15 107.822 214.81 107.378C215.47 106.922 216.298 106.694 217.294 106.694ZM216.826 114.686C217.462 114.686 218.014 114.518 218.482 114.182C218.95 113.846 219.184 113.42 219.184 112.904V111.842C219.184 111.794 219.16 111.77 219.112 111.77H217.42C216.712 111.77 216.148 111.908 215.728 112.184C215.308 112.46 215.098 112.844 215.098 113.336C215.098 113.78 215.254 114.116 215.566 114.344C215.89 114.572 216.31 114.686 216.826 114.686ZM228.932 103.58C228.932 103.46 228.992 103.4 229.112 103.4H230.48C230.6 103.4 230.66 103.46 230.66 103.58V115.82C230.66 115.94 230.6 116 230.48 116H229.112C228.992 116 228.932 115.94 228.932 115.82V115.226C228.932 115.202 228.92 115.184 228.896 115.172C228.884 115.16 228.866 115.166 228.842 115.19C228.578 115.49 228.266 115.724 227.906 115.892C227.546 116.06 227.156 116.144 226.736 116.144C225.872 116.144 225.152 115.934 224.576 115.514C224.012 115.082 223.598 114.476 223.334 113.696C223.106 113.06 222.992 112.292 222.992 111.392C222.992 110.552 223.088 109.826 223.28 109.214C223.532 108.422 223.946 107.804 224.522 107.36C225.098 106.916 225.836 106.694 226.736 106.694C227.144 106.694 227.528 106.778 227.888 106.946C228.26 107.102 228.578 107.33 228.842 107.63C228.866 107.654 228.884 107.66 228.896 107.648C228.92 107.636 228.932 107.618 228.932 107.594V103.58ZM228.482 113.678C228.758 113.174 228.896 112.418 228.896 111.41C228.896 110.402 228.746 109.634 228.446 109.106C228.098 108.494 227.588 108.188 226.916 108.188C226.196 108.188 225.662 108.476 225.314 109.052C224.93 109.652 224.738 110.444 224.738 111.428C224.738 112.352 224.888 113.096 225.188 113.66C225.536 114.32 226.106 114.65 226.898 114.65C227.594 114.65 228.122 114.326 228.482 113.678ZM236.542 106.694C237.274 106.694 237.91 106.826 238.45 107.09C239.002 107.342 239.422 107.702 239.71 108.17C240.01 108.626 240.16 109.148 240.16 109.736V115.82C240.16 115.94 240.1 116 239.98 116H238.612C238.492 116 238.432 115.94 238.432 115.82V115.172C238.432 115.112 238.402 115.1 238.342 115.136C238.03 115.46 237.646 115.712 237.19 115.892C236.746 116.06 236.248 116.144 235.696 116.144C234.808 116.144 234.07 115.922 233.482 115.478C232.906 115.022 232.618 114.338 232.618 113.426C232.618 112.49 232.942 111.758 233.59 111.23C234.25 110.69 235.168 110.42 236.344 110.42H238.36C238.408 110.42 238.432 110.396 238.432 110.348V109.862C238.432 109.334 238.276 108.926 237.964 108.638C237.664 108.338 237.202 108.188 236.578 108.188C236.074 108.188 235.66 108.29 235.336 108.494C235.024 108.686 234.832 108.95 234.76 109.286C234.724 109.406 234.652 109.46 234.544 109.448L233.086 109.25C232.966 109.226 232.912 109.178 232.924 109.106C233.02 108.398 233.398 107.822 234.058 107.378C234.718 106.922 235.546 106.694 236.542 106.694ZM236.074 114.686C236.71 114.686 237.262 114.518 237.73 114.182C238.198 113.846 238.432 113.42 238.432 112.904V111.842C238.432 111.794 238.408 111.77 238.36 111.77H236.668C235.96 111.77 235.396 111.908 234.976 112.184C234.556 112.46 234.346 112.844 234.346 113.336C234.346 113.78 234.502 114.116 234.814 114.344C235.138 114.572 235.558 114.686 236.074 114.686ZM253.512 110.276C253.56 110.768 253.578 111.32 253.566 111.932C253.566 112.052 253.506 112.112 253.386 112.112H247.644C247.596 112.112 247.572 112.136 247.572 112.184C247.572 112.592 247.608 112.904 247.68 113.12C247.812 113.6 248.076 113.978 248.472 114.254C248.88 114.518 249.39 114.65 250.002 114.65C250.89 114.65 251.574 114.284 252.054 113.552C252.114 113.432 252.192 113.414 252.288 113.498L253.314 114.182C253.398 114.254 253.416 114.332 253.368 114.416C253.032 114.956 252.552 115.382 251.928 115.694C251.316 116.006 250.62 116.162 249.84 116.162C248.964 116.162 248.226 115.97 247.626 115.586C247.026 115.202 246.576 114.656 246.276 113.948C245.988 113.24 245.844 112.382 245.844 111.374C245.844 110.498 245.91 109.832 246.042 109.376C246.258 108.548 246.69 107.894 247.338 107.414C247.986 106.934 248.772 106.694 249.696 106.694C250.908 106.694 251.814 107 252.414 107.612C253.014 108.212 253.38 109.1 253.512 110.276ZM249.696 108.188C249.18 108.188 248.754 108.32 248.418 108.584C248.082 108.836 247.854 109.178 247.734 109.61C247.65 109.874 247.596 110.21 247.572 110.618C247.572 110.666 247.596 110.69 247.644 110.69H251.766C251.814 110.69 251.838 110.666 251.838 110.618C251.814 110.222 251.778 109.928 251.73 109.736C251.61 109.268 251.37 108.896 251.01 108.62C250.662 108.332 250.224 108.188 249.696 108.188ZM254.782 116C254.71 116 254.662 115.982 254.638 115.946C254.614 115.898 254.62 115.844 254.656 115.784L257.644 111.482C257.668 111.446 257.668 111.41 257.644 111.374L254.656 107.054L254.62 106.964C254.62 106.88 254.674 106.838 254.782 106.838H256.24C256.336 106.838 256.408 106.874 256.456 106.946L258.562 110.024C258.574 110.036 258.592 110.042 258.616 110.042C258.64 110.042 258.658 110.036 258.67 110.024L260.758 106.946C260.806 106.874 260.878 106.838 260.974 106.838H262.54C262.612 106.838 262.66 106.862 262.684 106.91C262.708 106.946 262.702 106.994 262.666 107.054L259.678 111.374C259.666 111.41 259.666 111.446 259.678 111.482L262.666 115.784L262.702 115.874C262.702 115.958 262.648 116 262.54 116H261.064C260.968 116 260.896 115.964 260.848 115.892L258.76 112.814C258.748 112.79 258.73 112.778 258.706 112.778C258.682 112.778 258.664 112.79 258.652 112.814L256.546 115.892C256.498 115.964 256.426 116 256.33 116H254.782ZM265.456 105.398C265.12 105.398 264.844 105.29 264.628 105.074C264.412 104.858 264.304 104.582 264.304 104.246C264.304 103.91 264.412 103.634 264.628 103.418C264.844 103.202 265.12 103.094 265.456 103.094C265.792 103.094 266.068 103.202 266.284 103.418C266.5 103.634 266.608 103.91 266.608 104.246C266.608 104.582 266.5 104.858 266.284 105.074C266.068 105.29 265.792 105.398 265.456 105.398ZM264.736 115.982C264.616 115.982 264.556 115.922 264.556 115.802V107.018C264.556 106.898 264.616 106.838 264.736 106.838H266.104C266.224 106.838 266.284 106.898 266.284 107.018V115.802C266.284 115.922 266.224 115.982 266.104 115.982H264.736ZM273.518 108.08C273.518 108.2 273.458 108.26 273.338 108.26H271.394C271.346 108.26 271.322 108.284 271.322 108.332V113.102C271.322 113.606 271.436 113.972 271.664 114.2C271.892 114.416 272.246 114.524 272.726 114.524H273.248C273.368 114.524 273.428 114.584 273.428 114.704V115.82C273.428 115.94 273.368 116 273.248 116C272.864 116.024 272.588 116.036 272.42 116.036C271.508 116.036 270.818 115.874 270.35 115.55C269.894 115.214 269.666 114.602 269.666 113.714V108.332C269.666 108.284 269.642 108.26 269.594 108.26H268.496C268.376 108.26 268.316 108.2 268.316 108.08V107.018C268.316 106.898 268.376 106.838 268.496 106.838H269.594C269.642 106.838 269.666 106.814 269.666 106.766V104.642C269.666 104.522 269.726 104.462 269.846 104.462H271.142C271.262 104.462 271.322 104.522 271.322 104.642V106.766C271.322 106.814 271.346 106.838 271.394 106.838H273.338C273.458 106.838 273.518 106.898 273.518 107.018V108.08ZM279.178 116.144C278.29 116.144 277.516 115.922 276.856 115.478C276.196 115.022 275.734 114.392 275.47 113.588C275.254 112.94 275.146 112.208 275.146 111.392C275.146 110.54 275.248 109.82 275.452 109.232C275.716 108.44 276.178 107.822 276.838 107.378C277.498 106.922 278.284 106.694 279.196 106.694C280.06 106.694 280.81 106.922 281.446 107.378C282.094 107.822 282.556 108.434 282.832 109.214C283.048 109.826 283.156 110.546 283.156 111.374C283.156 112.214 283.048 112.952 282.832 113.588C282.568 114.392 282.112 115.022 281.464 115.478C280.816 115.922 280.054 116.144 279.178 116.144ZM279.178 114.65C279.658 114.65 280.078 114.518 280.438 114.254C280.798 113.978 281.056 113.594 281.212 113.102C281.344 112.646 281.41 112.082 281.41 111.41C281.41 110.738 281.35 110.18 281.23 109.736C281.074 109.244 280.816 108.866 280.456 108.602C280.096 108.326 279.658 108.188 279.142 108.188C278.65 108.188 278.224 108.326 277.864 108.602C277.504 108.866 277.246 109.244 277.09 109.736C276.958 110.156 276.892 110.714 276.892 111.41C276.892 112.106 276.958 112.67 277.09 113.102C277.234 113.594 277.486 113.978 277.846 114.254C278.218 114.518 278.662 114.65 279.178 114.65ZM288.64 116.108C287.92 116.108 287.284 116 286.732 115.784C286.192 115.568 285.772 115.274 285.472 114.902C285.172 114.518 285.022 114.098 285.022 113.642V113.444C285.022 113.324 285.082 113.264 285.202 113.264H286.498C286.618 113.264 286.678 113.324 286.678 113.444V113.534C286.678 113.87 286.858 114.164 287.218 114.416C287.59 114.668 288.058 114.794 288.622 114.794C289.162 114.794 289.6 114.68 289.936 114.452C290.272 114.212 290.44 113.912 290.44 113.552C290.44 113.204 290.284 112.946 289.972 112.778C289.66 112.598 289.156 112.412 288.46 112.22C287.776 112.028 287.2 111.836 286.732 111.644C286.276 111.44 285.886 111.158 285.562 110.798C285.25 110.426 285.094 109.952 285.094 109.376C285.094 108.572 285.406 107.936 286.03 107.468C286.666 106.988 287.506 106.748 288.55 106.748C289.246 106.748 289.858 106.862 290.386 107.09C290.926 107.306 291.34 107.612 291.628 108.008C291.916 108.404 292.06 108.848 292.06 109.34V109.394C292.06 109.514 292 109.574 291.88 109.574H290.62C290.5 109.574 290.44 109.514 290.44 109.394V109.34C290.44 108.992 290.266 108.704 289.918 108.476C289.582 108.236 289.12 108.116 288.532 108.116C288.004 108.116 287.572 108.218 287.236 108.422C286.912 108.626 286.75 108.902 286.75 109.25C286.75 109.598 286.906 109.862 287.218 110.042C287.542 110.222 288.058 110.414 288.766 110.618C289.462 110.81 290.038 111.002 290.494 111.194C290.962 111.374 291.358 111.65 291.682 112.022C292.006 112.382 292.168 112.856 292.168 113.444C292.168 114.26 291.844 114.908 291.196 115.388C290.56 115.868 289.708 116.108 288.64 116.108ZM297.538 106.694C298.27 106.694 298.906 106.826 299.446 107.09C299.998 107.342 300.418 107.702 300.706 108.17C301.006 108.626 301.156 109.148 301.156 109.736V115.82C301.156 115.94 301.096 116 300.976 116H299.608C299.488 116 299.428 115.94 299.428 115.82V115.172C299.428 115.112 299.398 115.1 299.338 115.136C299.026 115.46 298.642 115.712 298.186 115.892C297.742 116.06 297.244 116.144 296.692 116.144C295.804 116.144 295.066 115.922 294.478 115.478C293.902 115.022 293.614 114.338 293.614 113.426C293.614 112.49 293.938 111.758 294.586 111.23C295.246 110.69 296.164 110.42 297.34 110.42H299.356C299.404 110.42 299.428 110.396 299.428 110.348V109.862C299.428 109.334 299.272 108.926 298.96 108.638C298.66 108.338 298.198 108.188 297.574 108.188C297.07 108.188 296.656 108.29 296.332 108.494C296.02 108.686 295.828 108.95 295.756 109.286C295.72 109.406 295.648 109.46 295.54 109.448L294.082 109.25C293.962 109.226 293.908 109.178 293.92 109.106C294.016 108.398 294.394 107.822 295.054 107.378C295.714 106.922 296.542 106.694 297.538 106.694ZM297.07 114.686C297.706 114.686 298.258 114.518 298.726 114.182C299.194 113.846 299.428 113.42 299.428 112.904V111.842C299.428 111.794 299.404 111.77 299.356 111.77H297.664C296.956 111.77 296.392 111.908 295.972 112.184C295.552 112.46 295.342 112.844 295.342 113.336C295.342 113.78 295.498 114.116 295.81 114.344C296.134 114.572 296.554 114.686 297.07 114.686ZM313.011 106.712C313.923 106.712 314.643 106.988 315.171 107.54C315.699 108.08 315.963 108.836 315.963 109.808V115.82C315.963 115.94 315.903 116 315.783 116H314.433C314.313 116 314.253 115.94 314.253 115.82V110.168C314.253 109.568 314.085 109.094 313.749 108.746C313.425 108.386 312.987 108.206 312.435 108.206C311.883 108.206 311.433 108.38 311.085 108.728C310.737 109.076 310.563 109.544 310.563 110.132V115.82C310.563 115.94 310.503 116 310.383 116H309.033C308.913 116 308.853 115.94 308.853 115.82V110.168C308.853 109.568 308.685 109.094 308.349 108.746C308.025 108.386 307.587 108.206 307.035 108.206C306.483 108.206 306.039 108.38 305.703 108.728C305.379 109.076 305.217 109.544 305.217 110.132V115.82C305.217 115.94 305.157 116 305.037 116H303.669C303.549 116 303.489 115.94 303.489 115.82V107.018C303.489 106.898 303.549 106.838 303.669 106.838H305.037C305.157 106.838 305.217 106.898 305.217 107.018V107.63C305.217 107.654 305.223 107.672 305.235 107.684C305.259 107.696 305.283 107.69 305.307 107.666C305.835 107.03 306.603 106.712 307.611 106.712C308.223 106.712 308.745 106.832 309.177 107.072C309.609 107.3 309.945 107.642 310.185 108.098C310.221 108.146 310.257 108.146 310.293 108.098C310.581 107.63 310.959 107.282 311.427 107.054C311.907 106.826 312.435 106.712 313.011 106.712ZM325.67 110.276C325.718 110.768 325.736 111.32 325.724 111.932C325.724 112.052 325.664 112.112 325.544 112.112H319.802C319.754 112.112 319.73 112.136 319.73 112.184C319.73 112.592 319.766 112.904 319.838 113.12C319.97 113.6 320.234 113.978 320.63 114.254C321.038 114.518 321.548 114.65 322.16 114.65C323.048 114.65 323.732 114.284 324.212 113.552C324.272 113.432 324.35 113.414 324.446 113.498L325.472 114.182C325.556 114.254 325.574 114.332 325.526 114.416C325.19 114.956 324.71 115.382 324.086 115.694C323.474 116.006 322.778 116.162 321.998 116.162C321.122 116.162 320.384 115.97 319.784 115.586C319.184 115.202 318.734 114.656 318.434 113.948C318.146 113.24 318.002 112.382 318.002 111.374C318.002 110.498 318.068 109.832 318.2 109.376C318.416 108.548 318.848 107.894 319.496 107.414C320.144 106.934 320.93 106.694 321.854 106.694C323.066 106.694 323.972 107 324.572 107.612C325.172 108.212 325.538 109.1 325.67 110.276ZM321.854 108.188C321.338 108.188 320.912 108.32 320.576 108.584C320.24 108.836 320.012 109.178 319.892 109.61C319.808 109.874 319.754 110.21 319.73 110.618C319.73 110.666 319.754 110.69 319.802 110.69H323.924C323.972 110.69 323.996 110.666 323.996 110.618C323.972 110.222 323.936 109.928 323.888 109.736C323.768 109.268 323.528 108.896 323.168 108.62C322.82 108.332 322.382 108.188 321.854 108.188ZM331.991 106.712C332.975 106.712 333.755 107 334.331 107.576C334.907 108.14 335.195 108.908 335.195 109.88V115.82C335.195 115.94 335.135 116 335.015 116H333.647C333.527 116 333.467 115.94 333.467 115.82V110.222C333.467 109.622 333.293 109.136 332.945 108.764C332.597 108.392 332.135 108.206 331.559 108.206C330.995 108.206 330.533 108.392 330.173 108.764C329.813 109.136 329.633 109.616 329.633 110.204V115.82C329.633 115.94 329.573 116 329.453 116H328.085C327.965 116 327.905 115.94 327.905 115.82V107.018C327.905 106.898 327.965 106.838 328.085 106.838H329.453C329.573 106.838 329.633 106.898 329.633 107.018V107.666C329.633 107.69 329.639 107.708 329.651 107.72C329.675 107.732 329.693 107.726 329.705 107.702C330.221 107.042 330.983 106.712 331.991 106.712ZM342.178 108.08C342.178 108.2 342.118 108.26 341.998 108.26H340.054C340.006 108.26 339.982 108.284 339.982 108.332V113.102C339.982 113.606 340.096 113.972 340.324 114.2C340.552 114.416 340.906 114.524 341.386 114.524H341.908C342.028 114.524 342.088 114.584 342.088 114.704V115.82C342.088 115.94 342.028 116 341.908 116C341.524 116.024 341.248 116.036 341.08 116.036C340.168 116.036 339.478 115.874 339.01 115.55C338.554 115.214 338.326 114.602 338.326 113.714V108.332C338.326 108.284 338.302 108.26 338.254 108.26H337.156C337.036 108.26 336.976 108.2 336.976 108.08V107.018C336.976 106.898 337.036 106.838 337.156 106.838H338.254C338.302 106.838 338.326 106.814 338.326 106.766V104.642C338.326 104.522 338.386 104.462 338.506 104.462H339.802C339.922 104.462 339.982 104.522 339.982 104.642V106.766C339.982 106.814 340.006 106.838 340.054 106.838H341.998C342.118 106.838 342.178 106.898 342.178 107.018V108.08ZM351.51 110.276C351.558 110.768 351.576 111.32 351.564 111.932C351.564 112.052 351.504 112.112 351.384 112.112H345.642C345.594 112.112 345.57 112.136 345.57 112.184C345.57 112.592 345.606 112.904 345.678 113.12C345.81 113.6 346.074 113.978 346.47 114.254C346.878 114.518 347.388 114.65 348 114.65C348.888 114.65 349.572 114.284 350.052 113.552C350.112 113.432 350.19 113.414 350.286 113.498L351.312 114.182C351.396 114.254 351.414 114.332 351.366 114.416C351.03 114.956 350.55 115.382 349.926 115.694C349.314 116.006 348.618 116.162 347.838 116.162C346.962 116.162 346.224 115.97 345.624 115.586C345.024 115.202 344.574 114.656 344.274 113.948C343.986 113.24 343.842 112.382 343.842 111.374C343.842 110.498 343.908 109.832 344.04 109.376C344.256 108.548 344.688 107.894 345.336 107.414C345.984 106.934 346.77 106.694 347.694 106.694C348.906 106.694 349.812 107 350.412 107.612C351.012 108.212 351.378 109.1 351.51 110.276ZM347.694 108.188C347.178 108.188 346.752 108.32 346.416 108.584C346.08 108.836 345.852 109.178 345.732 109.61C345.648 109.874 345.594 110.21 345.57 110.618C345.57 110.666 345.594 110.69 345.642 110.69H349.764C349.812 110.69 349.836 110.666 349.836 110.618C349.812 110.222 349.776 109.928 349.728 109.736C349.608 109.268 349.368 108.896 349.008 108.62C348.66 108.332 348.222 108.188 347.694 108.188ZM354.563 116C354.227 116 353.951 115.892 353.735 115.676C353.519 115.46 353.411 115.184 353.411 114.848C353.411 114.512 353.519 114.236 353.735 114.02C353.951 113.804 354.227 113.696 354.563 113.696C354.899 113.696 355.175 113.804 355.391 114.02C355.607 114.236 355.715 114.512 355.715 114.848C355.715 115.184 355.607 115.46 355.391 115.676C355.175 115.892 354.899 116 354.563 116Z" fill="#191919"/>
<path d="M137.542 70.424C137.953 70.424 138.29 70.556 138.554 70.82C138.818 71.084 138.95 71.4213 138.95 71.832C138.95 72.2427 138.818 72.58 138.554 72.844C138.29 73.108 137.953 73.24 137.542 73.24C137.131 73.24 136.794 73.108 136.53 72.844C136.266 72.58 136.134 72.2427 136.134 71.832C136.134 71.4213 136.266 71.084 136.53 70.82C136.794 70.556 137.131 70.424 137.542 70.424ZM136.772 75.704C136.772 75.5573 136.845 75.484 136.992 75.484H138.29C138.437 75.484 138.51 75.5573 138.51 75.704L138.686 85.538C138.686 85.6847 138.613 85.758 138.466 85.758H136.794C136.647 85.758 136.574 85.6847 136.574 85.538L136.772 75.704ZM153.231 72.206C153.231 72.3527 153.157 72.426 153.011 72.426H145.223C145.164 72.426 145.135 72.4553 145.135 72.514V77.244C145.135 77.3027 145.164 77.332 145.223 77.332H150.569C150.715 77.332 150.789 77.4053 150.789 77.552V78.938C150.789 79.0847 150.715 79.158 150.569 79.158H145.223C145.164 79.158 145.135 79.1873 145.135 79.246V85.78C145.135 85.9267 145.061 86 144.915 86H143.243C143.096 86 143.023 85.9267 143.023 85.78V70.82C143.023 70.6733 143.096 70.6 143.243 70.6H153.011C153.157 70.6 153.231 70.6733 153.231 70.82V72.206ZM163.231 79.004C163.29 79.6053 163.312 80.28 163.297 81.028C163.297 81.1747 163.224 81.248 163.077 81.248H156.059C156 81.248 155.971 81.2773 155.971 81.336C155.971 81.8347 156.015 82.216 156.103 82.48C156.264 83.0667 156.587 83.5287 157.071 83.866C157.57 84.1887 158.193 84.35 158.941 84.35C160.026 84.35 160.862 83.9027 161.449 83.008C161.522 82.8613 161.618 82.8393 161.735 82.942L162.989 83.778C163.092 83.866 163.114 83.9613 163.055 84.064C162.644 84.724 162.058 85.2447 161.295 85.626C160.547 86.0073 159.696 86.198 158.743 86.198C157.672 86.198 156.77 85.9633 156.037 85.494C155.304 85.0247 154.754 84.3573 154.387 83.492C154.035 82.6267 153.859 81.578 153.859 80.346C153.859 79.2753 153.94 78.4613 154.101 77.904C154.365 76.892 154.893 76.0927 155.685 75.506C156.477 74.9193 157.438 74.626 158.567 74.626C160.048 74.626 161.156 75 161.889 75.748C162.622 76.4813 163.07 77.5667 163.231 79.004ZM158.567 76.452C157.936 76.452 157.416 76.6133 157.005 76.936C156.594 77.244 156.316 77.662 156.169 78.19C156.066 78.5127 156 78.9233 155.971 79.422C155.971 79.4807 156 79.51 156.059 79.51H161.097C161.156 79.51 161.185 79.4807 161.185 79.422C161.156 78.938 161.112 78.5787 161.053 78.344C160.906 77.772 160.613 77.3173 160.173 76.98C159.748 76.628 159.212 76.452 158.567 76.452ZM166.182 86C166.035 86 165.962 85.9267 165.962 85.78V70.82C165.962 70.6733 166.035 70.6 166.182 70.6H167.854C168.001 70.6 168.074 70.6733 168.074 70.82V85.78C168.074 85.9267 168.001 86 167.854 86H166.182ZM172.416 73.042C172.005 73.042 171.668 72.91 171.404 72.646C171.14 72.382 171.008 72.0447 171.008 71.634C171.008 71.2233 171.14 70.886 171.404 70.622C171.668 70.358 172.005 70.226 172.416 70.226C172.826 70.226 173.164 70.358 173.428 70.622C173.692 70.886 173.824 71.2233 173.824 71.634C173.824 72.0447 173.692 72.382 173.428 72.646C173.164 72.91 172.826 73.042 172.416 73.042ZM171.536 85.978C171.389 85.978 171.316 85.9047 171.316 85.758V75.022C171.316 74.8753 171.389 74.802 171.536 74.802H173.208C173.354 74.802 173.428 74.8753 173.428 75.022V85.758C173.428 85.9047 173.354 85.978 173.208 85.978H171.536ZM181.235 86.176C180.12 86.176 179.167 85.8973 178.375 85.34C177.583 84.768 177.04 83.998 176.747 83.03C176.527 82.3553 176.417 81.468 176.417 80.368C176.417 79.356 176.527 78.4687 176.747 77.706C177.04 76.7673 177.583 76.0193 178.375 75.462C179.182 74.9047 180.135 74.626 181.235 74.626C182.335 74.626 183.296 74.9047 184.117 75.462C184.938 76.0193 185.474 76.7233 185.723 77.574C185.811 77.8087 185.87 78.0507 185.899 78.3C185.899 78.4173 185.833 78.4907 185.701 78.52L184.051 78.762H184.007C183.904 78.762 183.831 78.696 183.787 78.564L183.721 78.212C183.604 77.7133 183.318 77.2953 182.863 76.958C182.408 76.6207 181.858 76.452 181.213 76.452C180.582 76.452 180.047 76.6207 179.607 76.958C179.167 77.2953 178.881 77.7427 178.749 78.3C178.617 78.828 178.551 79.5247 178.551 80.39C178.551 81.2407 178.617 81.93 178.749 82.458C178.896 83.0447 179.182 83.5067 179.607 83.844C180.047 84.1813 180.582 84.35 181.213 84.35C181.858 84.35 182.408 84.1813 182.863 83.844C183.332 83.5067 183.626 83.0667 183.743 82.524C183.758 82.5093 183.758 82.4947 183.743 82.48C183.743 82.4507 183.75 82.4287 183.765 82.414V82.326C183.809 82.2087 183.89 82.1647 184.007 82.194L185.657 82.458C185.774 82.4873 185.833 82.546 185.833 82.634V82.722C185.833 82.854 185.796 83.0153 185.723 83.206C185.474 84.1007 184.938 84.8193 184.117 85.362C183.296 85.9047 182.335 86.176 181.235 86.176ZM189.603 73.042C189.192 73.042 188.855 72.91 188.591 72.646C188.327 72.382 188.195 72.0447 188.195 71.634C188.195 71.2233 188.327 70.886 188.591 70.622C188.855 70.358 189.192 70.226 189.603 70.226C190.014 70.226 190.351 70.358 190.615 70.622C190.879 70.886 191.011 71.2233 191.011 71.634C191.011 72.0447 190.879 72.382 190.615 72.646C190.351 72.91 190.014 73.042 189.603 73.042ZM188.723 85.978C188.576 85.978 188.503 85.9047 188.503 85.758V75.022C188.503 74.8753 188.576 74.802 188.723 74.802H190.395C190.542 74.802 190.615 74.8753 190.615 75.022V85.758C190.615 85.9047 190.542 85.978 190.395 85.978H188.723ZM199.457 76.32C199.457 76.4667 199.383 76.54 199.237 76.54H196.861C196.802 76.54 196.773 76.5693 196.773 76.628V82.458C196.773 83.074 196.912 83.5213 197.191 83.8C197.469 84.064 197.902 84.196 198.489 84.196H199.127C199.273 84.196 199.347 84.2693 199.347 84.416V85.78C199.347 85.9267 199.273 86 199.127 86C198.657 86.0293 198.32 86.044 198.115 86.044C197 86.044 196.157 85.846 195.585 85.45C195.027 85.0393 194.749 84.2913 194.749 83.206V76.628C194.749 76.5693 194.719 76.54 194.661 76.54H193.319C193.172 76.54 193.099 76.4667 193.099 76.32V75.022C193.099 74.8753 193.172 74.802 193.319 74.802H194.661C194.719 74.802 194.749 74.7727 194.749 74.714V72.118C194.749 71.9713 194.822 71.898 194.969 71.898H196.553C196.699 71.898 196.773 71.9713 196.773 72.118V74.714C196.773 74.7727 196.802 74.802 196.861 74.802H199.237C199.383 74.802 199.457 74.8753 199.457 75.022V76.32ZM206.148 74.626C207.042 74.626 207.82 74.7873 208.48 75.11C209.154 75.418 209.668 75.858 210.02 76.43C210.386 76.9873 210.57 77.6253 210.57 78.344V85.78C210.57 85.9267 210.496 86 210.35 86H208.678C208.531 86 208.458 85.9267 208.458 85.78V84.988C208.458 84.9147 208.421 84.9 208.348 84.944C207.966 85.34 207.497 85.648 206.94 85.868C206.397 86.0733 205.788 86.176 205.114 86.176C204.028 86.176 203.126 85.9047 202.408 85.362C201.704 84.8047 201.352 83.9687 201.352 82.854C201.352 81.71 201.748 80.8153 202.54 80.17C203.346 79.51 204.468 79.18 205.906 79.18H208.37C208.428 79.18 208.458 79.1507 208.458 79.092V78.498C208.458 77.8527 208.267 77.354 207.886 77.002C207.519 76.6353 206.954 76.452 206.192 76.452C205.576 76.452 205.07 76.5767 204.674 76.826C204.292 77.0607 204.058 77.3833 203.97 77.794C203.926 77.9407 203.838 78.0067 203.706 77.992L201.924 77.75C201.777 77.7207 201.711 77.662 201.726 77.574C201.843 76.7087 202.305 76.0047 203.112 75.462C203.918 74.9047 204.93 74.626 206.148 74.626ZM205.576 84.394C206.353 84.394 207.028 84.1887 207.6 83.778C208.172 83.3673 208.458 82.8467 208.458 82.216V80.918C208.458 80.8593 208.428 80.83 208.37 80.83H206.302C205.436 80.83 204.747 80.9987 204.234 81.336C203.72 81.6733 203.464 82.1427 203.464 82.744C203.464 83.2867 203.654 83.6973 204.036 83.976C204.432 84.2547 204.945 84.394 205.576 84.394ZM217.909 86.176C216.794 86.176 215.841 85.8973 215.049 85.34C214.257 84.768 213.714 83.998 213.421 83.03C213.201 82.3553 213.091 81.468 213.091 80.368C213.091 79.356 213.201 78.4687 213.421 77.706C213.714 76.7673 214.257 76.0193 215.049 75.462C215.856 74.9047 216.809 74.626 217.909 74.626C219.009 74.626 219.97 74.9047 220.791 75.462C221.612 76.0193 222.148 76.7233 222.397 77.574C222.485 77.8087 222.544 78.0507 222.573 78.3C222.573 78.4173 222.507 78.4907 222.375 78.52L220.725 78.762H220.681C220.578 78.762 220.505 78.696 220.461 78.564L220.395 78.212C220.278 77.7133 219.992 77.2953 219.537 76.958C219.082 76.6207 218.532 76.452 217.887 76.452C217.256 76.452 216.721 76.6207 216.281 76.958C215.841 77.2953 215.555 77.7427 215.423 78.3C215.291 78.828 215.225 79.5247 215.225 80.39C215.225 81.2407 215.291 81.93 215.423 82.458C215.57 83.0447 215.856 83.5067 216.281 83.844C216.721 84.1813 217.256 84.35 217.887 84.35C218.532 84.35 219.082 84.1813 219.537 83.844C220.006 83.5067 220.3 83.0667 220.417 82.524C220.432 82.5093 220.432 82.4947 220.417 82.48C220.417 82.4507 220.424 82.4287 220.439 82.414V82.326C220.483 82.2087 220.564 82.1647 220.681 82.194L222.331 82.458C222.448 82.4873 222.507 82.546 222.507 82.634V82.722C222.507 82.854 222.47 83.0153 222.397 83.206C222.148 84.1007 221.612 84.8193 220.791 85.362C219.97 85.9047 219.009 86.176 217.909 86.176ZM226.277 73.042C225.866 73.042 225.529 72.91 225.265 72.646C225.001 72.382 224.869 72.0447 224.869 71.634C224.869 71.2233 225.001 70.886 225.265 70.622C225.529 70.358 225.866 70.226 226.277 70.226C226.688 70.226 227.025 70.358 227.289 70.622C227.553 70.886 227.685 71.2233 227.685 71.634C227.685 72.0447 227.553 72.382 227.289 72.646C227.025 72.91 226.688 73.042 226.277 73.042ZM225.397 85.978C225.25 85.978 225.177 85.9047 225.177 85.758V75.022C225.177 74.8753 225.25 74.802 225.397 74.802H227.069C227.216 74.802 227.289 74.8753 227.289 75.022V85.758C227.289 85.9047 227.216 85.978 227.069 85.978H225.397ZM235.184 86.176C234.099 86.176 233.153 85.9047 232.346 85.362C231.54 84.8047 230.975 84.0347 230.652 83.052C230.388 82.26 230.256 81.3653 230.256 80.368C230.256 79.3267 230.381 78.4467 230.63 77.728C230.953 76.76 231.518 76.0047 232.324 75.462C233.131 74.9047 234.092 74.626 235.206 74.626C236.262 74.626 237.179 74.9047 237.956 75.462C238.748 76.0047 239.313 76.7527 239.65 77.706C239.914 78.454 240.046 79.334 240.046 80.346C240.046 81.3727 239.914 82.2747 239.65 83.052C239.328 84.0347 238.77 84.8047 237.978 85.362C237.186 85.9047 236.255 86.176 235.184 86.176ZM235.184 84.35C235.771 84.35 236.284 84.1887 236.724 83.866C237.164 83.5287 237.48 83.0593 237.67 82.458C237.832 81.9007 237.912 81.2113 237.912 80.39C237.912 79.5687 237.839 78.8867 237.692 78.344C237.502 77.7427 237.186 77.2807 236.746 76.958C236.306 76.6207 235.771 76.452 235.14 76.452C234.539 76.452 234.018 76.6207 233.578 76.958C233.138 77.2807 232.823 77.7427 232.632 78.344C232.471 78.8573 232.39 79.5393 232.39 80.39C232.39 81.2407 232.471 81.93 232.632 82.458C232.808 83.0593 233.116 83.5287 233.556 83.866C234.011 84.1887 234.554 84.35 235.184 84.35ZM247.805 74.648C249.008 74.648 249.961 75 250.665 75.704C251.369 76.3933 251.721 77.332 251.721 78.52V85.78C251.721 85.9267 251.648 86 251.501 86H249.829C249.683 86 249.609 85.9267 249.609 85.78V78.938C249.609 78.2047 249.397 77.6107 248.971 77.156C248.546 76.7013 247.981 76.474 247.277 76.474C246.588 76.474 246.023 76.7013 245.583 77.156C245.143 77.6107 244.923 78.1973 244.923 78.916V85.78C244.923 85.9267 244.85 86 244.703 86H243.031C242.885 86 242.811 85.9267 242.811 85.78V75.022C242.811 74.8753 242.885 74.802 243.031 74.802H244.703C244.85 74.802 244.923 74.8753 244.923 75.022V75.814C244.923 75.8433 244.931 75.8653 244.945 75.88C244.975 75.8947 244.997 75.8873 245.011 75.858C245.642 75.0513 246.573 74.648 247.805 74.648ZM263.67 79.004C263.729 79.6053 263.751 80.28 263.736 81.028C263.736 81.1747 263.663 81.248 263.516 81.248H256.498C256.44 81.248 256.41 81.2773 256.41 81.336C256.41 81.8347 256.454 82.216 256.542 82.48C256.704 83.0667 257.026 83.5287 257.51 83.866C258.009 84.1887 258.632 84.35 259.38 84.35C260.466 84.35 261.302 83.9027 261.888 83.008C261.962 82.8613 262.057 82.8393 262.174 82.942L263.428 83.778C263.531 83.866 263.553 83.9613 263.494 84.064C263.084 84.724 262.497 85.2447 261.734 85.626C260.986 86.0073 260.136 86.198 259.182 86.198C258.112 86.198 257.21 85.9633 256.476 85.494C255.743 85.0247 255.193 84.3573 254.826 83.492C254.474 82.6267 254.298 81.578 254.298 80.346C254.298 79.2753 254.379 78.4613 254.54 77.904C254.804 76.892 255.332 76.0927 256.124 75.506C256.916 74.9193 257.877 74.626 259.006 74.626C260.488 74.626 261.595 75 262.328 75.748C263.062 76.4813 263.509 77.5667 263.67 79.004ZM259.006 76.452C258.376 76.452 257.855 76.6133 257.444 76.936C257.034 77.244 256.755 77.662 256.608 78.19C256.506 78.5127 256.44 78.9233 256.41 79.422C256.41 79.4807 256.44 79.51 256.498 79.51H261.536C261.595 79.51 261.624 79.4807 261.624 79.422C261.595 78.938 261.551 78.5787 261.492 78.344C261.346 77.772 261.052 77.3173 260.612 76.98C260.187 76.628 259.652 76.452 259.006 76.452ZM270.167 86.132C269.287 86.132 268.51 86 267.835 85.736C267.175 85.472 266.662 85.1127 266.295 84.658C265.929 84.1887 265.745 83.6753 265.745 83.118V82.876C265.745 82.7293 265.819 82.656 265.965 82.656H267.549C267.696 82.656 267.769 82.7293 267.769 82.876V82.986C267.769 83.3967 267.989 83.756 268.429 84.064C268.884 84.372 269.456 84.526 270.145 84.526C270.805 84.526 271.341 84.3867 271.751 84.108C272.162 83.8147 272.367 83.448 272.367 83.008C272.367 82.5827 272.177 82.2673 271.795 82.062C271.414 81.842 270.798 81.6147 269.947 81.38C269.111 81.1453 268.407 80.9107 267.835 80.676C267.278 80.4267 266.801 80.082 266.405 79.642C266.024 79.1873 265.833 78.608 265.833 77.904C265.833 76.9213 266.215 76.144 266.977 75.572C267.755 74.9853 268.781 74.692 270.057 74.692C270.908 74.692 271.656 74.8313 272.301 75.11C272.961 75.374 273.467 75.748 273.819 76.232C274.171 76.716 274.347 77.2587 274.347 77.86V77.926C274.347 78.0727 274.274 78.146 274.127 78.146H272.587C272.441 78.146 272.367 78.0727 272.367 77.926V77.86C272.367 77.4347 272.155 77.0827 271.729 76.804C271.319 76.5107 270.754 76.364 270.035 76.364C269.39 76.364 268.862 76.4887 268.451 76.738C268.055 76.9873 267.857 77.3247 267.857 77.75C267.857 78.1753 268.048 78.498 268.429 78.718C268.825 78.938 269.456 79.1727 270.321 79.422C271.172 79.6567 271.876 79.8913 272.433 80.126C273.005 80.346 273.489 80.6833 273.885 81.138C274.281 81.578 274.479 82.1573 274.479 82.876C274.479 83.8733 274.083 84.6653 273.291 85.252C272.514 85.8387 271.473 86.132 270.167 86.132ZM278.402 80.896C278.255 80.896 278.182 80.8227 278.182 80.676L277.984 70.82C277.984 70.6733 278.057 70.6 278.204 70.6H279.876C280.023 70.6 280.096 70.6733 280.096 70.82L279.92 80.676C279.92 80.8227 279.847 80.896 279.7 80.896H278.402ZM278.952 85.934C278.541 85.934 278.204 85.802 277.94 85.538C277.676 85.274 277.544 84.9367 277.544 84.526C277.544 84.1153 277.676 83.778 277.94 83.514C278.204 83.25 278.541 83.118 278.952 83.118C279.363 83.118 279.7 83.25 279.964 83.514C280.228 83.778 280.36 84.1153 280.36 84.526C280.36 84.9367 280.228 85.274 279.964 85.538C279.7 85.802 279.363 85.934 278.952 85.934Z" fill="#191919"/>
</svg>
