<svg width="111" height="81" viewBox="0 0 111 81" fill="none" xmlns="http://www.w3.org/2000/svg">
<path d="M0.5 0H103C107.418 0 111 3.58172 111 8V54.5L40.6044 78.1166C36.6078 79.4574 32.2566 77.4669 30.6577 73.5665L0.5 0Z" fill="#42E8B4"/>
<path fill-rule="evenodd" clip-rule="evenodd" d="M81 34C81 43.9411 72.9411 52 63 52C53.0589 52 45 43.9411 45 34C45 24.0589 53.0589 16 63 16C72.9411 16 81 24.0589 81 34ZM73.5853 45.9983C76.9058 43.0665 79 38.7778 79 34C79 25.1634 71.8366 18 63 18C54.1634 18 47 25.1634 47 34C47 38.7779 49.0942 43.0666 52.4148 45.9984C53.3218 42.7942 55.6436 40.1847 58.6629 38.888C55.8848 37.3559 54.0029 34.3986 54.0029 31.0017C54.0029 26.0311 58.0324 22.0017 63.0029 22.0017C67.9735 22.0017 72.0029 26.0311 72.0029 31.0017C72.0029 34.3996 70.1199 37.3577 67.3405 38.8894C70.3581 40.1866 72.6786 42.7953 73.5853 45.9983ZM71.8464 47.3341C71.0731 43.1998 67.4712 40.0608 63.1268 40.0009C63.0856 40.0014 63.0443 40.0017 63.0029 40.0017C62.9606 40.0017 62.9184 40.0014 62.8763 40.0008C58.5306 40.0594 54.9272 43.1989 54.1538 47.3341C56.6877 49.0186 59.7292 50 63 50C66.2708 50 69.3124 49.0185 71.8464 47.3341ZM63.124 38.0007C66.9341 37.9361 70.0029 34.8273 70.0029 31.0017C70.0029 27.1357 66.8689 24.0017 63.0029 24.0017C59.1369 24.0017 56.0029 27.1357 56.0029 31.0017C56.0029 34.8265 59.0705 37.9349 62.8797 38.0006C62.9197 38.0002 62.9599 38 63.0001 38C63.0414 38 63.0827 38.0002 63.124 38.0007Z" fill="#002EFF"/>
</svg>
