<svg width="24" height="25" viewBox="0 0 24 25" fill="none" xmlns="http://www.w3.org/2000/svg">
<path fill-rule="evenodd" clip-rule="evenodd" d="M19 6.09332V4.09332C19 2.98875 18.1046 2.09332 17 2.09332H7C5.89543 2.09332 5 2.98875 5 4.09332V6.09332H3C1.34315 6.09332 0 7.43647 0 9.09332V18.0933C0 19.7502 1.34315 21.0933 3 21.0933H5.26756C5.61337 21.6911 6.25972 22.0933 7 22.0933H17C17.7403 22.0933 18.3866 21.6911 18.7324 21.0933H21C22.6569 21.0933 24 19.7502 24 18.0933V9.09332C24 7.43647 22.6569 6.09332 21 6.09332H19ZM7 4.09332V6.09332H17V4.09332H7ZM3 8.09332C2.44772 8.09332 2 8.54104 2 9.09332V18.0933C2 18.6456 2.44772 19.0933 3 19.0933H5V16.0933C5 14.9888 5.89543 14.0933 7 14.0933H17C18.1046 14.0933 19 14.9888 19 16.0933V19.0933H21C21.5523 19.0933 22 18.6456 22 18.0933V9.09332C22 8.54104 21.5523 8.09332 21 8.09332H3ZM17 20.0933H7V16.0933H17V20.0933Z" fill="#002EFF"/>
</svg>
