<svg width="24" height="24" viewBox="0 0 24 24" fill="none" xmlns="http://www.w3.org/2000/svg">
<path d="M12.0096 8.33887C12.5618 8.33887 13.0096 8.78658 13.0096 9.33887V17.0055H13.3428C13.8951 17.0055 14.3428 17.4532 14.3428 18.0055C14.3428 18.5578 13.8951 19.0055 13.3428 19.0055H10.6761C10.1239 19.0055 9.67615 18.5578 9.67615 18.0055C9.67615 17.4532 10.1239 17.0055 10.6761 17.0055H11.0096V10.339H10.6666C10.1143 10.339 9.66663 9.89131 9.66663 9.33903C9.66663 8.78675 10.1143 8.33903 10.6666 8.33903H11.9913L12.0096 8.33887Z" fill="#002EFF"/>
<path d="M13.246 5.99365C13.246 6.68401 12.6863 7.24365 11.996 7.24365C11.3056 7.24365 10.746 6.68401 10.746 5.99365C10.746 5.3033 11.3056 4.74365 11.996 4.74365C12.6863 4.74365 13.246 5.3033 13.246 5.99365Z" fill="#002EFF"/>
<path fill-rule="evenodd" clip-rule="evenodd" d="M24 12C24 18.6274 18.6274 24 12 24C5.37258 24 0 18.6274 0 12C0 5.37258 5.37258 0 12 0C18.6274 0 24 5.37258 24 12ZM12 22C17.5228 22 22 17.5228 22 12C22 6.47715 17.5228 2 12 2C6.47715 2 2 6.47715 2 12C2 17.5228 6.47715 22 12 22Z" fill="#002EFF"/>
</svg>
