<svg width="24" height="24" viewBox="0 0 24 24"  xmlns="http://www.w3.org/2000/svg">
<path id="inicio" fill-rule="evenodd" clip-rule="evenodd" d="M0.856934 11.2348C0.856934 10.7708 1.04505 10.3266 1.3783 10.0037L10.8306 0.844954C11.4965 0.199669 12.5549 0.200928 13.2193 0.847796L22.6242 10.0041C22.9557 10.3268 23.1426 10.7698 23.1426 11.2324V21.4266C23.1426 22.8467 21.9914 23.998 20.5712 23.998H13.7141V18.8575C13.7141 17.9107 12.9466 17.1432 11.9998 17.1432C11.053 17.1432 10.2855 17.9107 10.2855 18.8575V23.998H3.42836C2.0082 23.998 0.856934 22.8467 0.856934 21.4266V11.2348ZM2.57122 11.2348L12.0235 2.0761L21.4284 11.2324V21.4266C21.4284 21.9 21.0446 22.2837 20.5712 22.2837H15.4284V18.8575C15.4284 16.9639 13.8933 15.4289 11.9998 15.4289C10.1062 15.4289 8.57122 16.9639 8.57122 18.8575V22.2837H3.42836C2.95497 22.2837 2.57122 21.9 2.57122 21.4266V11.2348Z" fill="white"/>
</svg>
