<svg width="24" height="24" viewBox="0 0 24 24" fill="none" xmlns="http://www.w3.org/2000/svg">
<path fill-rule="evenodd" clip-rule="evenodd" d="M9.33333 1.33333H2C1.63181 1.33333 1.33333 1.63181 1.33333 2V9.33333C1.33333 9.70152 1.63181 10 2 10H9.33333C9.70152 10 10 9.70152 10 9.33333V2C10 1.63181 9.70152 1.33333 9.33333 1.33333ZM2 0C0.895431 0 0 0.89543 0 2V9.33333C0 10.4379 0.89543 11.3333 2 11.3333H9.33333C10.4379 11.3333 11.3333 10.4379 11.3333 9.33333V2C11.3333 0.895431 10.4379 0 9.33333 0H2Z" fill="white"/>
<path fill-rule="evenodd" clip-rule="evenodd" d="M9.33333 14H2C1.63181 14 1.33333 14.2985 1.33333 14.6667V22C1.33333 22.3682 1.63181 22.6667 2 22.6667H9.33333C9.70152 22.6667 10 22.3682 10 22V14.6667C10 14.2985 9.70152 14 9.33333 14ZM2 12.6667C0.895431 12.6667 0 13.5621 0 14.6667V22C0 23.1046 0.89543 24 2 24H9.33333C10.4379 24 11.3333 23.1046 11.3333 22V14.6667C11.3333 13.5621 10.4379 12.6667 9.33333 12.6667H2Z" fill="white"/>
<path fill-rule="evenodd" clip-rule="evenodd" d="M22 1.33333H14.6667C14.2985 1.33333 14 1.63181 14 2V9.33333C14 9.70152 14.2985 10 14.6667 10H22C22.3682 10 22.6667 9.70152 22.6667 9.33333V2C22.6667 1.63181 22.3682 1.33333 22 1.33333ZM14.6667 0C13.5621 0 12.6667 0.89543 12.6667 2V9.33333C12.6667 10.4379 13.5621 11.3333 14.6667 11.3333H22C23.1046 11.3333 24 10.4379 24 9.33333V2C24 0.895431 23.1046 0 22 0H14.6667Z" fill="white"/>
<path fill-rule="evenodd" clip-rule="evenodd" d="M22 14H14.6667C14.2985 14 14 14.2985 14 14.6667V22C14 22.3682 14.2985 22.6667 14.6667 22.6667H22C22.3682 22.6667 22.6667 22.3682 22.6667 22V14.6667C22.6667 14.2985 22.3682 14 22 14ZM14.6667 12.6667C13.5621 12.6667 12.6667 13.5621 12.6667 14.6667V22C12.6667 23.1046 13.5621 24 14.6667 24H22C23.1046 24 24 23.1046 24 22V14.6667C24 13.5621 23.1046 12.6667 22 12.6667H14.6667Z" fill="white"/>
</svg>
