<svg width="48" height="48" viewBox="0 0 48 48" fill="none" xmlns="http://www.w3.org/2000/svg">
<path fill-rule="evenodd" clip-rule="evenodd" d="M18.85 9.0376C18.4832 9.0376 18.1459 9.23837 17.971 9.56075L10.9069 22.5821C10.0059 22.2305 9.02548 22.0376 8 22.0376C3.58172 22.0376 0 25.6193 0 30.0376C0 34.4559 3.58172 38.0376 8 38.0376C12.4183 38.0376 16 34.4559 16 30.0376C16 27.3598 14.6843 24.9893 12.6642 23.5372L15.4491 18.4037L20.79 30.4207C20.9505 30.7819 21.3086 31.0146 21.7038 31.0146H32.0591C32.5409 34.972 35.9125 38.0376 40 38.0376C44.4183 38.0376 48 34.4559 48 30.0376C48 26.6583 45.9047 23.7684 42.9425 22.5961L46.8144 16.2672C47.0032 15.9586 47.0106 15.572 46.8337 15.2564C46.6568 14.9408 46.3232 14.7454 45.9614 14.7454H34.546C34.3297 14.7454 34.1191 14.8155 33.946 14.9454L28.8965 18.7326C27.0259 17.2034 24.5953 16.4667 22.3439 16.1466C20.2538 15.8495 18.2182 15.897 16.7183 16.0641L19.4452 11.0376H24.5577C25.11 11.0376 25.5577 10.5899 25.5577 10.0376C25.5577 9.48531 25.11 9.0376 24.5577 9.0376H18.85ZM34.0001 30.0652C34.2299 27.8805 35.0825 26.3194 36.2755 25.3332C37.2988 24.522 38.5928 24.0376 40 24.0376C43.3137 24.0376 46 26.7239 46 30.0376C46 33.3513 43.3137 36.0376 40 36.0376C36.6955 36.0376 34.015 33.3662 34.0001 30.0652ZM35.0206 23.7758C35.0569 23.746 35.0934 23.7166 35.1302 23.6875C36.721 22.4312 38.7553 21.8715 40.9682 21.9907L44.1773 16.7454H34.8794L29.4384 20.8262C29.0402 21.1248 28.4832 21.0852 28.1313 20.7333C26.6392 19.2412 24.392 18.4579 22.0625 18.1267C20.3878 17.8886 18.7457 17.8952 17.459 18.0016L22.3536 29.0146H32.0648C32.3349 26.8987 33.4315 25.0411 35.0206 23.7758ZM9.94289 24.3591L7.12102 29.5607C6.85766 30.0462 7.0377 30.6532 7.52315 30.9166C8.0086 31.1799 8.61563 30.9999 8.87898 30.5144L11.7002 25.3141C13.1004 26.4125 14 28.12 14 30.0376C14 33.3513 11.3137 36.0376 8 36.0376C4.68629 36.0376 2 33.3513 2 30.0376C2 26.7239 4.68629 24.0376 8 24.0376C8.67998 24.0376 9.33354 24.1507 9.94289 24.3591Z" fill="#002EFF"/>
</svg>
