<svg width="104" height="86" viewBox="0 0 104 86" fill="none" xmlns="http://www.w3.org/2000/svg">
<path d="M96 70.5L96 8.00001C96 3.58173 92.4183 7.19091e-06 88 6.77241e-06L16.5 0L4.61613 39.2528C2.16875 47.3366 7.38272 55.7305 15.7139 57.119L96 70.5Z" fill="#42E8B4"/>
<path d="M104 85.5L104 8.00001C104 3.58173 100.418 1.08571e-05 96 1.04586e-05L20.5 3.6499e-06L10.5102 55.5435C9.12907 63.2224 14.2916 70.5486 21.9875 71.8312L104 85.5Z" fill="#002EFF"/>
<path fill-rule="evenodd" clip-rule="evenodd" d="M36 39C36 52.8071 47.1929 64 61 64C74.8071 64 86 52.8071 86 39C86 25.1929 74.8071 14 61 14C47.1929 14 36 25.1929 36 39ZM46.2983 55.6643C41.6864 51.5924 38.7778 45.6359 38.7778 39C38.7778 26.727 48.727 16.7778 61 16.7778C73.273 16.7778 83.2222 26.727 83.2222 39C83.2222 45.6359 80.3136 51.5925 75.7016 55.6644C74.4419 51.2142 71.2172 47.5899 67.0238 45.7889C70.8822 43.661 73.4959 39.5536 73.4959 34.8357C73.4959 27.9321 67.8995 22.3357 60.9959 22.3357C54.0924 22.3357 48.4959 27.9321 48.4959 34.8357C48.4959 39.555 51.1112 43.6635 54.9715 45.7908C50.7804 47.5924 47.5575 51.2157 46.2983 55.6643ZM48.7134 57.5195C49.7874 51.7775 54.7901 47.4178 60.8239 47.3345C60.8812 47.3353 60.9385 47.3357 60.9959 47.3357C61.0547 47.3357 61.1133 47.3353 61.1718 47.3345C67.2075 47.4159 72.2123 51.7763 73.2865 57.5196C69.7671 59.8591 65.5428 61.2222 61 61.2222C56.4572 61.2222 52.2327 59.8591 48.7134 57.5195ZM60.8278 44.5565C55.5359 44.4668 51.2737 40.149 51.2737 34.8357C51.2737 29.4663 55.6265 25.1135 60.9959 25.1135C66.3654 25.1135 70.7182 29.4663 70.7182 34.8357C70.7182 40.148 66.4576 44.4651 61.1672 44.5564C61.1115 44.5559 61.0557 44.5556 60.9999 44.5556C60.9425 44.5556 60.8851 44.5559 60.8278 44.5565Z" fill="white"/>
</svg>
