<svg width="24" height="24" viewBox="0 0 24 24" fill="none" xmlns="http://www.w3.org/2000/svg">
<path fill-rule="evenodd" clip-rule="evenodd" d="M4 0C2.52724 0 1.33334 1.19391 1.33334 2.66667V21.3333C1.33334 22.8061 2.52724 24 4 24H20C21.4728 24 22.6667 22.8061 22.6667 21.3333V6.90798C22.6667 6.36091 22.4426 5.83772 22.0466 5.46027L16.8975 0.552294C16.5255 0.197769 16.0314 0 15.5175 0H4ZM2.66667 2.66667C2.66667 1.93029 3.26362 1.33333 4 1.33333H14.6699V5.33622C14.6699 6.44079 15.5654 7.33622 16.6699 7.33622H21.3333V21.3333C21.3333 22.0697 20.7364 22.6667 20 22.6667H4C3.26362 22.6667 2.66667 22.0697 2.66667 21.3333V2.66667ZM20.6834 6.00289L16.0033 1.54196V5.33622C16.0033 5.70441 16.3017 6.00289 16.6699 6.00289H20.6834Z" fill="white"/>
<path fill-rule="evenodd" clip-rule="evenodd" d="M11.4887 8.10638C11.7085 7.96463 11.9909 7.96453 12.2108 8.10613C13.1722 8.72508 13.7309 8.88695 14.2136 8.6068C14.8918 8.21319 15.7374 8.28918 16.3331 8.7814C16.3407 8.78772 16.3482 8.7942 16.3556 8.80085L16.4349 8.8726C16.4422 8.87922 16.4494 8.88601 16.4565 8.89296L17.0129 9.44306C17.5958 10.0192 17.7422 10.8563 17.5517 11.5736C17.3056 12.5008 17.0695 14.0076 17.5395 15.4003C17.7897 16.1419 17.7452 16.9487 17.4199 17.6552C17.417 17.6617 17.4139 17.6681 17.4107 17.6744L17.3426 17.8108C17.3376 17.8208 17.3323 17.8307 17.3268 17.8405L17.2405 17.9934L17.2344 18.0041C16.3157 19.5639 14.6203 20.667 12.3004 21.3892L12.0463 21.4675C11.9188 21.5068 11.7824 21.507 11.6548 21.4679L11.4025 21.3907L11.3995 21.3897C9.07957 20.6676 7.38424 19.5645 6.46554 18.0046L6.45938 17.9939L6.3731 17.841L6.36713 17.8302C5.96419 17.0842 5.88932 16.2042 6.16042 15.4008C6.63035 14.0082 6.39428 12.5013 6.14815 11.5742C5.95772 10.8568 6.10414 10.0198 6.68697 9.44361L7.24344 8.89351C7.80113 8.3422 8.6387 8.20346 9.33889 8.53034C9.34787 8.53454 9.35676 8.53893 9.36555 8.54352L9.46036 8.59305C9.46912 8.59762 9.47777 8.60239 9.48632 8.60735C9.96878 8.88735 10.5283 8.72562 11.4887 8.10638ZM11.8502 9.45112C10.995 9.9572 9.91731 10.3901 8.83086 9.7685L8.76405 9.7336C8.56801 9.64741 8.33601 9.6883 8.18082 9.84172L7.62433 10.3918C7.43464 10.5794 7.34858 10.8996 7.43686 11.2321C7.70735 12.2511 8.01832 14.0652 7.42376 15.8271C7.27155 16.2782 7.31282 16.7721 7.53759 17.1916L7.61744 17.3331C8.30355 18.4942 9.64546 19.4471 11.7944 20.1162L11.7958 20.1167L11.8493 20.133L11.9041 20.1161C14.0535 19.4469 15.3963 18.4938 16.0825 17.3325L16.1573 17.1999L16.2128 17.0888C16.3925 16.6927 16.4162 16.2415 16.2761 15.8266C15.6816 14.0646 15.9926 12.2505 16.263 11.2315C16.3513 10.899 16.2653 10.5788 16.0756 10.3913L15.5296 9.8516L15.4745 9.80178C15.3064 9.66913 15.0716 9.65046 14.8828 9.76C13.7916 10.3933 12.7089 9.95879 11.8502 9.45112Z" fill="white"/>
</svg>
