<svg width="24" height="24" viewBox="0 0 24 24" fill="none" xmlns="http://www.w3.org/2000/svg">
<path fill-rule="evenodd" clip-rule="evenodd" d="M6.66667 7.33333C5.93029 7.33333 5.33334 7.93029 5.33334 8.66667V11.3333C5.33334 12.0697 5.93029 12.6667 6.66667 12.6667H9.33334C10.0697 12.6667 10.6667 12.0697 10.6667 11.3333V8.66667C10.6667 7.93029 10.0697 7.33333 9.33334 7.33333H6.66667ZM6.66667 8.66667H9.33334V11.3333H6.66667V8.66667Z" fill="white"/>
<path fill-rule="evenodd" clip-rule="evenodd" d="M6.66667 14.6667C5.93029 14.6667 5.33334 15.2636 5.33334 16V18.6667C5.33334 19.403 5.93029 20 6.66667 20H9.33334C10.0697 20 10.6667 19.403 10.6667 18.6667V16C10.6667 15.2636 10.0697 14.6667 9.33334 14.6667H6.66667ZM6.66667 16H9.33334V18.6667H6.66667V16Z" fill="white"/>
<path d="M13.3333 9.33337C12.9651 9.33337 12.6667 9.63184 12.6667 10C12.6667 10.3682 12.9651 10.6667 13.3333 10.6667H18.6667C19.0349 10.6667 19.3333 10.3682 19.3333 10C19.3333 9.63184 19.0349 9.33337 18.6667 9.33337H13.3333Z" fill="white"/>
<path d="M13.3333 16.6667C12.9651 16.6667 12.6667 16.9651 12.6667 17.3333C12.6667 17.7015 12.9651 18 13.3333 18H17.3333C17.7015 18 18 17.7015 18 17.3333C18 16.9651 17.7015 16.6667 17.3333 16.6667H13.3333Z" fill="white"/>
<path fill-rule="evenodd" clip-rule="evenodd" d="M4 0C2.52724 0 1.33334 1.19391 1.33334 2.66667V21.3333C1.33334 22.8061 2.52724 24 4 24H20C21.4728 24 22.6667 22.8061 22.6667 21.3333V6.90798C22.6667 6.36091 22.4426 5.83772 22.0466 5.46027L16.8975 0.552294C16.5255 0.197769 16.0314 0 15.5175 0H4ZM2.66667 2.66667C2.66667 1.93029 3.26362 1.33333 4 1.33333H14.6699V5.33622C14.6699 6.44079 15.5654 7.33622 16.6699 7.33622H21.3333V21.3333C21.3333 22.0697 20.7364 22.6667 20 22.6667H4C3.26362 22.6667 2.66667 22.0697 2.66667 21.3333V2.66667ZM20.6834 6.00289L16.0033 1.54196V5.33622C16.0033 5.70441 16.3017 6.00289 16.6699 6.00289H20.6834Z" fill="white"/>
</svg>
