<svg width="24" height="24" viewBox="0 0 24 24" fill="none" xmlns="http://www.w3.org/2000/svg">
<path fill-rule="evenodd" clip-rule="evenodd" d="M12 22.6667C17.891 22.6667 22.6667 17.891 22.6667 12C22.6667 6.10896 17.891 1.33333 12 1.33333C6.10896 1.33333 1.33333 6.10896 1.33333 12C1.33333 17.891 6.10896 22.6667 12 22.6667ZM12 24C18.6274 24 24 18.6274 24 12C24 5.37258 18.6274 0 12 0C5.37258 0 0 5.37258 0 12C0 18.6274 5.37258 24 12 24Z" fill="white"/>
<path d="M14.1399 16.6667C14.0668 16.6667 14.0165 16.6356 13.989 16.5733L12.0686 12.5867C12.0594 12.56 12.0412 12.5467 12.0137 12.5467H10.0384C10.0018 12.5467 9.98354 12.5644 9.98354 12.6V16.5333C9.98354 16.6222 9.93781 16.6667 9.84636 16.6667H8.80384C8.71239 16.6667 8.66666 16.6222 8.66666 16.5333V7.46667C8.66666 7.37778 8.71239 7.33333 8.80384 7.33333H12.4938C13.0425 7.33333 13.5226 7.44445 13.9342 7.66667C14.3548 7.88889 14.6795 8.2 14.9081 8.6C15.1367 9 15.251 9.46222 15.251 9.98667C15.251 10.6089 15.0818 11.1378 14.7435 11.5733C14.4143 12 13.9524 12.2889 13.358 12.44C13.3214 12.4578 13.3123 12.48 13.3306 12.5067L15.3196 16.5067C15.3288 16.5244 15.3333 16.5467 15.3333 16.5733C15.3333 16.6356 15.2968 16.6667 15.2236 16.6667H14.1399ZM10.0384 8.44C10.0018 8.44 9.98354 8.45778 9.98354 8.49333V11.48C9.98354 11.5156 10.0018 11.5333 10.0384 11.5333H12.3292C12.8139 11.5333 13.2026 11.3956 13.4952 11.12C13.7878 10.8356 13.9342 10.4622 13.9342 10C13.9342 9.52889 13.7878 9.15111 13.4952 8.86667C13.2026 8.58222 12.8139 8.44 12.3292 8.44H10.0384Z" fill="white"/>
</svg>
