<svg width="111" height="81" viewBox="0 0 111 81" fill="none" xmlns="http://www.w3.org/2000/svg">
<path d="M0.5 0H103C107.418 0 111 3.58172 111 8V54.5L40.6044 78.1166C36.6078 79.4574 32.2566 77.4669 30.6577 73.5665L0.5 0Z" fill="#42E8B4"/>
<path fill-rule="evenodd" clip-rule="evenodd" d="M63 50C71.8366 50 79 42.8366 79 34C79 25.1634 71.8366 18 63 18C54.1634 18 47 25.1634 47 34C47 42.8366 54.1634 50 63 50ZM63 52C72.9411 52 81 43.9411 81 34C81 24.0589 72.9411 16 63 16C53.0589 16 45 24.0589 45 34C45 43.9411 53.0589 52 63 52Z" fill="#002EFF"/>
<path d="M66.2099 40.9999C66.1001 40.9999 66.0247 40.9533 65.9835 40.8599L63.1029 34.8799C63.0892 34.8399 63.0617 34.8199 63.0206 34.8199H60.0576C60.0027 34.8199 59.9753 34.8466 59.9753 34.8999V40.7999C59.9753 40.9333 59.9067 40.9999 59.7695 40.9999H58.2058C58.0686 40.9999 58 40.9333 58 40.7999V27.1999C58 27.0666 58.0686 26.9999 58.2058 26.9999H63.7407C64.5638 26.9999 65.284 27.1666 65.9012 27.4999C66.5322 27.8333 67.0192 28.2999 67.3621 28.8999C67.7051 29.4999 67.8765 30.1933 67.8765 30.9799C67.8765 31.9133 67.6228 32.7066 67.1152 33.3599C66.6214 33.9999 65.9287 34.4333 65.037 34.6599C64.9822 34.6866 64.9684 34.7199 64.9959 34.7599L67.9794 40.7599C67.9931 40.7866 68 40.8199 68 40.8599C68 40.9533 67.9451 40.9999 67.8354 40.9999H66.2099ZM60.0576 28.6599C60.0027 28.6599 59.9753 28.6866 59.9753 28.7399V33.2199C59.9753 33.2733 60.0027 33.2999 60.0576 33.2999H63.4938C64.2208 33.2999 64.8038 33.0933 65.2428 32.6799C65.6818 32.2533 65.9012 31.6933 65.9012 30.9999C65.9012 30.2933 65.6818 29.7266 65.2428 29.2999C64.8038 28.8733 64.2208 28.6599 63.4938 28.6599H60.0576Z" fill="#002EFF"/>
</svg>
