<svg width="211" height="120" viewBox="0 0 211 120" fill="none" xmlns="http://www.w3.org/2000/svg">
<path d="M10 8C10 3.58172 13.5817 0 18 0H181L207.757 43.5375C209.423 46.2479 209.325 49.6876 207.507 52.2983L171.5 104H18C13.5817 104 10 100.418 10 96V8Z" fill="#FD6C98"/>
<path d="M0 8C0 3.58172 3.58172 0 8 0H174L203.815 64.2881C205.144 67.1539 204.662 70.5334 202.585 72.9136L161.5 120H8C3.58173 120 0 116.418 0 112V8Z" fill="#020247"/>
<path d="M34.594 53.6C34.7407 53.6 34.814 53.6733 34.814 53.82V55.228C34.814 55.3747 34.7407 55.448 34.594 55.448H30.37C30.3113 55.448 30.282 55.4773 30.282 55.536V68.78C30.282 68.9267 30.2087 69 30.062 69H28.39C28.2433 69 28.17 68.9267 28.17 68.78V55.536C28.17 55.4773 28.1407 55.448 28.082 55.448H24.056C23.9093 55.448 23.836 55.3747 23.836 55.228V53.82C23.836 53.6733 23.9093 53.6 24.056 53.6H34.594ZM38.2125 56.042C37.8018 56.042 37.4645 55.91 37.2005 55.646C36.9365 55.382 36.8045 55.0447 36.8045 54.634C36.8045 54.2233 36.9365 53.886 37.2005 53.622C37.4645 53.358 37.8018 53.226 38.2125 53.226C38.6232 53.226 38.9605 53.358 39.2245 53.622C39.4885 53.886 39.6205 54.2233 39.6205 54.634C39.6205 55.0447 39.4885 55.382 39.2245 55.646C38.9605 55.91 38.6232 56.042 38.2125 56.042ZM37.3325 68.978C37.1858 68.978 37.1125 68.9047 37.1125 68.758V58.022C37.1125 57.8753 37.1858 57.802 37.3325 57.802H39.0045C39.1512 57.802 39.2245 57.8753 39.2245 58.022V68.758C39.2245 68.9047 39.1512 68.978 39.0045 68.978H37.3325ZM51.6299 60.618C51.9086 61.41 52.0479 62.3487 52.0479 63.434C52.0479 64.4607 51.9306 65.348 51.6959 66.096C51.3879 67.0787 50.8819 67.8413 50.1779 68.384C49.4739 68.912 48.5719 69.176 47.4719 69.176C46.9732 69.176 46.4966 69.0807 46.0419 68.89C45.6019 68.6847 45.2206 68.3987 44.8979 68.032C44.8686 68.0027 44.8392 67.9953 44.8099 68.01C44.7952 68.0247 44.7879 68.0467 44.7879 68.076V72.982C44.7879 73.1287 44.7146 73.202 44.5679 73.202H42.8959C42.7492 73.202 42.6759 73.1287 42.6759 72.982V58.022C42.6759 57.8753 42.7492 57.802 42.8959 57.802H44.5679C44.7146 57.802 44.7879 57.8753 44.7879 58.022V58.748C44.7879 58.7773 44.7952 58.7993 44.8099 58.814C44.8392 58.8287 44.8686 58.8213 44.8979 58.792C45.2206 58.4253 45.6019 58.1393 46.0419 57.934C46.4819 57.7287 46.9586 57.626 47.4719 57.626C48.5279 57.626 49.4006 57.89 50.0899 58.418C50.7939 58.9313 51.3072 59.6647 51.6299 60.618ZM49.2099 66.294C49.6792 65.59 49.9139 64.622 49.9139 63.39C49.9139 62.2607 49.7306 61.3513 49.3639 60.662C48.9386 59.8553 48.2419 59.452 47.2739 59.452C46.4232 59.452 45.7779 59.848 45.3379 60.64C44.9859 61.2707 44.8099 62.1947 44.8099 63.412C44.8099 64.644 45.0006 65.5827 45.3819 66.228C45.8072 66.976 46.4306 67.35 47.2519 67.35C48.1319 67.35 48.7846 66.998 49.2099 66.294ZM58.7495 69.132C57.8695 69.132 57.0922 69 56.4175 68.736C55.7575 68.472 55.2442 68.1127 54.8775 67.658C54.5108 67.1887 54.3275 66.6753 54.3275 66.118V65.876C54.3275 65.7293 54.4008 65.656 54.5475 65.656H56.1315C56.2782 65.656 56.3515 65.7293 56.3515 65.876V65.986C56.3515 66.3967 56.5715 66.756 57.0115 67.064C57.4662 67.372 58.0382 67.526 58.7275 67.526C59.3875 67.526 59.9228 67.3867 60.3335 67.108C60.7442 66.8147 60.9495 66.448 60.9495 66.008C60.9495 65.5827 60.7588 65.2673 60.3775 65.062C59.9962 64.842 59.3802 64.6147 58.5295 64.38C57.6935 64.1453 56.9895 63.9107 56.4175 63.676C55.8602 63.4267 55.3835 63.082 54.9875 62.642C54.6062 62.1873 54.4155 61.608 54.4155 60.904C54.4155 59.9213 54.7968 59.144 55.5595 58.572C56.3368 57.9853 57.3635 57.692 58.6395 57.692C59.4902 57.692 60.2382 57.8313 60.8835 58.11C61.5435 58.374 62.0495 58.748 62.4015 59.232C62.7535 59.716 62.9295 60.2587 62.9295 60.86V60.926C62.9295 61.0727 62.8562 61.146 62.7095 61.146H61.1695C61.0228 61.146 60.9495 61.0727 60.9495 60.926V60.86C60.9495 60.4347 60.7368 60.0827 60.3115 59.804C59.9008 59.5107 59.3362 59.364 58.6175 59.364C57.9722 59.364 57.4442 59.4887 57.0335 59.738C56.6375 59.9873 56.4395 60.3247 56.4395 60.75C56.4395 61.1753 56.6302 61.498 57.0115 61.718C57.4075 61.938 58.0382 62.1727 58.9035 62.422C59.7542 62.6567 60.4582 62.8913 61.0155 63.126C61.5875 63.346 62.0715 63.6833 62.4675 64.138C62.8635 64.578 63.0615 65.1573 63.0615 65.876C63.0615 66.8733 62.6655 67.6653 61.8735 68.252C61.0962 68.8387 60.0548 69.132 58.7495 69.132ZM76.8885 53.82C76.8885 53.6733 76.9618 53.6 77.1085 53.6H78.7805C78.9272 53.6 79.0005 53.6733 79.0005 53.82V68.78C79.0005 68.9267 78.9272 69 78.7805 69H77.1085C76.9618 69 76.8885 68.9267 76.8885 68.78V68.054C76.8885 68.0247 76.8738 68.0027 76.8445 67.988C76.8298 67.9733 76.8078 67.9807 76.7785 68.01C76.4558 68.3767 76.0745 68.6627 75.6345 68.868C75.1945 69.0733 74.7178 69.176 74.2045 69.176C73.1485 69.176 72.2685 68.9193 71.5645 68.406C70.8752 67.878 70.3692 67.1373 70.0465 66.184C69.7678 65.4067 69.6285 64.468 69.6285 63.368C69.6285 62.3413 69.7458 61.454 69.9805 60.706C70.2885 59.738 70.7945 58.9827 71.4985 58.44C72.2025 57.8973 73.1045 57.626 74.2045 57.626C74.7032 57.626 75.1725 57.7287 75.6125 57.934C76.0672 58.1247 76.4558 58.4033 76.7785 58.77C76.8078 58.7993 76.8298 58.8067 76.8445 58.792C76.8738 58.7773 76.8885 58.7553 76.8885 58.726V53.82ZM76.3385 66.162C76.6758 65.546 76.8445 64.622 76.8445 63.39C76.8445 62.158 76.6612 61.2193 76.2945 60.574C75.8692 59.826 75.2458 59.452 74.4245 59.452C73.5445 59.452 72.8918 59.804 72.4665 60.508C71.9972 61.2413 71.7625 62.2093 71.7625 63.412C71.7625 64.5413 71.9458 65.4507 72.3125 66.14C72.7378 66.9467 73.4345 67.35 74.4025 67.35C75.2532 67.35 75.8985 66.954 76.3385 66.162ZM91.1606 62.004C91.2193 62.6053 91.2413 63.28 91.2266 64.028C91.2266 64.1747 91.1533 64.248 91.0066 64.248H83.9886C83.93 64.248 83.9006 64.2773 83.9006 64.336C83.9006 64.8347 83.9446 65.216 84.0326 65.48C84.194 66.0667 84.5166 66.5287 85.0006 66.866C85.4993 67.1887 86.1226 67.35 86.8706 67.35C87.956 67.35 88.792 66.9027 89.3786 66.008C89.452 65.8613 89.5473 65.8393 89.6646 65.942L90.9186 66.778C91.0213 66.866 91.0433 66.9613 90.9846 67.064C90.574 67.724 89.9873 68.2447 89.2246 68.626C88.4766 69.0073 87.626 69.198 86.6726 69.198C85.602 69.198 84.7 68.9633 83.9666 68.494C83.2333 68.0247 82.6833 67.3573 82.3166 66.492C81.9646 65.6267 81.7886 64.578 81.7886 63.346C81.7886 62.2753 81.8693 61.4613 82.0306 60.904C82.2946 59.892 82.8226 59.0927 83.6146 58.506C84.4066 57.9193 85.3673 57.626 86.4966 57.626C87.978 57.626 89.0853 58 89.8186 58.748C90.552 59.4813 90.9993 60.5667 91.1606 62.004ZM86.4966 59.452C85.866 59.452 85.3453 59.6133 84.9346 59.936C84.524 60.244 84.2453 60.662 84.0986 61.19C83.996 61.5127 83.93 61.9233 83.9006 62.422C83.9006 62.4807 83.93 62.51 83.9886 62.51H89.0266C89.0853 62.51 89.1146 62.4807 89.1146 62.422C89.0853 61.938 89.0413 61.5787 88.9826 61.344C88.836 60.772 88.5426 60.3173 88.1026 59.98C87.6773 59.628 87.142 59.452 86.4966 59.452ZM102.388 57.626C103.283 57.626 104.06 57.7873 104.72 58.11C105.395 58.418 105.908 58.858 106.26 59.43C106.627 59.9873 106.81 60.6253 106.81 61.344V68.78C106.81 68.9267 106.737 69 106.59 69H104.918C104.771 69 104.698 68.9267 104.698 68.78V67.988C104.698 67.9147 104.661 67.9 104.588 67.944C104.207 68.34 103.737 68.648 103.18 68.868C102.637 69.0733 102.029 69.176 101.354 69.176C100.269 69.176 99.3665 68.9047 98.6479 68.362C97.9439 67.8047 97.5919 66.9687 97.5919 65.854C97.5919 64.71 97.9879 63.8153 98.7799 63.17C99.5865 62.51 100.709 62.18 102.146 62.18H104.61C104.669 62.18 104.698 62.1507 104.698 62.092V61.498C104.698 60.8527 104.507 60.354 104.126 60.002C103.759 59.6353 103.195 59.452 102.432 59.452C101.816 59.452 101.31 59.5767 100.914 59.826C100.533 60.0607 100.298 60.3833 100.21 60.794C100.166 60.9407 100.078 61.0067 99.9459 60.992L98.1639 60.75C98.0172 60.7207 97.9512 60.662 97.9659 60.574C98.0832 59.7087 98.5452 59.0047 99.3519 58.462C100.159 57.9047 101.171 57.626 102.388 57.626ZM101.816 67.394C102.593 67.394 103.268 67.1887 103.84 66.778C104.412 66.3673 104.698 65.8467 104.698 65.216V63.918C104.698 63.8593 104.669 63.83 104.61 63.83H102.542C101.677 63.83 100.987 63.9987 100.474 64.336C99.9605 64.6733 99.7039 65.1427 99.7039 65.744C99.7039 66.2867 99.8945 66.6973 100.276 66.976C100.672 67.2547 101.185 67.394 101.816 67.394ZM109.138 73.378C109.035 73.378 108.984 73.3047 108.984 73.158V71.86C108.984 71.7133 109.057 71.64 109.204 71.64H109.248C109.834 71.6253 110.296 71.552 110.634 71.42C110.971 71.288 111.25 71.0387 111.47 70.672C111.69 70.32 111.902 69.7847 112.108 69.066C112.122 69.0513 112.122 69.0293 112.108 69C112.108 68.956 112.108 68.934 112.108 68.934L108.434 58.044L108.412 57.956C108.412 57.8533 108.478 57.802 108.61 57.802H110.392C110.524 57.802 110.612 57.8607 110.656 57.978L113.142 66.272C113.156 66.3013 113.178 66.316 113.208 66.316C113.237 66.316 113.259 66.3013 113.274 66.272L115.738 57.978C115.782 57.8607 115.87 57.802 116.002 57.802H117.74C117.901 57.802 117.96 57.8827 117.916 58.044L113.912 69.77C113.574 70.782 113.237 71.53 112.9 72.014C112.562 72.5127 112.122 72.8647 111.58 73.07C111.037 73.2753 110.274 73.378 109.292 73.378H109.138ZM126.597 58.022C126.597 57.8753 126.67 57.802 126.817 57.802H128.467C128.613 57.802 128.687 57.8753 128.687 58.022V68.78C128.687 68.9267 128.613 69 128.467 69H126.817C126.67 69 126.597 68.9267 126.597 68.78V67.966C126.597 67.9367 126.582 67.922 126.553 67.922C126.538 67.9073 126.516 67.9147 126.487 67.944C125.9 68.7507 124.998 69.154 123.781 69.154C123.062 69.154 122.395 69.0147 121.779 68.736C121.177 68.4573 120.693 68.0467 120.327 67.504C119.96 66.9613 119.777 66.3013 119.777 65.524V58.022C119.777 57.8753 119.85 57.802 119.997 57.802H121.647C121.793 57.802 121.867 57.8753 121.867 58.022V64.864C121.867 65.6267 122.065 66.228 122.461 66.668C122.871 67.108 123.443 67.328 124.177 67.328C124.91 67.328 125.497 67.108 125.937 66.668C126.377 66.2133 126.597 65.612 126.597 64.864V58.022ZM138.721 53.82C138.721 53.6733 138.794 53.6 138.941 53.6H140.613C140.759 53.6 140.833 53.6733 140.833 53.82V68.78C140.833 68.9267 140.759 69 140.613 69H138.941C138.794 69 138.721 68.9267 138.721 68.78V68.054C138.721 68.0247 138.706 68.0027 138.677 67.988C138.662 67.9733 138.64 67.9807 138.611 68.01C138.288 68.3767 137.907 68.6627 137.467 68.868C137.027 69.0733 136.55 69.176 136.037 69.176C134.981 69.176 134.101 68.9193 133.397 68.406C132.707 67.878 132.201 67.1373 131.879 66.184C131.6 65.4067 131.461 64.468 131.461 63.368C131.461 62.3413 131.578 61.454 131.813 60.706C132.121 59.738 132.627 58.9827 133.331 58.44C134.035 57.8973 134.937 57.626 136.037 57.626C136.535 57.626 137.005 57.7287 137.445 57.934C137.899 58.1247 138.288 58.4033 138.611 58.77C138.64 58.7993 138.662 58.8067 138.677 58.792C138.706 58.7773 138.721 58.7553 138.721 58.726V53.82ZM138.171 66.162C138.508 65.546 138.677 64.622 138.677 63.39C138.677 62.158 138.493 61.2193 138.127 60.574C137.701 59.826 137.078 59.452 136.257 59.452C135.377 59.452 134.724 59.804 134.299 60.508C133.829 61.2413 133.595 62.2093 133.595 63.412C133.595 64.5413 133.778 65.4507 134.145 66.14C134.57 66.9467 135.267 67.35 136.235 67.35C137.085 67.35 137.731 66.954 138.171 66.162ZM148.021 57.626C148.915 57.626 149.693 57.7873 150.353 58.11C151.027 58.418 151.541 58.858 151.893 59.43C152.259 59.9873 152.443 60.6253 152.443 61.344V68.78C152.443 68.9267 152.369 69 152.223 69H150.551C150.404 69 150.331 68.9267 150.331 68.78V67.988C150.331 67.9147 150.294 67.9 150.221 67.944C149.839 68.34 149.37 68.648 148.813 68.868C148.27 69.0733 147.661 69.176 146.987 69.176C145.901 69.176 144.999 68.9047 144.281 68.362C143.577 67.8047 143.225 66.9687 143.225 65.854C143.225 64.71 143.621 63.8153 144.413 63.17C145.219 62.51 146.341 62.18 147.779 62.18H150.243C150.301 62.18 150.331 62.1507 150.331 62.092V61.498C150.331 60.8527 150.14 60.354 149.759 60.002C149.392 59.6353 148.827 59.452 148.065 59.452C147.449 59.452 146.943 59.5767 146.547 59.826C146.165 60.0607 145.931 60.3833 145.843 60.794C145.799 60.9407 145.711 61.0067 145.579 60.992L143.797 60.75C143.65 60.7207 143.584 60.662 143.599 60.574C143.716 59.7087 144.178 59.0047 144.985 58.462C145.791 57.9047 146.803 57.626 148.021 57.626ZM147.449 67.394C148.226 67.394 148.901 67.1887 149.473 66.778C150.045 66.3673 150.331 65.8467 150.331 65.216V63.918C150.331 63.8593 150.301 63.83 150.243 63.83H148.175C147.309 63.83 146.62 63.9987 146.107 64.336C145.593 64.6733 145.337 65.1427 145.337 65.744C145.337 66.2867 145.527 66.6973 145.909 66.976C146.305 67.2547 146.818 67.394 147.449 67.394Z" fill="white"/>
</svg>
